<?xml version="1.0" encoding="UTF-8" standalone="no"?>
<!-- Created with Inkscape (http://www.inkscape.org/) -->

<svg
   xmlns:dc="http://purl.org/dc/elements/1.1/"
   xmlns:cc="http://creativecommons.org/ns#"
   xmlns:rdf="http://www.w3.org/1999/02/22-rdf-syntax-ns#"
   xmlns:svg="http://www.w3.org/2000/svg"
   xmlns="http://www.w3.org/2000/svg"
   xmlns:sodipodi="http://sodipodi.sourceforge.net/DTD/sodipodi-0.dtd"
   xmlns:inkscape="http://www.inkscape.org/namespaces/inkscape"
   width="317.89105"
   height="348.59238"
   id="svg2441"
   sodipodi:version="0.32"
   inkscape:version="0.91 r13725"
   sodipodi:docname="function-odd1.svg"
   inkscape:output_extension="org.inkscape.output.svg.inkscape"
   version="1.1">
  <sodipodi:namedview
     id="base"
     pagecolor="#ffffff"
     bordercolor="#666666"
     borderopacity="1.0"
     gridtolerance="10000"
     guidetolerance="10"
     objecttolerance="10"
     inkscape:pageopacity="0.0"
     inkscape:pageshadow="2"
     inkscape:zoom="2.3649377"
     inkscape:cx="41.703316"
     inkscape:cy="152.92726"
     inkscape:document-units="px"
     inkscape:current-layer="layer1"
     showgrid="false"
     showborder="true"
     inkscape:window-width="1366"
     inkscape:window-height="768"
     inkscape:window-x="-4"
     inkscape:window-y="-4"
     inkscape:window-maximized="0" />
  <defs
     id="defs2443">
    <marker
       inkscape:stockid="Arrow2Lend"
       orient="auto"
       refY="0"
       refX="0"
       id="Arrow2Lend"
       style="overflow:visible"
       inkscape:isstock="true">
      <path
         id="path4331"
         style="fill:#2e3436;fill-opacity:0.75;fill-rule:evenodd;stroke:#2e3436;stroke-width:0.625;stroke-linejoin:round;stroke-opacity:1"
         d="M 8.7185878,4.0337352 -2.2072895,0.01601326 8.7185884,-4.0017078 c -1.7454984,2.3720609 -1.7354408,5.6174519 -6e-7,8.035443 z"
         transform="matrix(-1.1,0,0,-1.1,-1.1,0)"
         inkscape:connector-curvature="0" />
    </marker>
    <marker
       style="overflow:visible"
       id="Arrow1Mend"
       refX="0"
       refY="0"
       orient="auto"
       inkscape:stockid="Arrow1Mend">
      <path
         transform="matrix(-0.4,0,0,-0.4,-4,0)"
         style="fill-rule:evenodd;stroke:#000000;stroke-width:1pt;marker-start:none"
         d="M 0,0 5,-5 -12.5,0 5,5 0,0 Z"
         id="path3195"
         inkscape:connector-curvature="0" />
    </marker>
  </defs>
  <metadata
     id="metadata2446">
    <rdf:RDF>
      <cc:Work
         rdf:about="">
        <dc:format>image/svg+xml</dc:format>
        <dc:type
           rdf:resource="http://purl.org/dc/dcmitype/StillImage" />
        <dc:title></dc:title>
      </cc:Work>
    </rdf:RDF>
  </metadata>
  <g
     id="layer1"
     inkscape:groupmode="layer"
     inkscape:label="Layer 1"
     transform="translate(688.10677,-782.13227)">
    <g
       id="g4409"
       transform="translate(58.895509,-583.03047)">
      <path
         inkscape:connector-curvature="0"
         style="fill:none;stroke:#e5e6e8;stroke-width:0.86887711;stroke-linecap:butt;stroke-linejoin:miter;stroke-miterlimit:4;stroke-dasharray:6.95101649, 0.86887706;stroke-dashoffset:0;stroke-opacity:1"
         d="m -745.40026,1377.6959 315.01936,0"
         id="path4749" />
      <path
         inkscape:connector-curvature="0"
         style="fill:none;stroke:#e5e6e8;stroke-width:0.86887711;stroke-linecap:butt;stroke-linejoin:miter;stroke-miterlimit:4;stroke-dasharray:6.95101649, 0.86887706;stroke-dashoffset:0;stroke-opacity:1"
         d="m -745.40026,1694.7194 315.01936,0"
         id="path4757" />
      <path
         inkscape:connector-curvature="0"
         style="fill:none;stroke:#e5e6e8;stroke-width:0.86887711;stroke-linecap:butt;stroke-linejoin:miter;stroke-miterlimit:4;stroke-dasharray:6.95101649, 0.86887706;stroke-dashoffset:0;stroke-opacity:1"
         d="m -745.40026,1567.91 315.01936,0"
         id="path4759" />
      <path
         inkscape:connector-curvature="0"
         style="fill:none;stroke:#e5e6e8;stroke-width:0.86887711;stroke-linecap:butt;stroke-linejoin:miter;stroke-miterlimit:4;stroke-dasharray:6.95101649, 0.86887706;stroke-dashoffset:0;stroke-opacity:1"
         d="m -745.40026,1504.5052 315.01936,0"
         id="path4761" />
      <path
         inkscape:connector-curvature="0"
         style="fill:none;stroke:#e5e6e8;stroke-width:0.86887711;stroke-linecap:butt;stroke-linejoin:miter;stroke-miterlimit:4;stroke-dasharray:6.95101649, 0.86887706;stroke-dashoffset:0;stroke-opacity:1"
         d="m -745.40026,1441.1008 315.01936,0"
         id="path4763" />
      <path
         inkscape:connector-curvature="0"
         style="fill:none;stroke:#e5e6e8;stroke-width:0.86887711;stroke-linecap:butt;stroke-linejoin:miter;stroke-miterlimit:4;stroke-dasharray:6.95101649, 0.86887706;stroke-dashoffset:0;stroke-opacity:1"
         d="m -745.4002,1631.3145 315.0193,0"
         id="path4765" />
      <path
         inkscape:connector-curvature="0"
         style="fill:none;stroke:#e5e6e8;stroke-width:0.86887711;stroke-linecap:butt;stroke-linejoin:miter;stroke-miterlimit:4;stroke-dasharray:6.95101649, 0.86887706;stroke-dashoffset:0;stroke-opacity:1"
         d="m -745.40026,1409.3984 315.01936,0"
         id="path4767" />
      <path
         inkscape:connector-curvature="0"
         style="fill:none;stroke:#e5e6e8;stroke-width:0.86887711;stroke-linecap:butt;stroke-linejoin:miter;stroke-miterlimit:4;stroke-dasharray:6.95101649, 0.86887706;stroke-dashoffset:0;stroke-opacity:1"
         d="m -745.40026,1599.6122 315.01936,0"
         id="path4775" />
      <path
         inkscape:connector-curvature="0"
         style="fill:none;stroke:#e5e6e8;stroke-width:0.86887711;stroke-linecap:butt;stroke-linejoin:miter;stroke-miterlimit:4;stroke-dasharray:6.95101649, 0.86887706;stroke-dashoffset:0;stroke-opacity:1"
         d="m -745.40026,1536.2078 315.01936,0"
         id="path4777" />
      <path
         inkscape:connector-curvature="0"
         style="fill:none;stroke:#e5e6e8;stroke-width:0.86887711;stroke-linecap:butt;stroke-linejoin:miter;stroke-miterlimit:4;stroke-dasharray:6.95101649, 0.86887706;stroke-dashoffset:0;stroke-opacity:1"
         d="m -745.40026,1472.803 315.01936,0"
         id="path4779" />
      <path
         inkscape:connector-curvature="0"
         style="fill:none;stroke:#e5e6e8;stroke-width:0.86887711;stroke-linecap:butt;stroke-linejoin:miter;stroke-miterlimit:4;stroke-dasharray:6.95101649, 0.86887706;stroke-dashoffset:0;stroke-opacity:1"
         d="m -745.4002,1663.017 315.0193,0"
         id="path4781" />
      <path
         inkscape:connector-curvature="0"
         style="fill:none;stroke:#e5e6e8;stroke-width:0.86770207;stroke-linecap:butt;stroke-linejoin:miter;stroke-miterlimit:4;stroke-dasharray:6.94161612, 0.86770202;stroke-dashoffset:0;stroke-opacity:1"
         d="m -556.35428,1693.5512 0,-314.1679"
         id="path4785" />
      <path
         inkscape:connector-curvature="0"
         style="fill:none;stroke:#e5e6e8;stroke-width:0.86770207;stroke-linecap:butt;stroke-linejoin:miter;stroke-miterlimit:4;stroke-dasharray:6.94161612, 0.86770202;stroke-dashoffset:0;stroke-opacity:1"
         d="m -619.75922,1693.5512 0,-314.1679"
         id="path4787" />
      <path
         inkscape:connector-curvature="0"
         style="fill:none;stroke:#e5e6e8;stroke-width:0.86770207;stroke-linecap:butt;stroke-linejoin:miter;stroke-miterlimit:4;stroke-dasharray:6.94161612, 0.86770202;stroke-dashoffset:0;stroke-opacity:1"
         d="m -683.16378,1693.5512 0,-314.1679"
         id="path4789" />
      <path
         inkscape:connector-curvature="0"
         style="fill:none;stroke:#e5e6e8;stroke-width:0.86770207;stroke-linecap:butt;stroke-linejoin:miter;stroke-miterlimit:4;stroke-dasharray:6.94161612, 0.86770202;stroke-dashoffset:0;stroke-opacity:1"
         d="m -746.56843,1693.5512 0,-314.1679"
         id="path4791" />
      <path
         inkscape:connector-curvature="0"
         style="fill:none;stroke:#e5e6e8;stroke-width:0.86770207;stroke-linecap:butt;stroke-linejoin:miter;stroke-miterlimit:4;stroke-dasharray:6.94161612, 0.86770202;stroke-dashoffset:0;stroke-opacity:1"
         d="m -429.54508,1693.5512 0,-314.1679"
         id="path4797" />
      <path
         inkscape:connector-curvature="0"
         style="fill:none;stroke:#e5e6e8;stroke-width:0.86770207;stroke-linecap:butt;stroke-linejoin:miter;stroke-miterlimit:4;stroke-dasharray:6.94161612, 0.86770202;stroke-dashoffset:0;stroke-opacity:1"
         d="m -492.94973,1693.5512 0,-314.1679"
         id="path4799" />
      <path
         inkscape:connector-curvature="0"
         style="fill:none;stroke:#e5e6e8;stroke-width:0.86770207;stroke-linecap:butt;stroke-linejoin:miter;stroke-miterlimit:4;stroke-dasharray:6.94161612, 0.86770202;stroke-dashoffset:0;stroke-opacity:1"
         d="m -524.65206,1693.5512 0,-314.1679"
         id="path4803" />
      <path
         inkscape:connector-curvature="0"
         style="fill:none;stroke:#e5e6e8;stroke-width:0.86770207;stroke-linecap:butt;stroke-linejoin:miter;stroke-miterlimit:4;stroke-dasharray:6.94161612, 0.86770202;stroke-dashoffset:0;stroke-opacity:1"
         d="m -588.05671,1693.5512 0,-314.1679"
         id="path4805" />
      <path
         inkscape:connector-curvature="0"
         style="fill:none;stroke:#e5e6e8;stroke-width:0.86770207;stroke-linecap:butt;stroke-linejoin:miter;stroke-miterlimit:4;stroke-dasharray:6.94161612, 0.86770202;stroke-dashoffset:0;stroke-opacity:1"
         d="m -651.46136,1693.5512 0,-314.1679"
         id="path4807" />
      <path
         inkscape:connector-curvature="0"
         style="fill:none;stroke:#e5e6e8;stroke-width:0.86770207;stroke-linecap:butt;stroke-linejoin:miter;stroke-miterlimit:4;stroke-dasharray:6.94161612, 0.86770202;stroke-dashoffset:0;stroke-opacity:1"
         d="m -714.86591,1693.5512 0,-314.1679"
         id="path4809" />
      <path
         inkscape:connector-curvature="0"
         style="fill:none;stroke:#e5e6e8;stroke-width:0.86770207;stroke-linecap:butt;stroke-linejoin:miter;stroke-miterlimit:4;stroke-dasharray:6.94161612, 0.86770202;stroke-dashoffset:0;stroke-opacity:1"
         d="m -461.2475,1693.5512 0,-314.1679"
         id="path4815" />
    </g>
    <path
       sodipodi:nodetypes="cssc"
       id="path9536"
       d="m -561.42349,1129.3301 c 0,0 11.62919,-186.98935 45.32804,-187.8374 15.0687,-0.37512 22.20397,24.26449 37.08289,24.26449 30.01559,0 45.20616,-182.2304 45.20616,-182.2304"
       style="display:inline;overflow:visible;visibility:visible;fill:none;stroke:#0197fd;stroke-width:2.75;stroke-linecap:round;stroke-linejoin:miter;stroke-miterlimit:4;stroke-dasharray:none;stroke-dashoffset:0;stroke-opacity:1;marker:none;enable-background:accumulate"
       inkscape:connector-curvature="0" />
    <path
       id="path9580"
       d="m -641.2022,953.45628 263.27364,0"
       style="fill:#2e3436;fill-opacity:0.75;fill-rule:evenodd;stroke:#2e3436;stroke-width:1.64999998;stroke-linecap:butt;stroke-linejoin:miter;stroke-miterlimit:4;stroke-dasharray:none;stroke-dashoffset:0;stroke-opacity:1;marker-end:url(#Arrow1Mend)"
       inkscape:connector-curvature="0" />
    <path
       id="path9582"
       d="m -497.81846,1100.4387 0,-284.83008"
       style="fill:#2e3436;fill-opacity:0.75;fill-rule:evenodd;stroke:#2e3436;stroke-width:1.65000021;stroke-linecap:butt;stroke-linejoin:miter;stroke-miterlimit:4;stroke-dasharray:none;stroke-dashoffset:0;stroke-opacity:1;marker-end:url(#Arrow1Mend)"
       inkscape:connector-curvature="0" />
    <text
       xml:space="preserve"
       style="font-style:italic;font-variant:normal;font-weight:normal;font-stretch:normal;font-size:30.79999924px;line-height:125%;font-family:'Comic Sans MS';text-indent:0;text-align:start;text-decoration:none;text-decoration-line:none;letter-spacing:normal;word-spacing:normal;text-transform:none;direction:ltr;block-progression:tb;writing-mode:lr;text-anchor:start;display:inline;overflow:visible;visibility:visible;fill:#000000;fill-opacity:1;fill-rule:nonzero;stroke:none;stroke-width:1px;marker:none;-inkscape-font-specification:'Comic Sans MS, Italic';"
       x="-400.49643"
       y="976.1875"
       id="text9584"
       sodipodi:linespacing="125%"><tspan
         y="976.1875"
         x="-400.49643"
         id="tspan9586"
         sodipodi:role="line">x</tspan></text>
    <text
       xml:space="preserve"
       style="font-style:italic;font-variant:normal;font-weight:normal;font-stretch:normal;font-size:30.79999924px;line-height:125%;font-family:'Comic Sans MS';-inkscape-font-specification:'Comic Sans MS, Italic';text-indent:0;text-align:start;text-decoration:none;text-decoration-line:none;letter-spacing:normal;word-spacing:normal;text-transform:none;direction:ltr;block-progression:tb;writing-mode:lr;text-anchor:start;display:inline;overflow:visible;visibility:visible;fill:#000000;fill-opacity:1;fill-rule:nonzero;stroke:none;stroke-width:1px;marker:none;"
       x="-520.74866"
       y="841.51538"
       id="text9588"
       sodipodi:linespacing="125%"><tspan
         y="841.51538"
         x="-520.74866"
         id="tspan9590"
         sodipodi:role="line">y</tspan></text>
    <text
       sodipodi:linespacing="125%"
       id="text9592"
       y="973.74084"
       x="-451.81885"
       style="font-style:normal;font-variant:normal;font-weight:normal;font-stretch:normal;font-size:26.67225456px;line-height:125%;font-family:'Comic Sans MS';-inkscape-font-specification:'Comic Sans MS';text-indent:0;text-align:start;text-decoration:none;text-decoration-line:none;letter-spacing:normal;word-spacing:normal;text-transform:none;direction:ltr;block-progression:tb;writing-mode:lr-tb;text-anchor:start;display:inline;overflow:visible;visibility:visible;fill:#f44800;fill-opacity:1;fill-rule:nonzero;stroke:none;stroke-width:2.20000005;marker:none;enable-background:accumulate"
       xml:space="preserve"><tspan
         y="973.74084"
         x="-451.81885"
         id="tspan9594"
         sodipodi:role="line">x</tspan></text>
    <text
       sodipodi:linespacing="125%"
       id="text9596"
       y="949.87537"
       x="-569.81549"
       style="font-style:normal;font-variant:normal;font-weight:normal;font-stretch:normal;font-size:26.67225456px;line-height:125%;font-family:'Comic Sans MS';-inkscape-font-specification:'Comic Sans MS';text-indent:0;text-align:start;text-decoration:none;text-decoration-line:none;letter-spacing:normal;word-spacing:normal;text-transform:none;direction:ltr;block-progression:tb;writing-mode:lr-tb;text-anchor:start;display:inline;overflow:visible;visibility:visible;fill:#f44800;fill-opacity:1;fill-rule:nonzero;stroke:none;stroke-width:2.20000005;marker:none;enable-background:accumulate"
       xml:space="preserve"><tspan
         y="949.87537"
         x="-569.81549"
         id="tspan9598"
         sodipodi:role="line">-x</tspan></text>
    <path
       sodipodi:nodetypes="cc"
       id="path9600"
       d="m -552.49747,1042.6083 0,-89.14152"
       style="display:inline;overflow:visible;visibility:visible;fill:none;stroke:#121513;stroke-width:1.8721379;stroke-linecap:butt;stroke-linejoin:miter;stroke-miterlimit:4;stroke-dasharray:1.87213766, 3.74427534;stroke-dashoffset:0;stroke-opacity:1;marker:none;enable-background:accumulate"
       inkscape:connector-curvature="0" />
    <text
       transform="scale(0.95086338,1.0516758)"
       sodipodi:linespacing="125%"
       id="text9604"
       y="996.21802"
       x="-645.46875"
       style="font-style:normal;font-variant:normal;font-weight:normal;font-stretch:normal;font-size:25.36166954px;line-height:125%;font-family:'Comic Sans MS';-inkscape-font-specification:'Comic Sans MS';text-indent:0;text-align:start;text-decoration:none;text-decoration-line:none;letter-spacing:normal;word-spacing:normal;text-transform:none;direction:ltr;block-progression:tb;writing-mode:lr-tb;text-anchor:start;display:inline;overflow:visible;visibility:visible;fill:#013397;fill-opacity:1;fill-rule:nonzero;stroke:none;stroke-width:2.20000005;marker:none;enable-background:accumulate"
       xml:space="preserve"><tspan
         y="996.21802"
         x="-645.46875"
         id="tspan9606"
         sodipodi:role="line">f(-x)</tspan></text>
    <circle
       id="path9610"
       style="display:inline;overflow:visible;visibility:visible;fill:#f0a513;fill-opacity:1;fill-rule:nonzero;stroke:#fdca01;stroke-width:2.4749999;stroke-linecap:butt;stroke-linejoin:miter;stroke-miterlimit:4;stroke-dasharray:none;stroke-dashoffset:0;stroke-opacity:1;marker:none;enable-background:accumulate"
       cx="-443.4212"
       cy="861.55341"
       r="2.9606395" />
    <circle
       id="path9612"
       style="display:inline;overflow:visible;visibility:visible;fill:#f0a513;fill-opacity:1;fill-rule:nonzero;stroke:#fdca01;stroke-width:2.4749999;stroke-linecap:butt;stroke-linejoin:miter;stroke-miterlimit:4;stroke-dasharray:none;stroke-dashoffset:0;stroke-opacity:1;marker:none;enable-background:accumulate"
       cx="-552.55707"
       cy="1042.6722"
       r="2.9606395" />
    <text
       transform="scale(0.95086338,1.0516758)"
       sodipodi:linespacing="125%"
       id="text9614"
       y="825.00635"
       x="-460.68066"
       style="font-style:normal;font-variant:normal;font-weight:normal;font-stretch:normal;font-size:25.36166954px;line-height:125%;font-family:'Comic Sans MS';-inkscape-font-specification:'Comic Sans MS';text-indent:0;text-align:start;text-decoration:none;text-decoration-line:none;letter-spacing:normal;word-spacing:normal;text-transform:none;direction:ltr;block-progression:tb;writing-mode:lr-tb;text-anchor:start;display:inline;overflow:visible;visibility:visible;fill:#013397;fill-opacity:1;fill-rule:nonzero;stroke:none;stroke-width:2.20000005;marker:none;enable-background:accumulate"
       xml:space="preserve"><tspan
         y="825.00635"
         x="-460.68066"
         id="tspan9616"
         sodipodi:role="line">f(x)</tspan></text>
    <path
       sodipodi:nodetypes="cc"
       id="path2659"
       d="m -443.15215,952.08166 0,-89.14147"
       style="display:inline;overflow:visible;visibility:visible;fill:none;stroke:#121513;stroke-width:1.8721379;stroke-linecap:butt;stroke-linejoin:miter;stroke-miterlimit:4;stroke-dasharray:1.87213766, 3.74427534;stroke-dashoffset:0;stroke-opacity:1;marker:none;enable-background:accumulate"
       inkscape:connector-curvature="0" />
    <g
       style="fill:#986601"
       transform="matrix(-0.55,0,0,0.40468868,-1358.8353,300.23555)"
       id="g3624">
      <path
         style="display:inline;overflow:visible;visibility:visible;fill:#986601;fill-opacity:1;fill-rule:nonzero;stroke:none;stroke-width:5;marker:none;enable-background:accumulate"
         id="path3626"
         d="m -1337.1183,1387.9403 c 0.3836,-0.047 0.7673,0 1.1497,0.033 0.4129,0.042 0.8189,0.1255 1.2271,0.1973 0.4613,0.1045 0.9142,0.2383 1.3649,0.3809 0.4607,0.1511 0.9039,0.347 1.35,0.5354 0.4474,0.2056 0.8811,0.4382 1.3093,0.6808 0.4198,0.2437 0.8283,0.5057 1.229,0.7795 0.4186,0.2902 0.8164,0.6079 1.2095,0.9312 0.4078,0.3374 0.7923,0.7008 1.1702,1.0709 0.4019,0.4002 0.7724,0.8296 1.1368,1.2636 0.3561,0.4269 0.6983,0.8651 1.0369,1.3059 0.3449,0.4503 0.6705,0.9144 0.9848,1.3862 0.322,0.4915 0.6154,1.0006 0.9031,1.5126 0.2663,0.4817 0.5273,0.9664 0.7857,1.4524 0.2738,0.5078 0.5142,1.0321 0.7483,1.559 0.2258,0.5223 0.4312,1.0531 0.6338,1.5847 0.2048,0.5502 0.3847,1.109 0.5475,1.6729 0.1626,0.5722 0.2974,1.1519 0.4251,1.7327 0.1168,0.5589 0.2243,1.1197 0.3154,1.6834 0.098,0.586 0.1659,1.1764 0.2124,1.7685 0.047,0.576 0.062,1.1538 0.076,1.7313 0.018,0.5589 0.015,1.1183 0.012,1.6774 0,0.5918 -0.035,1.1828 -0.065,1.7736 -0.037,0.6116 -0.099,1.2211 -0.168,1.8297 -0.075,0.6209 -0.1522,1.2418 -0.2415,1.8608 -0.1024,0.7007 -0.2106,1.4005 -0.3271,2.0989 -0.1232,0.75 -0.2582,1.4979 -0.393,2.2459 -0.1383,0.7702 -0.2747,1.5407 -0.4125,2.311 -0.1396,0.7976 -0.2805,1.595 -0.4183,2.3929 -0.1363,0.7709 -0.2823,1.54 -0.4155,2.3114 -0.1394,0.7618 -0.2774,1.5238 -0.4082,2.287 -0.1289,0.7684 -0.2587,1.5366 -0.3827,2.3058 -0.1253,0.7683 -0.2416,1.5381 -0.3529,2.3086 -0.1134,0.7747 -0.2169,1.5508 -0.3159,2.3274 -0.097,0.7622 -0.1895,1.5252 -0.2771,2.2886 -0.088,0.7413 -0.1704,1.4832 -0.2546,2.2249 -0.081,0.7423 -0.1469,1.4861 -0.2113,2.23 -0.067,0.7308 -0.1208,1.4628 -0.1648,2.1953 -0.049,0.73 -0.077,1.4611 -0.1011,2.1922 -0.021,0.7163 -0.045,1.4325 -0.058,2.149 -0.016,0.6999 -0.024,1.3999 -0.022,2.0999 0,0.6812 0.01,1.3623 0.018,2.0433 0.01,0.6593 0.024,1.3184 0.04,1.9776 0.018,0.6568 0.042,1.3135 0.085,1.9691 0.041,0.6414 0.097,1.2818 0.1611,1.9214 0.061,0.6098 0.1205,1.2196 0.184,1.8291 0.061,0.6104 0.1525,1.2171 0.2446,1.8234 0.092,0.602 0.2154,1.1985 0.3456,1.7932 0.1387,0.6044 0.2811,1.2081 0.4332,1.8093 0.1474,0.5986 0.3047,1.1948 0.4749,1.7873 0.1616,0.571 0.3438,1.1359 0.53,1.6992 0.176,0.5469 0.3651,1.0895 0.5611,1.6295 0.1891,0.5232 0.3847,1.044 0.5859,1.5627 0.1842,0.4889 0.3811,0.973 0.5878,1.4528 0.2026,0.4693 0.415,0.9343 0.6334,1.3964 0.2041,0.4434 0.4257,0.8785 0.6594,1.307 0.2369,0.4381 0.4885,0.8681 0.746,1.2943 0.2571,0.4288 0.5237,0.8517 0.7943,1.272 0.2538,0.3958 0.5186,0.7844 0.7899,1.1684 0.2659,0.378 0.5379,0.7516 0.8116,1.1239 0.2496,0.3406 0.5121,0.6713 0.7757,1.001 0.2462,0.3106 0.5112,0.6052 0.7766,0.8992 0.2609,0.2887 0.5378,0.562 0.8165,0.8334 0.2681,0.2589 0.5422,0.5114 0.8195,0.7603 0.2659,0.2402 0.5356,0.4759 0.8101,0.7062 0.2598,0.2152 0.5238,0.4251 0.791,0.631 0.2503,0.1933 0.5062,0.3793 0.7654,0.5604 0.244,0.1687 0.4954,0.3262 0.7508,0.477 0.2656,0.1546 0.536,0.3007 0.8067,0.4462 0.2528,0.1425 0.5173,0.2617 0.7784,0.388 0.2312,0.118 0.4734,0.2084 0.7167,0.2975 0.2533,0.075 0.5035,0.16 0.7543,0.243 0.2526,0.083 0.5039,0.1695 0.7573,0.2494 0.2205,0.077 0.4443,0.1391 0.6705,0.1954 0.2131,0.058 0.4273,0.1114 0.6415,0.1651 0.2008,0.052 0.4015,0.098 0.6068,0.1254 0.205,0.036 0.4094,0.075 0.6138,0.1142 0.195,0.035 0.3899,0.071 0.5851,0.1043 0.168,0.036 0.3384,0.036 0.5092,0.054 0.1761,0.022 0.3524,0.042 0.5286,0.063 0.1333,0.011 0.2692,0 0.4003,-0.022 0.1452,-0.043 0.3014,-0.064 0.4536,-0.086 0.1977,-0.016 0.3955,-0.031 0.5932,-0.047 0.1812,-0.014 0.3625,-0.029 0.5437,-0.043 0.1631,-0.013 0.3262,-0.026 0.4893,-0.039 0.1,-0.01 0.1991,-0.016 0.2986,-0.024 l -2.6955,6.3877 c -0.099,0.01 -0.1978,0.013 -0.2967,0.019 -0.162,0.011 -0.3241,0.021 -0.4862,0.032 -0.1801,0.012 -0.3603,0.024 -0.5404,0.035 -0.2003,0.013 -0.4007,0.026 -0.601,0.039 -0.25,0.01 -0.5024,0 -0.7498,-0.04 -0.2237,-0.025 -0.4445,-0.07 -0.6662,-0.1081 -0.1841,-0.026 -0.3681,-0.052 -0.5517,-0.081 -0.2134,-0.037 -0.4231,-0.086 -0.635,-0.1303 -0.2063,-0.041 -0.4124,-0.083 -0.6181,-0.1275 -0.2186,-0.046 -0.4373,-0.092 -0.654,-0.1459 -0.2436,-0.064 -0.4848,-0.1379 -0.7284,-0.2021 -0.2371,-0.067 -0.4734,-0.1373 -0.7083,-0.2122 -0.2539,-0.085 -0.505,-0.1784 -0.7592,-0.2625 -0.2565,-0.091 -0.5135,-0.1799 -0.7699,-0.2707 -0.3012,-0.1071 -0.6032,-0.2138 -0.895,-0.3449 -0.3075,-0.1349 -0.6089,-0.2826 -0.9076,-0.4361 -0.294,-0.1513 -0.5846,-0.3086 -0.8714,-0.4732 -0.3083,-0.1742 -0.6155,-0.3507 -0.9161,-0.5379 -0.3119,-0.1971 -0.6203,-0.3999 -0.9188,-0.6169 -0.2917,-0.213 -0.5804,-0.4301 -0.8625,-0.6556 -0.2954,-0.2356 -0.5875,-0.4753 -0.8751,-0.7204 -0.2965,-0.2557 -0.5902,-0.5147 -0.8785,-0.7797 -0.3052,-0.2805 -0.606,-0.5658 -0.9018,-0.8563 -0.3148,-0.3147 -0.6298,-0.6294 -0.9294,-0.9588 -0.309,-0.3388 -0.6126,-0.6824 -0.9003,-1.0397 -0.2915,-0.3626 -0.5787,-0.7288 -0.852,-1.1055 -0.2862,-0.3896 -0.5648,-0.7848 -0.8457,-1.1782 -0.2951,-0.4215 -0.589,-0.844 -0.8673,-1.2769 -0.2823,-0.4436 -0.5668,-0.8858 -0.8381,-1.3363 -0.2801,-0.4629 -0.5622,-0.9247 -0.8279,-1.396 -0.2641,-0.4804 -0.5338,-0.958 -0.7675,-1.4543 -0.2317,-0.4919 -0.4651,-0.983 -0.6842,-1.4808 -0.2256,-0.5187 -0.4525,-1.0369 -0.6574,-1.5643 -0.203,-0.5379 -0.4123,-1.0735 -0.6039,-1.6157 -0.2061,-0.5699 -0.4156,-1.1386 -0.6082,-1.7132 -0.1931,-0.5975 -0.3925,-1.1929 -0.5742,-1.794 -0.1813,-0.6221 -0.3651,-1.2435 -0.5254,-1.8715 -0.1593,-0.623 -0.3177,-1.246 -0.4689,-1.8711 -0.1542,-0.6451 -0.3029,-1.2917 -0.4286,-1.9431 -0.1212,-0.6473 -0.2247,-1.2977 -0.3199,-1.9494 -0.086,-0.6302 -0.1589,-1.2623 -0.2123,-1.8962 -0.062,-0.6656 -0.1266,-1.3308 -0.1828,-1.9969 -0.052,-0.6878 -0.1078,-1.3753 -0.133,-2.0648 -0.031,-0.6756 -0.051,-1.3518 -0.06,-2.0281 -0.01,-0.695 -0.025,-1.3899 -0.023,-2.0851 0,-0.72 -0.01,-1.4401 0,-2.1601 0.012,-0.7305 0.021,-1.4609 0.049,-2.1909 0.023,-0.7542 0.045,-1.5084 0.075,-2.2624 0.04,-0.7586 0.077,-1.5174 0.1351,-2.2751 0.063,-0.7577 0.1269,-1.5155 0.1928,-2.273 0.067,-0.7584 0.1544,-1.5149 0.2406,-2.2714 0.092,-0.7726 0.1831,-1.5454 0.2781,-2.3177 0.099,-0.789 0.1967,-1.578 0.3012,-2.3662 0.1072,-0.7852 0.2153,-1.5703 0.333,-2.3541 0.1195,-0.7777 0.2406,-1.5551 0.373,-2.3308 0.1256,-0.7757 0.2517,-1.5513 0.3924,-2.3244 0.1458,-0.7725 0.2717,-1.5486 0.4233,-2.3201 0.1515,-0.7872 0.2907,-1.5768 0.4267,-2.3668 0.1291,-0.7722 0.2667,-1.5429 0.394,-2.3154 0.1275,-0.737 0.263,-1.4727 0.389,-2.21 0.1103,-0.6716 0.223,-1.3429 0.3142,-2.0175 0.083,-0.599 0.1693,-1.1972 0.2439,-1.7973 0.073,-0.5683 0.1543,-1.1354 0.2123,-1.7054 0.058,-0.537 0.09,-1.0763 0.1162,-1.6157 0.021,-0.5252 0.028,-1.0507 0.035,-1.5764 0,-0.5367 0,-1.0734 -0.011,-1.6101 -0.02,-0.5118 -0.037,-1.024 -0.099,-1.5329 -0.068,-0.5195 -0.1365,-1.0389 -0.2356,-1.5537 -0.09,-0.5193 -0.1946,-1.0358 -0.3169,-1.5486 -0.1256,-0.4935 -0.2556,-0.9859 -0.4241,-1.4669 -0.1629,-0.4866 -0.3489,-0.9649 -0.5362,-1.4425 -0.1859,-0.4613 -0.3852,-0.9176 -0.6086,-1.3619 -0.2409,-0.4702 -0.4911,-0.9353 -0.7376,-1.4025 -0.2423,-0.4487 -0.4888,-0.8954 -0.7612,-1.3267 -0.2696,-0.4176 -0.5514,-0.8267 -0.8508,-1.2236 -0.3041,-0.4042 -0.6138,-0.8044 -0.9353,-1.195 -0.301,-0.3563 -0.6038,-0.7123 -0.9408,-1.0357 -0.314,-0.3041 -0.6356,-0.6011 -0.977,-0.8745 -0.3223,-0.2579 -0.652,-0.5073 -0.999,-0.7315 -0.335,-0.2154 -0.6734,-0.426 -1.026,-0.6117 -0.3362,-0.1763 -0.6784,-0.3431 -1.0348,-0.4749 -0.3436,-0.136 -0.6944,-0.2554 -1.0555,-0.3362 -0.3331,-0.078 -0.6716,-0.1436 -1.0142,-0.157 -0.2955,-0.028 -0.5952,-0.03 -0.8904,0 -0.2392,0.018 -0.4698,0.085 -0.705,0.1292 l 2.4539,-6.3737 z"
         inkscape:connector-curvature="0" />
      <path
         d="m -1337.1183,1606.7426 c 0.3836,0.047 0.7673,0 1.1497,-0.033 0.4129,-0.042 0.8189,-0.1255 1.2271,-0.1973 0.4613,-0.1045 0.9142,-0.2383 1.3649,-0.3809 0.4607,-0.1511 0.9039,-0.347 1.35,-0.5354 0.4474,-0.2056 0.8811,-0.4382 1.3093,-0.6808 0.4198,-0.2437 0.8283,-0.5057 1.229,-0.7795 0.4186,-0.2902 0.8164,-0.6079 1.2095,-0.9312 0.4078,-0.3374 0.7923,-0.7008 1.1702,-1.0709 0.4019,-0.4002 0.7724,-0.8296 1.1368,-1.2636 0.3561,-0.4269 0.6983,-0.8651 1.0369,-1.3059 0.3449,-0.4503 0.6705,-0.9144 0.9848,-1.3862 0.322,-0.4915 0.6154,-1.0006 0.9031,-1.5126 0.2663,-0.4817 0.5273,-0.9664 0.7857,-1.4524 0.2738,-0.5078 0.5142,-1.0321 0.7483,-1.559 0.2258,-0.5223 0.4312,-1.0531 0.6338,-1.5847 0.2048,-0.5502 0.3847,-1.109 0.5475,-1.6729 0.1626,-0.5722 0.2974,-1.1519 0.4251,-1.7327 0.1168,-0.5589 0.2243,-1.1197 0.3154,-1.6834 0.098,-0.586 0.1659,-1.1764 0.2124,-1.7685 0.047,-0.576 0.062,-1.1538 0.076,-1.7313 0.018,-0.5589 0.015,-1.1183 0.012,-1.6774 0,-0.5918 -0.035,-1.1828 -0.065,-1.7736 -0.037,-0.6116 -0.099,-1.2211 -0.168,-1.8297 -0.075,-0.6209 -0.1522,-1.2418 -0.2415,-1.8608 -0.1024,-0.7007 -0.2106,-1.4005 -0.3271,-2.0989 -0.1232,-0.75 -0.2582,-1.4979 -0.393,-2.2459 -0.1383,-0.7702 -0.2747,-1.5407 -0.4125,-2.311 -0.1396,-0.7976 -0.2805,-1.595 -0.4183,-2.3929 -0.1363,-0.7709 -0.2823,-1.54 -0.4155,-2.3114 -0.1394,-0.7618 -0.2774,-1.5238 -0.4082,-2.287 -0.1289,-0.7684 -0.2587,-1.5366 -0.3827,-2.3058 -0.1253,-0.7683 -0.2416,-1.5381 -0.3529,-2.3086 -0.1134,-0.7747 -0.2169,-1.5508 -0.3159,-2.3274 -0.097,-0.7622 -0.1895,-1.5252 -0.2771,-2.2886 -0.088,-0.7413 -0.1704,-1.4832 -0.2546,-2.2249 -0.081,-0.7423 -0.1469,-1.4861 -0.2113,-2.23 -0.067,-0.7308 -0.1208,-1.4628 -0.1648,-2.1953 -0.049,-0.73 -0.077,-1.4611 -0.1011,-2.1922 -0.021,-0.7163 -0.045,-1.4325 -0.058,-2.149 -0.016,-0.6999 -0.024,-1.3999 -0.022,-2.0999 0,-0.6812 0.01,-1.3623 0.018,-2.0433 0.01,-0.6593 0.024,-1.3184 0.04,-1.9776 0.018,-0.6568 0.042,-1.3135 0.085,-1.9691 0.041,-0.6414 0.097,-1.2818 0.1611,-1.9214 0.061,-0.6098 0.1205,-1.2196 0.184,-1.8291 0.061,-0.6104 0.1525,-1.2171 0.2446,-1.8234 0.092,-0.602 0.2154,-1.1985 0.3456,-1.7932 0.1387,-0.6044 0.2811,-1.2081 0.4332,-1.8093 0.1474,-0.5986 0.3047,-1.1948 0.4749,-1.7873 0.1616,-0.571 0.3438,-1.1359 0.53,-1.6992 0.176,-0.5469 0.3651,-1.0895 0.5611,-1.6295 0.1891,-0.5232 0.3847,-1.044 0.5859,-1.5627 0.1842,-0.4889 0.3811,-0.973 0.5878,-1.4528 0.2026,-0.4693 0.415,-0.9343 0.6334,-1.3964 0.2041,-0.4434 0.4257,-0.8785 0.6594,-1.307 0.2369,-0.4381 0.4885,-0.8681 0.746,-1.2943 0.2571,-0.4288 0.5237,-0.8517 0.7943,-1.272 0.2538,-0.3958 0.5186,-0.7844 0.7899,-1.1684 0.2659,-0.378 0.5379,-0.7516 0.8116,-1.1239 0.2496,-0.3406 0.5121,-0.6713 0.7757,-1.001 0.2462,-0.3106 0.5112,-0.6052 0.7766,-0.8992 0.2609,-0.2887 0.5378,-0.562 0.8165,-0.8334 0.2681,-0.2589 0.5422,-0.5114 0.8195,-0.7603 0.2659,-0.2402 0.5356,-0.4759 0.8101,-0.7062 0.2598,-0.2152 0.5238,-0.4251 0.791,-0.631 0.2503,-0.1933 0.5062,-0.3793 0.7654,-0.5604 0.244,-0.1687 0.4954,-0.3262 0.7508,-0.477 0.2656,-0.1546 0.536,-0.3007 0.8067,-0.4462 0.2528,-0.1425 0.5173,-0.2617 0.7784,-0.388 0.2312,-0.118 0.4734,-0.2084 0.7167,-0.2975 0.2533,-0.075 0.5035,-0.16 0.7543,-0.243 0.2526,-0.083 0.5039,-0.1695 0.7573,-0.2494 0.2205,-0.077 0.4443,-0.1391 0.6705,-0.1954 0.2131,-0.058 0.4273,-0.1114 0.6415,-0.1651 0.2008,-0.052 0.4015,-0.097 0.6068,-0.1254 0.205,-0.036 0.4094,-0.075 0.6138,-0.1142 0.195,-0.035 0.3899,-0.071 0.5851,-0.1043 0.168,-0.036 0.3384,-0.037 0.5092,-0.054 0.1761,-0.022 0.3524,-0.042 0.5286,-0.063 0.1333,-0.011 0.2692,0 0.4003,0.022 0.1452,0.043 0.3014,0.064 0.4536,0.086 0.1977,0.016 0.3955,0.031 0.5932,0.047 0.1812,0.014 0.3625,0.029 0.5437,0.043 0.1631,0.013 0.3262,0.026 0.4893,0.039 0.1,0.01 0.1991,0.016 0.2986,0.024 l -2.6955,-6.3877 c -0.099,-0.01 -0.1978,-0.013 -0.2967,-0.019 -0.162,-0.011 -0.3241,-0.021 -0.4862,-0.032 -0.1801,-0.012 -0.3603,-0.024 -0.5404,-0.035 -0.2003,-0.013 -0.4007,-0.026 -0.601,-0.039 -0.25,-0.01 -0.5024,0 -0.7498,0.04 -0.2237,0.025 -0.4445,0.07 -0.6662,0.1081 -0.1841,0.026 -0.3681,0.052 -0.5517,0.081 -0.2134,0.037 -0.4231,0.086 -0.635,0.1303 -0.2063,0.041 -0.4124,0.083 -0.6181,0.1275 -0.2186,0.046 -0.4373,0.092 -0.654,0.1459 -0.2436,0.064 -0.4848,0.1379 -0.7284,0.2021 -0.2371,0.067 -0.4734,0.1373 -0.7083,0.2122 -0.2539,0.085 -0.505,0.1784 -0.7592,0.2625 -0.2565,0.091 -0.5135,0.1799 -0.7699,0.2707 -0.3012,0.1071 -0.6032,0.2138 -0.895,0.3449 -0.3075,0.1349 -0.6089,0.2826 -0.9076,0.4361 -0.294,0.1513 -0.5846,0.3086 -0.8714,0.4732 -0.3083,0.1742 -0.6155,0.3507 -0.9161,0.5379 -0.3119,0.1971 -0.6203,0.3999 -0.9188,0.6169 -0.2917,0.213 -0.5804,0.4301 -0.8625,0.6556 -0.2954,0.2356 -0.5875,0.4753 -0.8751,0.7204 -0.2965,0.2557 -0.5902,0.5147 -0.8785,0.7797 -0.3052,0.2805 -0.606,0.5658 -0.9018,0.8563 -0.3148,0.3147 -0.6298,0.6294 -0.9294,0.9588 -0.309,0.3388 -0.6126,0.6824 -0.9003,1.0397 -0.2915,0.3626 -0.5787,0.7288 -0.852,1.1055 -0.2862,0.3896 -0.5648,0.7848 -0.8457,1.1782 -0.2951,0.4215 -0.589,0.844 -0.8673,1.2769 -0.2823,0.4436 -0.5668,0.8858 -0.8381,1.3363 -0.2801,0.4629 -0.5622,0.9247 -0.8279,1.396 -0.2641,0.4804 -0.5338,0.958 -0.7675,1.4543 -0.2317,0.4919 -0.4651,0.983 -0.6842,1.4808 -0.2256,0.5187 -0.4525,1.0369 -0.6574,1.5643 -0.203,0.5379 -0.4123,1.0735 -0.6039,1.6157 -0.2061,0.5699 -0.4156,1.1386 -0.6082,1.7132 -0.1931,0.5975 -0.3925,1.1929 -0.5742,1.794 -0.1813,0.6221 -0.3651,1.2435 -0.5254,1.8715 -0.1593,0.623 -0.3177,1.246 -0.4689,1.8711 -0.1542,0.6451 -0.3029,1.2917 -0.4286,1.9431 -0.1212,0.6473 -0.2247,1.2977 -0.3199,1.9494 -0.086,0.6302 -0.1589,1.2623 -0.2123,1.8962 -0.062,0.6656 -0.1266,1.3308 -0.1828,1.9969 -0.052,0.6878 -0.1078,1.3753 -0.133,2.0648 -0.031,0.6756 -0.051,1.3518 -0.06,2.0281 -0.01,0.695 -0.025,1.3899 -0.023,2.0851 0,0.72 -0.01,1.4401 0,2.1601 0.012,0.7305 0.021,1.4609 0.049,2.1909 0.023,0.7542 0.045,1.5084 0.075,2.2624 0.04,0.7586 0.077,1.5174 0.1351,2.2751 0.063,0.7577 0.1269,1.5155 0.1928,2.273 0.067,0.7584 0.1544,1.5149 0.2406,2.2714 0.092,0.7726 0.1831,1.5454 0.2781,2.3177 0.099,0.789 0.1967,1.578 0.3012,2.3662 0.1072,0.7852 0.2153,1.5703 0.333,2.3541 0.1195,0.7777 0.2406,1.5551 0.373,2.3308 0.1256,0.7757 0.2517,1.5513 0.3924,2.3244 0.1458,0.7725 0.2717,1.5486 0.4233,2.3201 0.1515,0.7872 0.2907,1.5768 0.4267,2.3668 0.1291,0.7722 0.2667,1.5429 0.394,2.3154 0.1275,0.737 0.263,1.4727 0.389,2.21 0.1103,0.6716 0.223,1.3429 0.3142,2.0175 0.083,0.599 0.1693,1.1972 0.2439,1.7973 0.073,0.5683 0.1543,1.1354 0.2123,1.7054 0.058,0.537 0.09,1.0763 0.1162,1.6157 0.021,0.5252 0.028,1.0507 0.035,1.5764 0,0.5367 0,1.0734 -0.011,1.6101 -0.02,0.5118 -0.037,1.024 -0.099,1.5329 -0.068,0.5195 -0.1365,1.0389 -0.2356,1.5537 -0.09,0.5193 -0.1946,1.0358 -0.3169,1.5486 -0.1256,0.4935 -0.2556,0.9859 -0.4241,1.4669 -0.1629,0.4866 -0.3489,0.9649 -0.5362,1.4425 -0.1859,0.4613 -0.3852,0.9176 -0.6086,1.3619 -0.2409,0.4702 -0.4911,0.9353 -0.7376,1.4025 -0.2423,0.4487 -0.4888,0.8954 -0.7612,1.3267 -0.2696,0.4176 -0.5514,0.8267 -0.8508,1.2236 -0.3041,0.4042 -0.6138,0.8044 -0.9353,1.195 -0.301,0.3563 -0.6038,0.7123 -0.9408,1.0357 -0.314,0.3041 -0.6356,0.6011 -0.977,0.8745 -0.3223,0.2579 -0.652,0.5073 -0.999,0.7315 -0.335,0.2154 -0.6734,0.426 -1.026,0.6117 -0.3362,0.1763 -0.6784,0.3431 -1.0348,0.4749 -0.3436,0.136 -0.6944,0.2554 -1.0555,0.3362 -0.3331,0.078 -0.6716,0.1436 -1.0142,0.157 -0.2955,0.028 -0.5952,0.03 -0.8904,0 -0.2392,-0.018 -0.4698,-0.085 -0.705,-0.1292 l 2.4539,6.3737 z"
         id="path3628"
         style="display:inline;overflow:visible;visibility:visible;fill:#986601;fill-opacity:1;fill-rule:nonzero;stroke:none;stroke-width:5;marker:none;enable-background:accumulate"
         inkscape:connector-curvature="0" />
    </g>
    <text
       transform="matrix(0,-1,1,0,0,0)"
       sodipodi:linespacing="125%"
       id="text3636"
       y="-652.25525"
       x="-976.15942"
       style="font-style:normal;font-variant:normal;font-weight:normal;font-stretch:normal;font-size:22px;line-height:125%;font-family:'Comic Sans MS';-inkscape-font-specification:'Comic Sans MS';text-indent:0;text-align:start;text-decoration:none;text-decoration-line:none;letter-spacing:normal;word-spacing:normal;text-transform:none;direction:ltr;block-progression:tb;writing-mode:lr-tb;text-anchor:start;display:inline;overflow:visible;visibility:visible;fill:#986601;fill-opacity:1;fill-rule:nonzero;stroke:none;stroke-width:5;marker:none;enable-background:accumulate"
       xml:space="preserve"><tspan
         y="-652.25525"
         x="-976.15942"
         id="tspan3638"
         sodipodi:role="line">等距</tspan></text>
    <g
       style="fill:#986601"
       transform="matrix(-0.55,0,0,0.40468868,-1358.8353,393.8506)"
       id="g3640">
      <path
         style="display:inline;overflow:visible;visibility:visible;fill:#986601;fill-opacity:1;fill-rule:nonzero;stroke:none;stroke-width:5;marker:none;enable-background:accumulate"
         id="path3642"
         d="m -1337.1183,1387.9403 c 0.3836,-0.047 0.7673,0 1.1497,0.033 0.4129,0.042 0.8189,0.1255 1.2271,0.1973 0.4613,0.1045 0.9142,0.2383 1.3649,0.3809 0.4607,0.1511 0.9039,0.347 1.35,0.5354 0.4474,0.2056 0.8811,0.4382 1.3093,0.6808 0.4198,0.2437 0.8283,0.5057 1.229,0.7795 0.4186,0.2902 0.8164,0.6079 1.2095,0.9312 0.4078,0.3374 0.7923,0.7008 1.1702,1.0709 0.4019,0.4002 0.7724,0.8296 1.1368,1.2636 0.3561,0.4269 0.6983,0.8651 1.0369,1.3059 0.3449,0.4503 0.6705,0.9144 0.9848,1.3862 0.322,0.4915 0.6154,1.0006 0.9031,1.5126 0.2663,0.4817 0.5273,0.9664 0.7857,1.4524 0.2738,0.5078 0.5142,1.0321 0.7483,1.559 0.2258,0.5223 0.4312,1.0531 0.6338,1.5847 0.2048,0.5502 0.3847,1.109 0.5475,1.6729 0.1626,0.5722 0.2974,1.1519 0.4251,1.7327 0.1168,0.5589 0.2243,1.1197 0.3154,1.6834 0.098,0.586 0.1659,1.1764 0.2124,1.7685 0.047,0.576 0.062,1.1538 0.076,1.7313 0.018,0.5589 0.015,1.1183 0.012,1.6774 0,0.5918 -0.035,1.1828 -0.065,1.7736 -0.037,0.6116 -0.099,1.2211 -0.168,1.8297 -0.075,0.6209 -0.1522,1.2418 -0.2415,1.8608 -0.1024,0.7007 -0.2106,1.4005 -0.3271,2.0989 -0.1232,0.75 -0.2582,1.4979 -0.393,2.2459 -0.1383,0.7702 -0.2747,1.5407 -0.4125,2.311 -0.1396,0.7976 -0.2805,1.595 -0.4183,2.3929 -0.1363,0.7709 -0.2823,1.54 -0.4155,2.3114 -0.1394,0.7618 -0.2774,1.5238 -0.4082,2.287 -0.1289,0.7684 -0.2587,1.5366 -0.3827,2.3058 -0.1253,0.7683 -0.2416,1.5381 -0.3529,2.3086 -0.1134,0.7747 -0.2169,1.5508 -0.3159,2.3274 -0.097,0.7622 -0.1895,1.5252 -0.2771,2.2886 -0.088,0.7413 -0.1704,1.4832 -0.2546,2.2249 -0.081,0.7423 -0.1469,1.4861 -0.2113,2.23 -0.067,0.7308 -0.1208,1.4628 -0.1648,2.1953 -0.049,0.73 -0.077,1.4611 -0.1011,2.1922 -0.021,0.7163 -0.045,1.4325 -0.058,2.149 -0.016,0.6999 -0.024,1.3999 -0.022,2.0999 0,0.6812 0.01,1.3623 0.018,2.0433 0.01,0.6593 0.024,1.3184 0.04,1.9776 0.018,0.6568 0.042,1.3135 0.085,1.9691 0.041,0.6414 0.097,1.2818 0.1611,1.9214 0.061,0.6098 0.1205,1.2196 0.184,1.8291 0.061,0.6104 0.1525,1.2171 0.2446,1.8234 0.092,0.602 0.2154,1.1985 0.3456,1.7932 0.1387,0.6044 0.2811,1.2081 0.4332,1.8093 0.1474,0.5986 0.3047,1.1948 0.4749,1.7873 0.1616,0.571 0.3438,1.1359 0.53,1.6992 0.176,0.5469 0.3651,1.0895 0.5611,1.6295 0.1891,0.5232 0.3847,1.044 0.5859,1.5627 0.1842,0.4889 0.3811,0.973 0.5878,1.4528 0.2026,0.4693 0.415,0.9343 0.6334,1.3964 0.2041,0.4434 0.4257,0.8785 0.6594,1.307 0.2369,0.4381 0.4885,0.8681 0.746,1.2943 0.2571,0.4288 0.5237,0.8517 0.7943,1.272 0.2538,0.3958 0.5186,0.7844 0.7899,1.1684 0.2659,0.378 0.5379,0.7516 0.8116,1.1239 0.2496,0.3406 0.5121,0.6713 0.7757,1.001 0.2462,0.3106 0.5112,0.6052 0.7766,0.8992 0.2609,0.2887 0.5378,0.562 0.8165,0.8334 0.2681,0.2589 0.5422,0.5114 0.8195,0.7603 0.2659,0.2402 0.5356,0.4759 0.8101,0.7062 0.2598,0.2152 0.5238,0.4251 0.791,0.631 0.2503,0.1933 0.5062,0.3793 0.7654,0.5604 0.244,0.1687 0.4954,0.3262 0.7508,0.477 0.2656,0.1546 0.536,0.3007 0.8067,0.4462 0.2528,0.1425 0.5173,0.2617 0.7784,0.388 0.2312,0.118 0.4734,0.2084 0.7167,0.2975 0.2533,0.075 0.5035,0.16 0.7543,0.243 0.2526,0.083 0.5039,0.1695 0.7573,0.2494 0.2205,0.077 0.4443,0.1391 0.6705,0.1954 0.2131,0.058 0.4273,0.1114 0.6415,0.1651 0.2008,0.052 0.4015,0.098 0.6068,0.1254 0.205,0.036 0.4094,0.075 0.6138,0.1142 0.195,0.035 0.3899,0.071 0.5851,0.1043 0.168,0.036 0.3384,0.036 0.5092,0.054 0.1761,0.022 0.3524,0.042 0.5286,0.063 0.1333,0.011 0.2692,0 0.4003,-0.022 0.1452,-0.043 0.3014,-0.064 0.4536,-0.086 0.1977,-0.016 0.3955,-0.031 0.5932,-0.047 0.1812,-0.014 0.3625,-0.029 0.5437,-0.043 0.1631,-0.013 0.3262,-0.026 0.4893,-0.039 0.1,-0.01 0.1991,-0.016 0.2986,-0.024 l -2.6955,6.3877 c -0.099,0.01 -0.1978,0.013 -0.2967,0.019 -0.162,0.011 -0.3241,0.021 -0.4862,0.032 -0.1801,0.012 -0.3603,0.024 -0.5404,0.035 -0.2003,0.013 -0.4007,0.026 -0.601,0.039 -0.25,0.01 -0.5024,0 -0.7498,-0.04 -0.2237,-0.025 -0.4445,-0.07 -0.6662,-0.1081 -0.1841,-0.026 -0.3681,-0.052 -0.5517,-0.081 -0.2134,-0.037 -0.4231,-0.086 -0.635,-0.1303 -0.2063,-0.041 -0.4124,-0.083 -0.6181,-0.1275 -0.2186,-0.046 -0.4373,-0.092 -0.654,-0.1459 -0.2436,-0.064 -0.4848,-0.1379 -0.7284,-0.2021 -0.2371,-0.067 -0.4734,-0.1373 -0.7083,-0.2122 -0.2539,-0.085 -0.505,-0.1784 -0.7592,-0.2625 -0.2565,-0.091 -0.5135,-0.1799 -0.7699,-0.2707 -0.3012,-0.1071 -0.6032,-0.2138 -0.895,-0.3449 -0.3075,-0.1349 -0.6089,-0.2826 -0.9076,-0.4361 -0.294,-0.1513 -0.5846,-0.3086 -0.8714,-0.4732 -0.3083,-0.1742 -0.6155,-0.3507 -0.9161,-0.5379 -0.3119,-0.1971 -0.6203,-0.3999 -0.9188,-0.6169 -0.2917,-0.213 -0.5804,-0.4301 -0.8625,-0.6556 -0.2954,-0.2356 -0.5875,-0.4753 -0.8751,-0.7204 -0.2965,-0.2557 -0.5902,-0.5147 -0.8785,-0.7797 -0.3052,-0.2805 -0.606,-0.5658 -0.9018,-0.8563 -0.3148,-0.3147 -0.6298,-0.6294 -0.9294,-0.9588 -0.309,-0.3388 -0.6126,-0.6824 -0.9003,-1.0397 -0.2915,-0.3626 -0.5787,-0.7288 -0.852,-1.1055 -0.2862,-0.3896 -0.5648,-0.7848 -0.8457,-1.1782 -0.2951,-0.4215 -0.589,-0.844 -0.8673,-1.2769 -0.2823,-0.4436 -0.5668,-0.8858 -0.8381,-1.3363 -0.2801,-0.4629 -0.5622,-0.9247 -0.8279,-1.396 -0.2641,-0.4804 -0.5338,-0.958 -0.7675,-1.4543 -0.2317,-0.4919 -0.4651,-0.983 -0.6842,-1.4808 -0.2256,-0.5187 -0.4525,-1.0369 -0.6574,-1.5643 -0.203,-0.5379 -0.4123,-1.0735 -0.6039,-1.6157 -0.2061,-0.5699 -0.4156,-1.1386 -0.6082,-1.7132 -0.1931,-0.5975 -0.3925,-1.1929 -0.5742,-1.794 -0.1813,-0.6221 -0.3651,-1.2435 -0.5254,-1.8715 -0.1593,-0.623 -0.3177,-1.246 -0.4689,-1.8711 -0.1542,-0.6451 -0.3029,-1.2917 -0.4286,-1.9431 -0.1212,-0.6473 -0.2247,-1.2977 -0.3199,-1.9494 -0.086,-0.6302 -0.1589,-1.2623 -0.2123,-1.8962 -0.062,-0.6656 -0.1266,-1.3308 -0.1828,-1.9969 -0.052,-0.6878 -0.1078,-1.3753 -0.133,-2.0648 -0.031,-0.6756 -0.051,-1.3518 -0.06,-2.0281 -0.01,-0.695 -0.025,-1.3899 -0.023,-2.0851 0,-0.72 -0.01,-1.4401 0,-2.1601 0.012,-0.7305 0.021,-1.4609 0.049,-2.1909 0.023,-0.7542 0.045,-1.5084 0.075,-2.2624 0.04,-0.7586 0.077,-1.5174 0.1351,-2.2751 0.063,-0.7577 0.1269,-1.5155 0.1928,-2.273 0.067,-0.7584 0.1544,-1.5149 0.2406,-2.2714 0.092,-0.7726 0.1831,-1.5454 0.2781,-2.3177 0.099,-0.789 0.1967,-1.578 0.3012,-2.3662 0.1072,-0.7852 0.2153,-1.5703 0.333,-2.3541 0.1195,-0.7777 0.2406,-1.5551 0.373,-2.3308 0.1256,-0.7757 0.2517,-1.5513 0.3924,-2.3244 0.1458,-0.7725 0.2717,-1.5486 0.4233,-2.3201 0.1515,-0.7872 0.2907,-1.5768 0.4267,-2.3668 0.1291,-0.7722 0.2667,-1.5429 0.394,-2.3154 0.1275,-0.737 0.263,-1.4727 0.389,-2.21 0.1103,-0.6716 0.223,-1.3429 0.3142,-2.0175 0.083,-0.599 0.1693,-1.1972 0.2439,-1.7973 0.073,-0.5683 0.1543,-1.1354 0.2123,-1.7054 0.058,-0.537 0.09,-1.0763 0.1162,-1.6157 0.021,-0.5252 0.028,-1.0507 0.035,-1.5764 0,-0.5367 0,-1.0734 -0.011,-1.6101 -0.02,-0.5118 -0.037,-1.024 -0.099,-1.5329 -0.068,-0.5195 -0.1365,-1.0389 -0.2356,-1.5537 -0.09,-0.5193 -0.1946,-1.0358 -0.3169,-1.5486 -0.1256,-0.4935 -0.2556,-0.9859 -0.4241,-1.4669 -0.1629,-0.4866 -0.3489,-0.9649 -0.5362,-1.4425 -0.1859,-0.4613 -0.3852,-0.9176 -0.6086,-1.3619 -0.2409,-0.4702 -0.4911,-0.9353 -0.7376,-1.4025 -0.2423,-0.4487 -0.4888,-0.8954 -0.7612,-1.3267 -0.2696,-0.4176 -0.5514,-0.8267 -0.8508,-1.2236 -0.3041,-0.4042 -0.6138,-0.8044 -0.9353,-1.195 -0.301,-0.3563 -0.6038,-0.7123 -0.9408,-1.0357 -0.314,-0.3041 -0.6356,-0.6011 -0.977,-0.8745 -0.3223,-0.2579 -0.652,-0.5073 -0.999,-0.7315 -0.335,-0.2154 -0.6734,-0.426 -1.026,-0.6117 -0.3362,-0.1763 -0.6784,-0.3431 -1.0348,-0.4749 -0.3436,-0.136 -0.6944,-0.2554 -1.0555,-0.3362 -0.3331,-0.078 -0.6716,-0.1436 -1.0142,-0.157 -0.2955,-0.028 -0.5952,-0.03 -0.8904,0 -0.2392,0.018 -0.4698,0.085 -0.705,0.1292 l 2.4539,-6.3737 z"
         inkscape:connector-curvature="0" />
      <path
         d="m -1337.1183,1606.7426 c 0.3836,0.047 0.7673,0 1.1497,-0.033 0.4129,-0.042 0.8189,-0.1255 1.2271,-0.1973 0.4613,-0.1045 0.9142,-0.2383 1.3649,-0.3809 0.4607,-0.1511 0.9039,-0.347 1.35,-0.5354 0.4474,-0.2056 0.8811,-0.4382 1.3093,-0.6808 0.4198,-0.2437 0.8283,-0.5057 1.229,-0.7795 0.4186,-0.2902 0.8164,-0.6079 1.2095,-0.9312 0.4078,-0.3374 0.7923,-0.7008 1.1702,-1.0709 0.4019,-0.4002 0.7724,-0.8296 1.1368,-1.2636 0.3561,-0.4269 0.6983,-0.8651 1.0369,-1.3059 0.3449,-0.4503 0.6705,-0.9144 0.9848,-1.3862 0.322,-0.4915 0.6154,-1.0006 0.9031,-1.5126 0.2663,-0.4817 0.5273,-0.9664 0.7857,-1.4524 0.2738,-0.5078 0.5142,-1.0321 0.7483,-1.559 0.2258,-0.5223 0.4312,-1.0531 0.6338,-1.5847 0.2048,-0.5502 0.3847,-1.109 0.5475,-1.6729 0.1626,-0.5722 0.2974,-1.1519 0.4251,-1.7327 0.1168,-0.5589 0.2243,-1.1197 0.3154,-1.6834 0.098,-0.586 0.1659,-1.1764 0.2124,-1.7685 0.047,-0.576 0.062,-1.1538 0.076,-1.7313 0.018,-0.5589 0.015,-1.1183 0.012,-1.6774 0,-0.5918 -0.035,-1.1828 -0.065,-1.7736 -0.037,-0.6116 -0.099,-1.2211 -0.168,-1.8297 -0.075,-0.6209 -0.1522,-1.2418 -0.2415,-1.8608 -0.1024,-0.7007 -0.2106,-1.4005 -0.3271,-2.0989 -0.1232,-0.75 -0.2582,-1.4979 -0.393,-2.2459 -0.1383,-0.7702 -0.2747,-1.5407 -0.4125,-2.311 -0.1396,-0.7976 -0.2805,-1.595 -0.4183,-2.3929 -0.1363,-0.7709 -0.2823,-1.54 -0.4155,-2.3114 -0.1394,-0.7618 -0.2774,-1.5238 -0.4082,-2.287 -0.1289,-0.7684 -0.2587,-1.5366 -0.3827,-2.3058 -0.1253,-0.7683 -0.2416,-1.5381 -0.3529,-2.3086 -0.1134,-0.7747 -0.2169,-1.5508 -0.3159,-2.3274 -0.097,-0.7622 -0.1895,-1.5252 -0.2771,-2.2886 -0.088,-0.7413 -0.1704,-1.4832 -0.2546,-2.2249 -0.081,-0.7423 -0.1469,-1.4861 -0.2113,-2.23 -0.067,-0.7308 -0.1208,-1.4628 -0.1648,-2.1953 -0.049,-0.73 -0.077,-1.4611 -0.1011,-2.1922 -0.021,-0.7163 -0.045,-1.4325 -0.058,-2.149 -0.016,-0.6999 -0.024,-1.3999 -0.022,-2.0999 0,-0.6812 0.01,-1.3623 0.018,-2.0433 0.01,-0.6593 0.024,-1.3184 0.04,-1.9776 0.018,-0.6568 0.042,-1.3135 0.085,-1.9691 0.041,-0.6414 0.097,-1.2818 0.1611,-1.9214 0.061,-0.6098 0.1205,-1.2196 0.184,-1.8291 0.061,-0.6104 0.1525,-1.2171 0.2446,-1.8234 0.092,-0.602 0.2154,-1.1985 0.3456,-1.7932 0.1387,-0.6044 0.2811,-1.2081 0.4332,-1.8093 0.1474,-0.5986 0.3047,-1.1948 0.4749,-1.7873 0.1616,-0.571 0.3438,-1.1359 0.53,-1.6992 0.176,-0.5469 0.3651,-1.0895 0.5611,-1.6295 0.1891,-0.5232 0.3847,-1.044 0.5859,-1.5627 0.1842,-0.4889 0.3811,-0.973 0.5878,-1.4528 0.2026,-0.4693 0.415,-0.9343 0.6334,-1.3964 0.2041,-0.4434 0.4257,-0.8785 0.6594,-1.307 0.2369,-0.4381 0.4885,-0.8681 0.746,-1.2943 0.2571,-0.4288 0.5237,-0.8517 0.7943,-1.272 0.2538,-0.3958 0.5186,-0.7844 0.7899,-1.1684 0.2659,-0.378 0.5379,-0.7516 0.8116,-1.1239 0.2496,-0.3406 0.5121,-0.6713 0.7757,-1.001 0.2462,-0.3106 0.5112,-0.6052 0.7766,-0.8992 0.2609,-0.2887 0.5378,-0.562 0.8165,-0.8334 0.2681,-0.2589 0.5422,-0.5114 0.8195,-0.7603 0.2659,-0.2402 0.5356,-0.4759 0.8101,-0.7062 0.2598,-0.2152 0.5238,-0.4251 0.791,-0.631 0.2503,-0.1933 0.5062,-0.3793 0.7654,-0.5604 0.244,-0.1687 0.4954,-0.3262 0.7508,-0.477 0.2656,-0.1546 0.536,-0.3007 0.8067,-0.4462 0.2528,-0.1425 0.5173,-0.2617 0.7784,-0.388 0.2312,-0.118 0.4734,-0.2084 0.7167,-0.2975 0.2533,-0.075 0.5035,-0.16 0.7543,-0.243 0.2526,-0.083 0.5039,-0.1695 0.7573,-0.2494 0.2205,-0.077 0.4443,-0.1391 0.6705,-0.1954 0.2131,-0.058 0.4273,-0.1114 0.6415,-0.1651 0.2008,-0.052 0.4015,-0.097 0.6068,-0.1254 0.205,-0.036 0.4094,-0.075 0.6138,-0.1142 0.195,-0.035 0.3899,-0.071 0.5851,-0.1043 0.168,-0.036 0.3384,-0.037 0.5092,-0.054 0.1761,-0.022 0.3524,-0.042 0.5286,-0.063 0.1333,-0.011 0.2692,0 0.4003,0.022 0.1452,0.043 0.3014,0.064 0.4536,0.086 0.1977,0.016 0.3955,0.031 0.5932,0.047 0.1812,0.014 0.3625,0.029 0.5437,0.043 0.1631,0.013 0.3262,0.026 0.4893,0.039 0.1,0.01 0.1991,0.016 0.2986,0.024 l -2.6955,-6.3877 c -0.099,-0.01 -0.1978,-0.013 -0.2967,-0.019 -0.162,-0.011 -0.3241,-0.021 -0.4862,-0.032 -0.1801,-0.012 -0.3603,-0.024 -0.5404,-0.035 -0.2003,-0.013 -0.4007,-0.026 -0.601,-0.039 -0.25,-0.01 -0.5024,0 -0.7498,0.04 -0.2237,0.025 -0.4445,0.07 -0.6662,0.1081 -0.1841,0.026 -0.3681,0.052 -0.5517,0.081 -0.2134,0.037 -0.4231,0.086 -0.635,0.1303 -0.2063,0.041 -0.4124,0.083 -0.6181,0.1275 -0.2186,0.046 -0.4373,0.092 -0.654,0.1459 -0.2436,0.064 -0.4848,0.1379 -0.7284,0.2021 -0.2371,0.067 -0.4734,0.1373 -0.7083,0.2122 -0.2539,0.085 -0.505,0.1784 -0.7592,0.2625 -0.2565,0.091 -0.5135,0.1799 -0.7699,0.2707 -0.3012,0.1071 -0.6032,0.2138 -0.895,0.3449 -0.3075,0.1349 -0.6089,0.2826 -0.9076,0.4361 -0.294,0.1513 -0.5846,0.3086 -0.8714,0.4732 -0.3083,0.1742 -0.6155,0.3507 -0.9161,0.5379 -0.3119,0.1971 -0.6203,0.3999 -0.9188,0.6169 -0.2917,0.213 -0.5804,0.4301 -0.8625,0.6556 -0.2954,0.2356 -0.5875,0.4753 -0.8751,0.7204 -0.2965,0.2557 -0.5902,0.5147 -0.8785,0.7797 -0.3052,0.2805 -0.606,0.5658 -0.9018,0.8563 -0.3148,0.3147 -0.6298,0.6294 -0.9294,0.9588 -0.309,0.3388 -0.6126,0.6824 -0.9003,1.0397 -0.2915,0.3626 -0.5787,0.7288 -0.852,1.1055 -0.2862,0.3896 -0.5648,0.7848 -0.8457,1.1782 -0.2951,0.4215 -0.589,0.844 -0.8673,1.2769 -0.2823,0.4436 -0.5668,0.8858 -0.8381,1.3363 -0.2801,0.4629 -0.5622,0.9247 -0.8279,1.396 -0.2641,0.4804 -0.5338,0.958 -0.7675,1.4543 -0.2317,0.4919 -0.4651,0.983 -0.6842,1.4808 -0.2256,0.5187 -0.4525,1.0369 -0.6574,1.5643 -0.203,0.5379 -0.4123,1.0735 -0.6039,1.6157 -0.2061,0.5699 -0.4156,1.1386 -0.6082,1.7132 -0.1931,0.5975 -0.3925,1.1929 -0.5742,1.794 -0.1813,0.6221 -0.3651,1.2435 -0.5254,1.8715 -0.1593,0.623 -0.3177,1.246 -0.4689,1.8711 -0.1542,0.6451 -0.3029,1.2917 -0.4286,1.9431 -0.1212,0.6473 -0.2247,1.2977 -0.3199,1.9494 -0.086,0.6302 -0.1589,1.2623 -0.2123,1.8962 -0.062,0.6656 -0.1266,1.3308 -0.1828,1.9969 -0.052,0.6878 -0.1078,1.3753 -0.133,2.0648 -0.031,0.6756 -0.051,1.3518 -0.06,2.0281 -0.01,0.695 -0.025,1.3899 -0.023,2.0851 0,0.72 -0.01,1.4401 0,2.1601 0.012,0.7305 0.021,1.4609 0.049,2.1909 0.023,0.7542 0.045,1.5084 0.075,2.2624 0.04,0.7586 0.077,1.5174 0.1351,2.2751 0.063,0.7577 0.1269,1.5155 0.1928,2.273 0.067,0.7584 0.1544,1.5149 0.2406,2.2714 0.092,0.7726 0.1831,1.5454 0.2781,2.3177 0.099,0.789 0.1967,1.578 0.3012,2.3662 0.1072,0.7852 0.2153,1.5703 0.333,2.3541 0.1195,0.7777 0.2406,1.5551 0.373,2.3308 0.1256,0.7757 0.2517,1.5513 0.3924,2.3244 0.1458,0.7725 0.2717,1.5486 0.4233,2.3201 0.1515,0.7872 0.2907,1.5768 0.4267,2.3668 0.1291,0.7722 0.2667,1.5429 0.394,2.3154 0.1275,0.737 0.263,1.4727 0.389,2.21 0.1103,0.6716 0.223,1.3429 0.3142,2.0175 0.083,0.599 0.1693,1.1972 0.2439,1.7973 0.073,0.5683 0.1543,1.1354 0.2123,1.7054 0.058,0.537 0.09,1.0763 0.1162,1.6157 0.021,0.5252 0.028,1.0507 0.035,1.5764 0,0.5367 0,1.0734 -0.011,1.6101 -0.02,0.5118 -0.037,1.024 -0.099,1.5329 -0.068,0.5195 -0.1365,1.0389 -0.2356,1.5537 -0.09,0.5193 -0.1946,1.0358 -0.3169,1.5486 -0.1256,0.4935 -0.2556,0.9859 -0.4241,1.4669 -0.1629,0.4866 -0.3489,0.9649 -0.5362,1.4425 -0.1859,0.4613 -0.3852,0.9176 -0.6086,1.3619 -0.2409,0.4702 -0.4911,0.9353 -0.7376,1.4025 -0.2423,0.4487 -0.4888,0.8954 -0.7612,1.3267 -0.2696,0.4176 -0.5514,0.8267 -0.8508,1.2236 -0.3041,0.4042 -0.6138,0.8044 -0.9353,1.195 -0.301,0.3563 -0.6038,0.7123 -0.9408,1.0357 -0.314,0.3041 -0.6356,0.6011 -0.977,0.8745 -0.3223,0.2579 -0.652,0.5073 -0.999,0.7315 -0.335,0.2154 -0.6734,0.426 -1.026,0.6117 -0.3362,0.1763 -0.6784,0.3431 -1.0348,0.4749 -0.3436,0.136 -0.6944,0.2554 -1.0555,0.3362 -0.3331,0.078 -0.6716,0.1436 -1.0142,0.157 -0.2955,0.028 -0.5952,0.03 -0.8904,0 -0.2392,-0.018 -0.4698,-0.085 -0.705,-0.1292 l 2.4539,6.3737 z"
         id="path3644"
         style="display:inline;overflow:visible;visibility:visible;fill:#986601;fill-opacity:1;fill-rule:nonzero;stroke:none;stroke-width:5;marker:none;enable-background:accumulate"
         inkscape:connector-curvature="0" />
    </g>
  </g>
</svg>
