<?xml version="1.0" standalone="no"?>
<!DOCTYPE svg PUBLIC "-//W3C//DTD SVG 20010904//EN"
 "http://www.w3.org/TR/2001/REC-SVG-20010904/DTD/svg10.dtd">
<svg version="1.0" xmlns="http://www.w3.org/2000/svg"
 width="584.000000pt" height="584.000000pt" viewBox="0 0 584.000000 584.000000"
 preserveAspectRatio="xMidYMid meet">
<metadata>
Created by potrace 1.14, written by Peter Selinger 2001-2017
</metadata>
<g transform="translate(0.000000,584.000000) scale(0.100000,-0.100000)"
fill="#000000" stroke="none">
<path d="M1533 5263 c-1 -24 -1 -25 7 -8 11 26 12 35 2 35 -4 0 -8 -12 -9 -27z"/>
<path d="M1305 5225 c3 -44 2 -47 -11 -30 -8 10 -14 25 -14 33 0 11 -3 12 -14
3 -11 -9 -16 -9 -21 0 -6 8 -11 7 -17 -6 -9 -15 -12 -15 -35 7 -18 16 -27 19
-30 10 -3 -6 -9 -9 -15 -6 -7 4 -7 -2 -3 -17 15 -47 15 -53 0 -21 -13 27 -18
30 -29 20 -10 -9 -11 -20 -5 -37 14 -35 4 -37 -11 -1 -7 16 -16 27 -21 24 -5
-3 -12 2 -15 10 -3 9 -10 14 -14 11 -5 -3 -3 -20 5 -39 12 -27 12 -33 0 -33
-8 0 -11 7 -7 16 3 9 2 13 -3 9 -4 -4 -13 -1 -20 8 -10 14 -11 13 -12 -8 0
-12 -4 -33 -8 -46 -7 -21 -8 -21 -22 -5 -9 12 -12 13 -8 3 4 -8 -1 -6 -9 4 -9
11 -16 15 -16 8 0 -6 -9 -9 -20 -7 -11 2 -18 0 -15 -4 8 -15 -28 -23 -38 -9
-6 9 -7 8 -3 -4 3 -10 3 -25 -1 -34 -5 -13 -8 -12 -25 5 -19 21 -44 29 -33 12
3 -5 1 -12 -4 -15 -6 -4 -4 -17 4 -33 19 -36 9 -44 -15 -13 -19 24 -19 22 1
-29 22 -59 20 -68 -9 -52 -31 16 -37 13 -18 -8 10 -10 13 -22 8 -25 -12 -7
-44 28 -35 39 5 4 2 5 -5 1 -10 -6 -10 -13 4 -34 17 -27 17 -27 -3 -9 -38 33
-42 17 -5 -20 20 -20 28 -29 16 -20 -11 10 -26 17 -32 17 -7 0 -12 5 -12 10 0
6 -13 10 -30 10 -34 0 -42 -20 -7 -21 12 0 17 -3 10 -5 -7 -3 -9 -12 -6 -20 7
-18 -1 -18 -37 1 -17 9 -30 13 -30 9 0 -4 -7 -1 -15 6 -12 10 -15 10 -15 -3 0
-8 7 -17 15 -21 8 -3 15 -1 15 5 0 6 5 7 11 3 8 -5 8 -8 0 -13 -7 -5 6 -20 33
-40 51 -36 71 -60 36 -41 -21 11 -22 10 -16 -6 6 -18 5 -18 -9 0 -8 10 -12 23
-9 27 5 8 -26 13 -64 12 -7 -1 -11 1 -8 4 2 3 -7 16 -22 29 -17 15 -20 22 -9
18 9 -3 17 -11 17 -17 0 -6 3 -7 7 -4 3 4 15 0 25 -10 10 -9 21 -14 24 -11 3
4 -6 14 -21 25 -37 25 -72 56 -57 48 6 -3 12 -1 12 5 0 6 -10 10 -22 8 -14 -2
-22 2 -20 10 2 11 -10 16 -31 13 -4 0 -7 4 -7 10 0 7 -10 9 -25 7 -14 -3 -25
-2 -25 2 0 4 -7 11 -16 14 -19 7 -8 -14 19 -33 10 -7 16 -19 13 -27 -3 -8 0
-11 10 -7 8 3 21 0 29 -7 8 -7 15 -9 15 -4 0 4 6 -1 14 -11 8 -11 12 -23 9
-28 -7 -12 27 -47 46 -48 9 0 11 -3 4 -5 -6 -3 -38 15 -71 40 -40 31 -66 44
-77 40 -9 -4 -20 -3 -24 3 -3 5 -17 7 -30 3 -23 -5 -21 -7 25 -38 27 -17 43
-32 35 -32 -7 0 -1 -10 15 -22 47 -35 51 -41 24 -34 -14 4 -38 9 -54 11 -16 2
-31 7 -35 11 -3 4 6 4 22 2 15 -3 30 -1 33 3 3 5 -2 9 -11 9 -11 0 -15 5 -11
15 7 20 -32 41 -47 26 -8 -8 -5 -11 11 -11 12 0 22 -4 22 -10 0 -12 -2 -12
-33 -1 -18 7 -30 6 -43 -5 -18 -13 -18 -14 -1 -8 12 4 17 2 15 -7 -2 -9 4 -13
17 -11 16 2 17 1 5 -7 -8 -5 -18 -8 -22 -5 -10 7 -48 -14 -48 -26 0 -6 12 -10
28 -10 19 0 23 -3 13 -9 -11 -7 -11 -9 0 -14 8 -3 -4 -3 -26 0 -44 6 -40 -12
5 -20 22 -4 21 -4 -6 -6 -33 -1 -72 -31 -40 -31 9 0 16 -4 16 -9 0 -5 6 -11
12 -14 7 -2 0 -2 -17 1 -29 4 -29 3 -10 -12 19 -16 19 -16 -7 -10 -17 4 -28 2
-28 -4 0 -14 16 -23 54 -33 26 -6 23 -7 -23 -8 -47 -1 -52 -3 -40 -17 9 -12
22 -14 48 -8 20 4 50 6 67 5 17 -1 44 6 60 14 l29 16 -47 -5 c-53 -5 -66 11
-18 21 34 6 41 23 9 23 -13 0 -18 4 -13 12 5 8 0 9 -14 6 -12 -4 -22 -2 -22 3
0 12 61 9 77 -4 7 -5 19 -7 27 -4 8 3 19 0 26 -7 8 -10 7 -15 -5 -20 -10 -4
-14 -2 -9 5 4 7 1 10 -6 7 -8 -2 -15 -9 -17 -15 -5 -14 55 -23 60 -9 3 6 8 7
13 3 12 -12 -18 -27 -41 -21 -15 4 -14 1 5 -10 14 -9 23 -16 20 -16 -25 -5
-79 -11 -98 -11 -21 1 -22 0 -7 -15 14 -15 18 -15 40 0 24 16 50 23 30 8 -5
-4 -19 -17 -29 -29 l-19 -23 38 0 c36 0 38 1 19 15 -10 8 -14 15 -7 15 6 0 14
-4 17 -9 4 -5 19 -7 35 -5 16 3 31 1 34 -3 3 -4 -9 -9 -26 -10 -18 -2 -36 -9
-42 -16 -14 -19 -43 -28 -47 -15 -5 13 -68 1 -68 -14 0 -9 -33 -5 -84 9 -32 9
2 21 62 22 30 0 57 3 60 5 8 9 -41 45 -63 46 l-20 1 20 10 c14 7 7 7 -25 3
-25 -4 -53 -6 -62 -6 -10 0 -18 -3 -18 -9 0 -9 5 -11 58 -12 17 -1 32 -6 32
-12 0 -6 -15 -9 -39 -7 -22 2 -42 -1 -46 -7 -5 -8 2 -10 22 -6 23 5 25 4 11
-5 -10 -6 -18 -15 -18 -20 0 -6 8 -10 18 -11 10 0 12 -3 5 -6 -7 -2 -13 -9
-13 -14 0 -5 8 -4 19 2 10 7 26 9 37 4 17 -6 15 -9 -11 -16 -16 -5 -39 -7 -50
-5 -19 5 -19 4 -2 -8 10 -8 16 -20 15 -27 -2 -7 6 -14 17 -16 l20 -3 -20 9
c-15 7 -9 9 27 9 28 0 58 6 73 16 20 13 33 15 60 7 38 -10 48 -5 15 7 -12 4
10 8 55 8 41 0 75 -3 75 -7 0 -5 -6 -6 -12 -4 -7 2 -29 0 -48 -4 -30 -8 -32
-9 -10 -11 18 -2 13 -5 -15 -9 -28 -4 -39 -11 -37 -21 2 -8 1 -12 -3 -8 -9 8
-66 -12 -60 -21 4 -8 -39 -51 -51 -51 -3 0 -4 7 0 15 3 8 1 15 -5 15 -6 0 -8
4 -5 9 3 4 18 7 33 5 22 -4 24 -3 9 4 -18 8 -17 10 10 19 16 6 38 18 49 27 20
15 20 15 -1 16 -12 0 -34 -5 -50 -10 -16 -6 -57 -16 -92 -23 -35 -7 -62 -17
-62 -22 1 -6 7 -9 15 -9 8 1 16 -5 19 -13 3 -8 1 -11 -4 -8 -6 3 -10 2 -10 -4
0 -16 40 -24 55 -11 8 7 15 9 15 4 0 -4 -12 -18 -27 -31 -16 -12 -23 -22 -16
-23 7 0 21 9 31 20 11 11 26 18 34 15 8 -3 32 4 52 15 26 16 36 18 36 8 1 -9
5 -8 14 5 7 9 21 17 30 17 13 0 10 -7 -13 -26 -25 -20 -28 -28 -18 -39 6 -7
15 -11 20 -8 4 2 7 -1 7 -6 0 -6 -5 -11 -11 -11 -5 0 -8 -4 -5 -8 3 -5 -10 -8
-29 -8 -18 0 -31 4 -28 9 3 5 11 6 17 4 7 -3 13 1 13 8 0 11 -5 12 -26 1 -16
-8 -36 -10 -51 -5 -24 7 -24 7 -2 8 12 1 22 6 22 11 0 16 -18 12 -40 -10 -11
-11 -20 -17 -20 -12 0 4 -6 -3 -13 -14 -6 -12 -17 -31 -24 -41 -11 -18 -10
-20 10 -19 12 0 25 6 29 11 5 6 8 5 8 -4 0 -8 6 -11 15 -7 12 4 13 2 6 -13 -6
-10 -7 -21 -3 -25 3 -4 0 -5 -8 -2 -19 8 -83 -31 -75 -44 3 -6 1 -10 -6 -10
-7 0 -9 -3 -6 -6 4 -4 13 -2 21 5 11 9 15 9 20 -1 3 -7 3 -3 1 9 -3 12 0 25 6
29 8 4 9 3 5 -4 -4 -7 -1 -12 8 -12 10 0 13 6 10 18 -5 13 -4 14 4 3 8 -12 15
-10 38 7 16 11 38 30 49 42 11 12 29 27 40 32 11 6 -4 -11 -34 -38 -29 -27
-65 -55 -78 -62 -36 -20 -88 -82 -86 -103 2 -41 3 -42 18 -29 10 9 15 9 15 1
0 -6 7 -11 15 -11 10 0 8 -6 -8 -23 -12 -13 -26 -21 -32 -18 -5 3 -4 -2 2 -10
9 -11 10 -18 1 -27 -15 -15 -2 -46 17 -38 8 3 16 1 16 -4 1 -6 2 -14 3 -19 0
-5 4 -13 9 -17 4 -4 7 -12 7 -18 0 -6 -5 -4 -10 4 -5 8 -10 10 -10 4 0 -6 7
-17 15 -24 10 -9 12 -17 6 -23 -14 -14 -2 -40 13 -28 9 8 16 1 24 -23 9 -23
18 -32 33 -32 16 1 25 -8 34 -34 10 -28 14 -31 20 -18 6 15 9 15 33 -7 14 -13
29 -22 33 -19 5 2 13 -12 18 -33 11 -38 61 -107 61 -84 0 7 4 10 9 7 5 -4 12
0 14 6 4 10 6 10 6 1 1 -7 12 -24 26 -39 20 -21 24 -23 19 -8 -6 16 -4 16 16
-4 18 -19 24 -21 31 -10 7 11 11 10 19 -2 8 -11 9 -8 4 13 -6 28 -6 28 16 15
17 -10 24 -10 27 -1 2 7 11 9 20 6 11 -4 14 -2 11 8 -4 13 0 21 30 54 7 8 10
15 5 15 -4 1 2 9 14 19 12 10 20 21 17 24 -3 3 -7 21 -10 42 -3 26 -1 34 8 29
8 -5 9 -2 5 9 -3 9 -2 19 3 22 14 9 12 21 -6 39 -8 9 -11 16 -5 16 5 0 8 13 6
29 -3 25 0 28 17 23 14 -3 19 -1 14 6 -4 7 -1 12 9 12 10 0 13 -5 9 -12 -4 -7
-3 -8 5 -4 6 4 9 12 6 17 -10 14 8 11 35 -8 24 -16 24 -16 11 0 -7 9 -9 17 -3
17 5 0 17 -10 26 -22 13 -20 15 -20 9 -3 -6 18 -5 18 10 6 10 -7 16 -21 15
-30 -2 -8 2 -16 7 -17 29 -5 52 -19 73 -45 17 -21 19 -27 7 -23 -13 5 -15 1
-11 -19 3 -19 1 -24 -10 -20 -21 8 -17 -7 9 -27 12 -10 20 -21 17 -24 -3 -2
-27 16 -53 40 -26 25 -47 42 -47 36 0 -5 9 -17 20 -27 10 -9 18 -22 17 -28 -1
-6 4 -11 12 -12 14 0 24 -32 14 -48 -3 -4 -15 0 -26 10 l-22 18 19 -23 c24
-27 16 -38 -16 -21 -22 12 -23 11 -5 -8 9 -11 15 -22 12 -25 -3 -3 2 -11 12
-19 11 -9 14 -10 9 -1 -4 6 -2 12 3 12 6 0 11 -4 11 -8 0 -15 -22 -30 -36 -25
-9 3 -12 0 -9 -9 6 -14 35 -21 33 -9 -2 20 6 19 41 -5 41 -27 67 -73 30 -53
-10 5 -19 14 -19 18 0 5 -10 9 -22 9 -33 0 -72 7 -86 16 -7 4 -12 3 -12 -3 0
-9 20 -24 45 -33 6 -1 9 -7 7 -11 -1 -5 1 -6 6 -3 12 7 54 -23 47 -34 -3 -5
-1 -12 5 -15 8 -5 7 -11 -1 -21 -13 -16 -33 -9 -23 8 4 7 2 8 -5 4 -16 -10 1
-30 40 -50 27 -14 28 -13 25 7 -1 11 -8 23 -15 25 -9 3 -9 8 1 20 10 12 10 14
1 8 -8 -4 -11 -2 -8 6 3 8 -4 23 -15 35 -11 12 -16 24 -11 27 8 5 61 -90 61
-110 0 -7 7 -17 15 -24 17 -14 20 -40 4 -40 -5 0 -7 5 -3 12 4 7 3 8 -4 4 -6
-4 -25 0 -41 9 -36 18 -42 19 -39 3 2 -7 -4 -12 -12 -10 -13 3 13 -33 41 -58
3 -3 8 -13 12 -22 4 -12 2 -15 -9 -11 -7 3 -14 9 -14 13 0 4 -9 10 -20 13 -13
3 -20 0 -20 -9 0 -8 7 -14 16 -14 9 0 14 -6 11 -13 -3 -8 6 -22 19 -32 13 -10
24 -26 24 -37 0 -19 -1 -19 -26 1 -29 23 -54 27 -54 10 0 -5 -5 -7 -12 -3 -7
4 -8 3 -4 -5 4 -6 11 -9 16 -6 12 8 38 -4 44 -21 7 -18 1 -18 -18 2 -15 14
-17 14 -22 -1 -4 -9 -3 -20 2 -24 12 -8 17 -30 15 -61 -1 -27 17 -80 28 -80 4
0 15 -6 24 -12 15 -11 12 -13 -20 -15 -28 -1 -34 1 -23 9 13 8 12 9 -1 5 -9
-3 -22 0 -29 6 -7 7 -3 -2 10 -20 13 -18 36 -37 52 -42 34 -12 98 -60 98 -73
0 -5 -6 -8 -12 -5 -7 2 -12 9 -11 15 1 5 -14 17 -35 26 -20 9 -49 23 -64 31
-26 13 -28 13 -28 -5 0 -11 11 -27 25 -36 14 -9 22 -20 19 -25 -3 -5 -2 -8 3
-7 4 2 9 -1 10 -5 1 -5 10 -16 20 -24 17 -14 17 -14 -1 -8 -40 12 16 -36 69
-61 68 -31 114 -71 97 -83 -11 -7 -10 -9 3 -14 9 -4 13 -3 10 3 -3 6 -3 10 2
10 9 0 53 -62 53 -74 0 -5 -7 -5 -16 -2 -9 3 -12 2 -9 -5 4 -5 14 -7 23 -5 10
3 24 1 32 -5 13 -9 13 -10 -2 -6 -40 13 -26 -14 21 -41 20 -12 25 -12 32 0 5
7 7 21 5 31 -2 9 3 21 12 27 14 8 14 10 2 10 -10 1 -9 4 5 10 11 5 14 9 7 9
-8 1 -4 13 13 36 15 19 24 38 21 43 -3 5 3 25 13 45 10 20 14 34 9 31 -6 -4
-5 3 1 15 6 11 23 24 36 27 14 3 25 10 25 16 0 5 5 6 10 3 6 -3 10 -2 10 3 0
12 40 23 52 15 5 -3 0 -12 -11 -20 -12 -8 -21 -19 -21 -24 0 -6 -10 -19 -22
-30 -21 -17 -21 -19 -3 -13 19 6 19 5 -1 -13 -12 -10 -26 -27 -32 -39 -10 -19
-9 -21 15 -16 19 4 24 2 18 -8 -4 -6 4 -4 19 5 14 9 23 21 20 26 -3 5 2 6 10
3 10 -4 16 -1 16 7 0 8 12 25 26 38 34 32 50 63 29 55 -8 -3 -12 -10 -9 -15
10 -16 -3 -9 -17 9 -7 9 -10 14 -5 10 11 -9 48 10 41 22 -3 5 4 11 15 15 22 7
28 25 8 25 -6 0 19 21 58 46 38 25 75 53 83 62 13 16 13 16 8 0 -7 -19 17 -26
28 -8 3 6 12 10 18 9 9 0 8 -2 -1 -6 -6 -2 -9 -10 -5 -16 3 -7 3 -9 -1 -6 -4
4 -19 -4 -33 -17 -14 -13 -32 -24 -40 -24 -8 0 -12 -4 -8 -9 3 -6 18 -4 35 5
17 8 44 21 60 29 17 8 30 10 30 6 0 -5 -16 -16 -35 -25 -19 -9 -37 -21 -40
-26 -3 -5 -11 -7 -18 -4 -7 2 -22 -5 -32 -16 -13 -14 -21 -17 -26 -9 -5 8 -13
7 -30 -6 l-24 -17 28 6 c15 4 27 2 27 -4 0 -6 9 -5 25 2 14 6 25 15 25 19 0 4
9 7 19 6 11 0 17 -6 13 -12 -3 -5 1 -4 10 3 9 7 26 15 38 17 l21 4 -21 -34
c-12 -19 -19 -35 -16 -35 2 0 27 23 54 51 46 48 49 54 40 80 -6 18 -17 29 -29
29 -10 0 -23 9 -29 20 -15 29 -50 46 -61 29 -4 -7 -5 -17 -3 -21 3 -4 -2 -5
-11 -2 -14 6 -13 9 5 29 29 31 8 37 -41 13 -61 -29 -69 -21 -11 12 55 32 67
46 30 34 -20 -6 -21 -5 -10 9 14 16 8 57 -8 57 -5 0 -5 12 -1 28 4 15 6 40 4
55 -2 17 4 39 17 57 12 17 19 30 15 30 -3 0 10 20 30 44 31 39 34 45 18 49
-17 4 -17 5 0 6 9 0 17 5 17 10 0 5 10 12 23 16 14 4 17 8 9 12 -9 3 -1 13 22
29 35 24 47 44 25 44 -6 0 -9 6 -6 13 2 6 10 11 16 9 7 -1 10 2 7 7 -4 5 -1
22 5 38 6 15 10 30 9 33 -1 2 8 8 20 12 12 4 19 12 15 18 -3 5 3 18 13 28 19
19 19 19 0 31 -10 6 -16 16 -13 21 4 6 12 4 21 -5 20 -19 38 -19 30 0 -3 9 3
24 13 34 10 10 21 30 25 45 6 24 26 53 64 92 6 7 12 17 12 22 0 6 13 21 28 34
15 12 29 27 31 32 4 13 -27 28 -42 20 -9 -5 -9 -4 -1 5 15 16 6 51 -12 51 -13
0 -9 21 14 80 3 8 6 18 7 23 2 4 3 8 5 10 1 1 3 12 4 24 2 21 1 21 -27 7 -16
-9 -26 -11 -22 -5 3 6 23 20 44 31 43 21 57 46 40 67 -10 11 -6 16 20 26 17 6
31 15 31 19 0 4 6 5 14 2 8 -3 16 -1 19 3 7 11 -34 11 -50 0 -18 -11 -16 5 3
29 8 10 13 13 9 7 -4 -8 0 -13 9 -13 19 0 30 17 14 23 -7 2 6 10 30 17 34 11
41 17 36 32 -3 10 0 18 6 18 6 0 10 8 9 18 -1 9 3 28 8 42 6 14 7 26 2 28 -4
2 -6 9 -3 16 3 8 -2 16 -11 19 -11 5 -14 14 -9 34 4 22 3 25 -5 13 -9 -13 -11
-13 -11 3 0 9 -4 17 -8 17 -5 0 -13 12 -18 28 l-10 27 -17 -30 -17 -30 6 30
c4 24 3 27 -6 15 -10 -12 -11 -11 -7 8 3 12 1 22 -5 22 -5 0 -6 5 -2 12 4 7 3
8 -4 4 -6 -4 -9 -13 -6 -20 3 -8 0 -17 -7 -22 -7 -4 -10 -3 -6 3 3 5 0 26 -7
46 -12 37 -13 37 -24 15 l-11 -23 0 25 c-1 20 -3 22 -11 10 -7 -12 -10 -8 -10
15 0 23 -3 27 -10 15 -7 -12 -10 -8 -10 15 l-1 30 -18 -23 c-13 -15 -21 -18
-24 -10 -3 7 -6 3 -6 -9 -1 -35 -18 -35 -25 0 l-7 32 -15 -25 c-15 -25 -15
-25 -10 10 3 19 1 42 -4 50 -8 13 -10 12 -10 -3 0 -10 -5 -15 -10 -12 -6 3
-15 -4 -20 -17 -10 -22 -10 -22 -5 4 3 14 8 34 11 45 6 16 5 16 -9 -2 -16 -20
-16 -20 -17 5 l-1 25 -14 -25 -14 -25 -2 25 -1 25 -7 -25 c-7 -26 -39 -35 -53
-15 -4 6 -8 -1 -9 -15 l-1 -25 -8 25 c-4 14 -8 32 -9 40 -1 13 0 13 9 0 7 -11
8 -6 5 15 -5 42 -5 42 -15 20 -8 -19 -9 -19 -9 3 -1 26 -21 30 -21 5 0 -15 -2
-16 -10 -3 -8 13 -10 13 -10 -2 0 -9 -5 -20 -11 -24 -8 -4 -9 1 -4 17 19 68
19 65 1 50 -9 -8 -16 -10 -15 -5 1 5 0 20 -1 34 -1 18 -6 11 -18 -27 -19 -61
-30 -69 -24 -18 2 19 1 43 -3 52 -6 15 -9 13 -21 -12 -11 -25 -13 -26 -8 -5 4
14 9 28 13 32 9 11 1 78 -10 78 -4 0 -10 -17 -12 -37 -3 -27 -4 -24 -3 12 1
35 -3 49 -12 47 -6 -1 -12 4 -12 10 0 9 -4 8 -10 -2 -5 -8 -10 -22 -10 -30 0
-13 2 -13 11 0 9 12 10 12 5 -3 -3 -10 -7 -44 -7 -75 l-2 -57 -7 45 c-5 25 -6
53 -3 64 3 12 1 16 -6 12 -6 -4 -11 -15 -12 -24 0 -11 -2 -12 -6 -4 -3 7 0 18
5 25 5 7 13 31 17 54 6 39 5 42 -13 38 -24 -4 -29 7 -26 52 1 27 0 30 -12 18
-8 -7 -11 -21 -8 -29 3 -9 3 -16 0 -16 -4 0 -11 11 -16 25 -12 31 -34 34 -27
3 6 -22 6 -22 -8 -4 -8 11 -15 14 -15 8 0 -25 -22 -11 -36 24 -13 31 -17 34
-31 22 -14 -11 -16 -11 -11 2 3 9 -3 26 -13 39 l-19 23 -1 -28 -1 -29 -8 30
-8 30 -1 -30 -1 -30 -15 29 c-8 15 -15 35 -15 43 0 12 -3 13 -13 4 -8 -6 -17
-8 -20 -4 -4 3 -7 -1 -7 -10 0 -9 -4 -17 -10 -17 -5 0 -10 6 -10 14 0 8 -12
17 -27 21 -15 3 -31 12 -35 18 -5 7 -8 0 -8 -17 l0 -28 -20 23 c-16 19 -21 21
-29 10 -7 -11 -11 -10 -19 5 -8 15 -10 8 -7 -31z m-271 -93 c3 -5 -1 -9 -9 -9
-8 0 -12 4 -9 9 3 4 7 8 9 8 2 0 6 -4 9 -8z m701 -99 c-3 -16 -11 -32 -16 -37
-5 -6 -4 5 1 25 6 18 10 35 10 36 0 2 3 3 6 3 3 0 3 -12 -1 -27z m-198 -100
c-3 -10 -5 -2 -5 17 0 19 2 27 5 18 2 -10 2 -26 0 -35z m-14 -38 c2 -39 6 -77
9 -85 2 -8 3 -12 1 -7 -3 4 -9 5 -14 1 -5 -3 -9 32 -9 82 0 103 8 108 13 9z
m95 20 c0 -16 -2 -15 -8 5 -11 34 -11 60 0 35 5 -11 8 -29 8 -40z m-291 23
c-3 -8 -6 -5 -6 6 -1 11 2 17 5 13 3 -3 4 -12 1 -19z m257 -22 c-3 -21 -9 -35
-11 -32 -3 3 -2 21 1 42 4 20 10 34 12 31 3 -3 2 -21 -2 -41z m123 -23 c-3
-10 -5 -4 -5 12 0 17 2 24 5 18 2 -7 2 -21 0 -30z m-480 -3 c-1 -3 4 -15 11
-26 6 -12 8 -24 5 -28 -3 -3 -15 13 -25 35 -22 49 -22 54 -4 37 8 -7 14 -15
13 -18z m77 0 c4 0 4 5 0 12 -4 7 -3 8 4 4 7 -4 12 -15 12 -24 0 -15 2 -15 11
-2 8 12 9 10 4 -9 -5 -15 -3 -21 3 -17 6 3 13 2 17 -4 4 -6 10 -8 15 -5 12 7
21 -38 9 -50 -7 -7 -8 -4 -3 9 6 15 4 17 -6 11 -8 -5 -11 -4 -6 3 3 6 2 13 -4
17 -10 6 -14 -6 -11 -35 1 -10 -4 -8 -17 7 -11 12 -22 19 -26 16 -3 -4 -6 -1
-6 5 0 5 6 12 13 15 8 3 0 18 -23 43 -19 21 -26 31 -14 21 11 -9 24 -17 28
-17z m483 8 c-3 -8 -6 -5 -6 6 -1 11 2 17 5 13 3 -3 4 -12 1 -19z m-227 -33
c14 -33 19 -65 9 -59 -5 3 -9 14 -9 25 0 10 -4 19 -10 19 -5 0 -10 15 -9 33 0
17 3 25 6 17 2 -8 8 -24 13 -35z m-196 9 c3 -8 2 -12 -4 -9 -6 3 -10 10 -10
16 0 14 7 11 14 -7z m53 -6 c-3 -8 -6 -5 -6 6 -1 11 2 17 5 13 3 -3 4 -12 1
-19z m223 6 c0 -8 3 -13 8 -11 4 3 5 -16 3 -41 l-5 -47 -6 45 c-3 25 -9 51
-13 58 -5 7 -4 12 2 12 6 0 11 -7 11 -16z m-355 -14 c3 -6 -1 -7 -9 -4 -18 7
-21 14 -7 14 6 0 13 -4 16 -10z m-809 -31 c3 -6 -5 -3 -20 6 -14 10 -26 19
-26 22 0 7 39 -17 46 -28z m604 24 c0 -5 11 -21 24 -36 21 -24 23 -32 13 -48
-9 -15 -8 -22 6 -36 16 -16 17 -16 17 0 0 10 -4 15 -10 12 -5 -3 -10 1 -10 9
0 24 16 27 35 6 10 -11 23 -17 29 -13 6 3 8 3 4 -1 -4 -5 2 -17 12 -28 14 -16
22 -18 37 -9 10 6 14 11 10 11 -5 0 -5 5 -2 11 9 14 46 -57 50 -97 l3 -33 -21
20 c-12 10 -26 18 -32 15 -5 -2 -20 6 -32 17 -23 21 -33 11 -11 -11 7 -7 9
-12 4 -12 -11 0 -36 27 -30 32 2 3 -7 17 -21 33 -15 15 -29 24 -32 21 -4 -3
-6 -32 -5 -64 2 -38 -1 -52 -7 -43 -5 8 -7 20 -4 28 3 7 2 21 -3 31 -11 24
-13 52 -3 47 4 -3 10 -1 14 5 3 5 2 10 -4 10 -5 0 -12 19 -16 43 -4 23 -13 52
-21 65 -8 12 -10 22 -4 22 5 0 10 -3 10 -7z m81 -34 c16 -17 29 -36 29 -43 0
-6 -5 -3 -11 7 -6 9 -13 15 -17 13 -4 -2 -15 9 -24 25 -22 38 -13 37 23 -2z
m138 -38 c-1 -24 -2 -23 -9 6 -4 18 -11 39 -16 46 -5 7 -1 4 9 -6 9 -11 17
-31 16 -46z m128 47 c-3 -8 -6 -5 -6 6 -1 11 2 17 5 13 3 -3 4 -12 1 -19z
m-183 -12 c6 15 9 16 16 5 4 -8 6 -21 2 -29 -3 -9 -1 -13 4 -10 5 4 9 -5 9
-19 l0 -24 -22 26 c-13 15 -23 20 -24 13 -1 -19 -18 24 -18 47 0 18 1 18 13
-4 12 -21 14 -22 20 -5z m-258 -22 c1 -9 0 -13 -4 -10 -3 4 -7 14 -8 22 -1 9
0 13 4 10 3 -4 7 -14 8 -22z m481 4 c-3 -8 -6 -5 -6 6 -1 11 2 17 5 13 3 -3 4
-12 1 -19z m-837 -4 c0 -2 -9 -4 -21 -4 -11 0 -18 4 -14 10 5 8 35 3 35 -6z
m406 -9 c16 -14 23 -25 17 -25 -15 0 -53 31 -53 42 0 12 5 10 36 -17z m293
-46 c-5 -22 -7 -44 -4 -50 4 -5 2 -9 -3 -9 -6 0 -8 -19 -6 -42 3 -30 2 -37 -4
-23 -5 11 -8 34 -6 52 1 18 -4 37 -11 43 -8 6 -11 18 -8 26 4 12 8 12 19 -3
11 -16 13 -12 9 32 -3 43 -2 48 10 32 9 -13 10 -28 4 -58z m84 0 c-6 -6 -15
-3 -24 8 -13 16 -12 17 4 4 10 -8 17 -9 17 -3 0 6 -4 14 -10 17 -5 3 -10 11
-10 18 0 6 7 1 16 -12 10 -14 13 -26 7 -32z m44 19 c-3 -8 -6 -5 -6 6 -1 11 2
17 5 13 3 -3 4 -12 1 -19z m440 -20 c-3 -7 -5 -2 -5 12 0 14 2 19 5 13 2 -7 2
-19 0 -25z m34 1 c-5 -13 -10 -19 -10 -12 -1 15 10 45 15 40 3 -2 0 -15 -5
-28z m-701 1 c0 -11 -4 -20 -9 -20 -5 0 -7 9 -4 20 3 11 7 20 9 20 2 0 4 -9 4
-20z m-571 -16 c14 -12 -19 -1 -35 12 -18 14 -18 14 6 3 14 -6 27 -13 29 -15z
m834 13 c3 -8 -1 -14 -8 -14 -7 0 -11 6 -8 14 3 7 6 13 8 13 2 0 5 -6 8 -13z
m-1068 -27 c3 -6 -1 -7 -9 -4 -18 7 -21 14 -7 14 6 0 13 -4 16 -10z m198 -6
c18 -9 34 -20 37 -23 3 -3 11 -6 19 -6 8 0 15 -8 17 -18 2 -16 0 -16 -25 2
-15 11 -36 19 -46 18 -12 -1 -19 3 -17 12 2 8 -3 11 -13 8 -9 -4 -15 -1 -15 8
0 19 4 19 43 -1z m-213 -29 c11 -13 10 -14 -4 -9 -9 3 -16 10 -16 15 0 13 6
11 20 -6z m421 -2 c13 -16 12 -17 -3 -4 -10 7 -18 15 -18 17 0 8 8 3 21 -13z
m-251 -9 l25 -15 -25 7 c-14 3 -32 10 -40 15 -13 7 -13 8 0 8 8 0 26 -6 40
-15z m420 0 c0 -8 -5 -12 -10 -9 -6 4 -8 11 -5 16 9 14 15 11 15 -7z m80 -31
c8 -9 8 -13 0 -13 -7 0 -10 -5 -8 -11 2 -6 7 -10 12 -9 5 1 13 -5 18 -14 5 -9
13 -14 19 -11 5 4 9 -1 9 -9 0 -9 -4 -16 -9 -16 -14 0 0 -47 22 -71 17 -18 18
-21 4 -16 -20 7 -21 4 -6 -26 10 -22 10 -22 -6 -2 -9 11 -23 29 -31 40 -8 11
-12 14 -9 8 3 -7 2 -13 -3 -13 -14 0 -22 12 -15 24 11 17 12 37 2 30 -5 -3 -7
-8 -5 -12 2 -4 -2 -12 -9 -19 -11 -10 -17 -7 -31 15 l-17 27 21 -19 c12 -11
22 -14 22 -8 0 6 -8 17 -17 24 -10 7 -29 27 -43 43 -13 17 -4 10 22 -13 32
-31 48 -40 53 -31 6 9 11 7 22 -6 17 -24 17 -13 -1 28 -7 18 -30 47 -49 66
-33 31 -35 35 -19 47 14 11 19 10 29 -4 7 -9 17 -23 23 -29z m98 1 c13 -20 19
-33 13 -29 -16 9 -14 0 14 -49 18 -33 21 -44 10 -40 -8 3 -13 10 -10 14 3 5 2
10 -2 12 -14 6 -53 67 -53 83 0 9 -3 14 -7 12 -5 -3 -8 5 -8 18 0 30 15 23 43
-21z m-708 6 c24 -15 7 -19 -25 -5 -23 10 -25 14 -10 14 11 0 27 -3 35 -9z
m78 -17 c-6 -7 -16 -13 -22 -12 -6 0 -5 3 3 6 11 5 11 7 0 14 -10 6 -7 8 8 6
17 -1 19 -4 11 -14z m266 9 c3 -5 -1 -9 -9 -9 -8 0 -12 4 -9 9 3 4 7 8 9 8 2
0 6 -4 9 -8z m150 -8 c3 -8 2 -12 -4 -9 -6 3 -10 10 -10 16 0 14 7 11 14 -7z
m-74 -68 c0 -5 -10 3 -21 18 -12 15 -27 25 -34 22 -9 -3 -11 2 -8 15 5 18 8
17 34 -13 15 -18 28 -37 29 -42z m376 47 c-7 -7 -26 7 -26 19 0 6 6 6 15 -2 9
-7 13 -15 11 -17z m-36 7 c0 -5 -2 -10 -4 -10 -3 0 -8 5 -11 10 -3 6 -1 10 4
10 6 0 11 -4 11 -10z m-284 -9 c-4 -5 10 -19 29 -31 37 -23 49 -38 16 -20 -18
9 -17 5 6 -38 21 -39 21 -43 4 -22 -11 14 -28 39 -36 57 -9 18 -20 35 -25 38
-10 6 -5 25 6 25 3 0 3 -4 0 -9z m-15 -28 c13 -16 12 -17 -3 -4 -10 7 -18 15
-18 17 0 8 8 3 21 -13z m319 13 c0 -9 -30 -14 -35 -6 -4 6 3 10 14 10 12 0 21
-2 21 -4z m80 -2 c0 -8 -19 -13 -24 -6 -3 5 1 9 9 9 8 0 15 -2 15 -3z m-489
-27 c-10 -9 -11 -8 -5 6 3 10 9 15 12 12 3 -3 0 -11 -7 -18z m69 -42 c8 -6 26
-23 40 -39 l25 -30 -29 22 c-22 17 -33 19 -50 11 -18 -9 -19 -8 -5 3 9 7 14
19 11 27 -3 8 -7 9 -11 3 -4 -6 -11 -5 -19 4 -11 12 -10 13 5 11 10 -1 25 -7
33 -12z m123 -83 c22 -35 -4 -16 -48 36 l-49 57 44 -39 c25 -22 49 -46 53 -54z
m1439 46 c-8 -8 -9 -4 -5 13 4 13 8 18 11 10 2 -7 -1 -18 -6 -23z m-1232 -18
c13 -11 19 -20 13 -20 -5 0 -18 9 -28 20 -10 11 -16 20 -13 20 3 0 15 -9 28
-20z m-125 -29 c-6 -5 -25 10 -25 20 0 5 6 4 14 -3 8 -7 12 -15 11 -17z m-597
10 c10 -6 6 -10 -15 -14 -31 -6 -46 0 -38 14 8 11 36 12 53 0z m338 -9 c1 -7
0 -8 -2 -3 -3 6 -12 7 -21 4 -11 -4 -14 -3 -9 6 9 14 29 10 32 -7z m59 -8 c9
-15 12 -23 6 -20 -11 7 -35 46 -28 46 3 0 12 -12 22 -26z m260 16 c-3 -5 -1
-10 4 -10 6 0 11 -4 11 -10 0 -17 -14 -11 -28 10 -10 17 -10 20 4 20 8 0 12
-4 9 -10z m72 -32 c-3 -8 -6 -5 -6 6 -1 11 2 17 5 13 3 -3 4 -12 1 -19z m-109
-13 c-3 -3 -9 2 -12 12 -6 14 -5 15 5 6 7 -7 10 -15 7 -18z m-233 5 c3 -5 1
-10 -4 -10 -6 0 -11 5 -11 10 0 6 2 10 4 10 3 0 8 -4 11 -10z m138 -13 c4 15
5 14 6 -4 0 -12 6 -25 11 -28 6 -3 10 -14 9 -23 0 -14 -2 -14 -6 -2 -3 8 -18
26 -32 40 -15 14 -19 19 -10 12 15 -12 18 -11 22 5z m63 -56 c13 -28 22 -51
20 -51 -8 0 -39 55 -47 83 -11 40 -2 28 27 -32z m245 42 c13 -16 12 -17 -3 -4
-17 13 -22 21 -14 21 2 0 10 -8 17 -17z m-765 -35 c2 -2 -6 -10 -18 -17 -13
-8 -18 -8 -13 -1 7 11 -37 8 -89 -7 -12 -3 -16 -1 -12 6 4 6 14 11 22 11 8 0
13 3 11 8 -5 7 91 7 99 0z m-270 -27 c-8 -12 -46 -21 -46 -11 0 5 8 11 18 13
29 8 33 7 28 -2z m551 -43 c-2 -13 -4 -5 -4 17 -1 22 1 32 4 23 2 -10 2 -28 0
-40z m-338 8 c-34 -14 -35 -16 -19 -26 12 -8 11 -10 -7 -10 -12 0 -23 -3 -26
-7 -2 -5 -2 -2 0 5 2 9 -3 11 -18 7 -16 -5 -20 -3 -17 6 3 8 12 13 21 11 8 -1
18 2 22 8 3 5 15 10 26 10 10 0 19 5 19 11 0 5 5 7 12 3 8 -5 4 -11 -13 -18z
m579 -41 c-3 -3 -9 2 -12 12 -6 14 -5 15 5 6 7 -7 10 -15 7 -18z m697 -73 l5
-47 -18 60 c-10 33 -16 64 -14 69 8 14 21 -28 27 -82z m-1295 65 c0 -2 -10
-12 -22 -23 l-23 -19 19 23 c18 21 26 27 26 19z m1078 -65 c5 -30 6 -50 2 -45
-4 4 -11 33 -14 63 -7 66 -1 56 12 -18z m-158 8 c8 -15 8 -25 0 -38 -8 -11
-10 -12 -7 -2 2 8 0 25 -4 38 -11 27 -3 29 11 2z m37 -43 c2 -61 6 -73 33 -97
14 -12 19 -19 13 -15 -7 3 -13 0 -13 -7 -1 -7 -7 -2 -16 12 l-15 25 6 -25 c5
-19 4 -22 -4 -10 -6 8 -11 30 -11 49 0 27 -3 31 -14 22 -11 -9 -12 -5 -8 21 3
18 5 45 6 60 2 43 21 13 23 -35z m-1067 38 c-7 -9 -15 -13 -19 -10 -3 3 1 10
9 15 21 14 24 12 10 -5z m735 -5 c10 -11 14 -20 9 -20 -5 0 -15 9 -22 20 -7
11 -11 20 -9 20 2 0 12 -9 22 -20z m625 -25 c-16 -47 -23 -40 -8 8 6 20 13 35
16 33 2 -3 -1 -21 -8 -41z m-556 4 c-3 -5 0 -9 6 -9 7 0 10 -6 7 -13 -3 -8 1
-14 9 -14 17 0 17 2 3 30 -21 39 1 11 36 -48 36 -59 41 -75 26 -75 -7 0 -19
25 -25 52 -4 19 -12 14 -12 -7 0 -14 4 -25 10 -25 5 0 6 -3 3 -6 -3 -4 -2 -16
4 -28 7 -14 3 -12 -11 7 -24 30 -46 37 -31 10 5 -10 22 -31 38 -48 15 -16 34
-41 41 -55 12 -25 12 -25 6 5 -7 37 4 28 15 -13 8 -25 7 -30 -5 -25 -8 3 -22
19 -30 35 -8 16 -19 26 -24 23 -6 -4 -10 -1 -10 5 0 12 -39 71 -55 82 -6 5 -5
8 3 8 8 0 10 5 6 12 -5 8 -2 9 10 5 14 -6 15 -3 6 14 -6 11 -15 17 -20 14 -5
-3 -12 0 -16 6 -4 8 -3 9 4 5 17 -11 15 2 -8 39 l-21 33 21 -5 c11 -3 17 -9
14 -14z m630 -43 c-3 -15 -8 -25 -11 -23 -2 3 -1 17 3 31 3 15 8 25 11 23 2
-3 1 -17 -3 -31z m-117 2 c-3 -8 -6 -5 -6 6 -1 11 2 17 5 13 3 -3 4 -12 1 -19z
m-1197 8 c0 -2 -7 -7 -16 -10 -8 -3 -12 -2 -9 4 6 10 25 14 25 6z m787 -28
c-3 -8 -6 -5 -6 6 -1 11 2 17 5 13 3 -3 4 -12 1 -19z m-907 9 c0 -2 -10 -12
-22 -23 l-23 -19 19 23 c18 21 26 27 26 19z m1336 -22 c-1 -29 -16 -35 -16 -7
0 16 8 32 16 32 1 0 1 -11 0 -25z m-608 -10 c-3 -3 -9 2 -12 12 -6 14 -5 15 5
6 7 -7 10 -15 7 -18z m485 5 c3 -11 1 -18 -4 -14 -5 3 -9 12 -9 20 0 20 7 17
13 -6z m-523 -15 c-11 -13 -9 -20 14 -44 18 -19 24 -31 17 -36 -12 -7 -5 -28
7 -22 4 2 18 -8 32 -22 14 -14 21 -23 16 -18 -17 13 -29 8 -17 -7 7 -9 8 -17
3 -20 -6 -3 -13 1 -16 9 -3 8 -11 14 -18 13 -7 -2 -12 3 -10 10 1 6 -1 11 -5
10 -12 -4 -83 53 -78 62 3 5 -2 13 -11 18 -15 8 -15 10 0 15 10 4 15 3 12 -1
-2 -4 6 -12 20 -19 20 -9 23 -8 21 6 -1 9 -6 22 -10 29 -5 7 -3 12 3 12 6 0 8
5 5 10 -3 6 1 10 11 10 14 0 14 -3 4 -15z m94 -1 c3 -8 2 -12 -4 -9 -6 3 -10
10 -10 16 0 14 7 11 14 -7z m140 -7 c1 -8 8 -22 14 -30 9 -10 10 -17 2 -22 -7
-4 -7 -12 0 -25 5 -10 10 -25 10 -32 0 -7 -9 6 -20 30 -17 38 -40 61 -27 27 4
-8 2 -17 -2 -19 -10 -6 -8 22 3 45 4 9 6 20 5 25 -1 5 -1 13 0 18 1 13 12 1
15 -17z m-191 -10 c4 3 7 1 7 -5 0 -21 -16 -21 -30 1 -12 19 -11 21 2 10 8 -7
18 -10 21 -6z m574 -29 c-3 -8 -6 -5 -6 6 -1 11 2 17 5 13 3 -3 4 -12 1 -19z
m-1387 6 c0 -8 -19 -13 -24 -6 -3 5 1 9 9 9 8 0 15 -2 15 -3z m-35 -23 c3 -5
2 -12 -3 -15 -5 -3 -9 1 -9 9 0 17 3 19 12 6z m1135 -21 c12 -23 12 -24 -3
-11 -10 7 -17 20 -17 29 0 18 3 16 20 -18z m-427 -5 c-3 -9 -8 -14 -10 -11 -3
3 -2 9 2 15 9 16 15 13 8 -4z m-34 -12 c-7 -7 -6 -14 1 -18 6 -3 7 -11 4 -17
-4 -6 -3 -9 2 -5 5 3 18 -1 29 -9 10 -8 15 -14 11 -14 -5 0 -3 -7 4 -15 10
-12 9 -15 -5 -15 -10 0 -25 7 -34 15 -36 34 -80 65 -91 65 -9 0 -10 4 -2 13 6
7 29 13 51 13 28 -1 37 -4 30 -13z m-103 -10 c-2 -10 6 -32 17 -50 21 -36 35
-46 17 -12 -7 11 -9 23 -6 27 3 3 6 1 6 -5 0 -6 10 -13 23 -17 13 -3 36 -17
51 -31 15 -14 31 -23 36 -20 5 3 12 0 16 -6 4 -8 3 -9 -4 -5 -7 4 -12 2 -12
-4 0 -7 6 -10 14 -7 8 3 20 -1 27 -9 10 -12 9 -13 -5 -8 -26 10 -18 -11 14
-34 17 -13 30 -28 29 -35 0 -9 -2 -9 -6 1 -2 6 -9 12 -14 12 -6 0 -7 -6 -3
-12 4 -7 -6 1 -22 17 -16 17 -28 33 -27 37 2 3 -14 21 -35 39 -20 18 -36 38
-34 43 2 6 -2 6 -9 -1 -9 -9 -9 -16 -1 -26 7 -8 9 -17 6 -20 -3 -3 -3 -11 1
-17 6 -9 10 -9 17 1 8 11 9 11 5 -1 -4 -17 -50 -21 -70 -7 -8 6 -5 7 8 2 17
-5 16 -3 -5 20 l-25 26 28 -10 c37 -14 42 -14 28 3 -15 17 -49 27 -56 15 -9
-14 -35 2 -35 23 0 10 -4 17 -9 14 -5 -4 -7 3 -4 14 5 19 6 19 18 4 8 -12 14
-14 19 -6 4 7 3 12 -2 12 -5 0 -9 11 -9 25 0 14 3 25 7 25 5 0 7 -8 6 -17z
m689 -42 c3 -6 4 -11 1 -11 -10 0 -35 57 -28 64 3 4 10 -4 13 -18 4 -13 10
-29 14 -35z m33 34 c-3 -3 -9 2 -12 12 -6 14 -5 15 5 6 7 -7 10 -15 7 -18z
m-560 -10 c-3 -3 -9 2 -12 12 -6 14 -5 15 5 6 7 -7 10 -15 7 -18z m37 -23 c-3
-3 -11 0 -18 7 -9 10 -8 11 6 5 10 -3 15 -9 12 -12z m200 -44 c19 -22 19 -22
-10 2 -48 40 -51 43 -30 32 11 -6 29 -21 40 -34z m-218 19 c10 -17 61 -51 81
-53 21 -4 33 -26 20 -41 -6 -8 -7 -18 -2 -26 5 -7 1 -4 -8 6 -10 11 -16 23
-13 27 3 4 -3 14 -12 21 -15 12 -16 12 -10 -3 3 -10 2 -18 -3 -18 -5 0 -7 -8
-3 -17 5 -15 3 -14 -10 2 -9 11 -17 25 -17 30 0 6 -9 16 -21 23 -11 7 -18 19
-16 26 3 8 0 19 -6 25 -8 8 -8 11 1 11 6 0 15 -6 19 -13z m73 3 c0 -5 -2 -10
-4 -10 -3 0 -8 5 -11 10 -3 6 -1 10 4 10 6 0 11 -4 11 -10z m111 -47 c10 -12
5 -11 -18 6 -18 12 -33 24 -33 27 0 9 37 -15 51 -33z m140 -5 c6 -12 6 -18 0
-18 -5 0 -13 9 -16 20 -4 11 -11 18 -16 15 -5 -3 -6 1 -2 10 6 18 10 15 34
-27z m-554 -10 c-5 -16 -3 -17 11 -6 9 7 14 8 10 4 -4 -5 -3 -15 3 -23 9 -11
7 -12 -12 -9 -13 3 -27 5 -30 5 -3 1 -4 14 -1 31 2 16 9 27 14 24 5 -4 7 -15
5 -26z m530 -30 c-3 -8 -6 -5 -6 6 -1 11 2 17 5 13 3 -3 4 -12 1 -19z m-349
-13 c-3 -3 -9 2 -12 12 -6 14 -5 15 5 6 7 -7 10 -15 7 -18z m133 -82 c13 -16
12 -17 -3 -4 -10 7 -18 15 -18 17 0 8 8 3 21 -13z m-10 -185 c12 -24 38 -61
58 -83 l36 -40 -42 39 c-46 43 -73 42 -47 -2 15 -25 15 -26 -1 -7 -9 11 -20
19 -25 18 -5 -2 -6 9 -4 23 3 14 0 32 -6 39 -8 10 -8 15 0 20 6 4 9 13 6 21
-12 31 5 12 25 -28z m43 6 c3 -8 2 -12 -4 -9 -6 3 -10 10 -10 16 0 14 7 11 14
-7z m186 -38 c0 -12 -14 5 -31 39 -8 16 -6 15 10 -4 12 -13 21 -28 21 -35z
m-260 2 c0 -6 -3 -8 -7 -5 -3 4 -13 1 -22 -6 -14 -11 -14 -10 -2 6 15 20 31
22 31 5z m111 -25 c13 -16 12 -17 -3 -4 -10 7 -18 15 -18 17 0 8 8 3 21 -13z
m76 -5 c-3 -8 -6 -5 -6 6 -1 11 2 17 5 13 3 -3 4 -12 1 -19z m54 -55 c13 -16
12 -17 -3 -4 -10 7 -18 15 -18 17 0 8 8 3 21 -13z m-67 -52 c-7 -7 -44 37 -44
51 0 7 11 0 24 -17 13 -16 22 -32 20 -34z m-87 34 c0 -8 -4 -12 -9 -9 -5 3 -6
10 -3 15 9 13 12 11 12 -6z m0 -127 c-3 -8 -6 -5 -6 6 -1 11 2 17 5 13 3 -3 4
-12 1 -19z m33 -28 c6 -11 7 -20 2 -20 -6 0 -12 9 -15 20 -3 11 -3 20 -1 20 2
0 8 -9 14 -20z m648 -136 c10 -11 7 -15 -13 -20 -14 -3 -25 -9 -25 -13 0 -3
-11 -7 -25 -7 -14 -1 -22 2 -19 7 3 5 11 9 19 9 8 0 17 5 21 11 4 8 0 9 -15 4
-12 -3 -21 -2 -21 4 0 8 22 15 55 17 6 0 16 -5 23 -12z m-94 -6 c-3 -4 -12 -8
-20 -8 -8 0 -13 4 -10 8 3 5 12 9 20 9 8 0 13 -4 10 -9z m-145 -72 c-3 -3 -11
5 -18 17 -13 21 -12 21 5 5 10 -10 16 -20 13 -22z m-339 -2 c0 -2 -9 0 -20 6
-11 6 -20 13 -20 16 0 2 9 0 20 -6 11 -6 20 -13 20 -16z m490 -14 l-23 -20 44
-1 44 0 -45 -15 c-48 -17 -130 -26 -130 -15 0 7 110 70 124 71 5 0 -1 -9 -14
-20z m26 -59 c-3 -5 -28 -26 -55 -47 -53 -40 -60 -64 -11 -39 16 8 33 15 37
15 10 -1 -39 -39 -50 -40 -4 0 -18 -9 -29 -20 -21 -19 -21 -21 -4 -33 16 -12
14 -16 -26 -42 -24 -16 -58 -30 -77 -30 l-35 -2 40 33 c40 34 40 42 1 23 -18
-8 -17 -5 6 15 15 14 27 30 27 36 0 5 5 10 11 10 6 0 8 8 4 19 -7 24 51 72
115 94 55 19 52 19 46 8z m-111 -21 c-3 -5 -12 -10 -18 -10 -7 0 -6 4 3 10 19
12 23 12 15 0z m191 -42 c4 -7 3 -10 -1 -5 -5 4 -19 0 -33 -9 -13 -8 -26 -13
-29 -11 -3 4 40 34 54 37 1 0 5 -6 9 -12z m-591 -16 c-3 -3 -11 0 -18 7 -9 10
-8 11 6 5 10 -3 15 -9 12 -12z m76 -39 c13 -17 13 -17 -6 -3 -11 8 -22 16 -24
17 -2 2 0 3 6 3 6 0 17 -8 24 -17z m50 -30 c13 -16 12 -17 -3 -4 -10 7 -18 15
-18 17 0 8 8 3 21 -13z m-73 -28 c-3 -3 -9 2 -12 12 -6 14 -5 15 5 6 7 -7 10
-15 7 -18z m-68 -77 c0 -6 7 -20 17 -30 9 -10 12 -18 7 -18 -5 0 -28 31 -52
68 l-42 67 35 -38 c19 -21 35 -43 35 -49z m241 55 c13 -16 12 -17 -3 -4 -17
13 -22 21 -14 21 2 0 10 -8 17 -17z m-118 -75 c-2 -5 1 -8 8 -8 7 0 9 -3 6 -7
-9 -8 -47 31 -47 48 0 7 8 4 19 -7 10 -10 17 -22 14 -26z m-88 22 c-3 -6 1
-13 9 -16 9 -3 13 -10 10 -16 -3 -5 -14 -2 -25 8 -18 16 -17 34 2 34 6 0 7 -5
4 -10z m-101 -6 c9 -3 13 -11 9 -17 -4 -7 0 -8 12 -3 12 4 26 -1 41 -15 17
-16 26 -18 41 -11 13 7 24 6 38 -5 17 -13 17 -15 2 -9 -11 3 -16 2 -12 -4 3
-5 8 -20 10 -32 4 -19 2 -21 -8 -8 -13 16 -48 35 -85 45 -15 4 -21 12 -18 21
3 8 1 12 -4 9 -12 -7 -50 12 -50 25 0 12 3 12 24 4z m206 -64 c8 -5 12 -11 10
-14 -3 -2 -14 2 -24 10 -22 15 -10 19 14 4z"/>
<path d="M1150 4744 c0 -14 49 -70 50 -57 0 7 -11 24 -25 39 -14 15 -25 23
-25 18z"/>
<path d="M1240 4683 c0 -11 9 -28 19 -38 19 -16 20 -16 18 4 -1 12 -9 29 -19
38 -17 15 -18 15 -18 -4z"/>
<path d="M1210 4671 c0 -5 5 -13 10 -16 6 -3 10 -2 10 4 0 5 -4 13 -10 16 -5
3 -10 2 -10 -4z"/>
<path d="M1036 4652 c-3 -5 1 -9 9 -9 8 0 12 4 9 9 -3 4 -7 8 -9 8 -2 0 -6 -4
-9 -8z"/>
<path d="M1227 4083 c3 -7 9 -10 14 -7 14 8 11 21 -5 21 -8 0 -12 -6 -9 -14z"/>
<path d="M1087 3985 c5 -25 17 -32 27 -16 3 4 -3 16 -13 25 -17 16 -18 15 -14
-9z"/>
<path d="M1127 3916 c-4 -10 -1 -13 8 -9 8 3 12 9 9 14 -7 12 -11 11 -17 -5z"/>
<path d="M847 3873 c-11 -11 -8 -23 6 -23 8 0 14 7 14 15 0 16 -9 19 -20 8z"/>
<path d="M1119 3797 c6 -8 7 -18 3 -22 -4 -5 -1 -5 6 -1 10 6 10 11 1 22 -6 8
-14 14 -16 14 -3 0 0 -6 6 -13z"/>
<path d="M4007 5254 c-3 -4 -17 -8 -29 -9 -13 -1 -28 -3 -34 -4 -6 0 -24 -13
-40 -27 -16 -15 -23 -23 -17 -20 9 5 11 2 7 -8 -3 -9 -11 -13 -16 -10 -9 6
-57 -42 -58 -58 0 -4 -11 -24 -25 -44 -16 -23 -25 -51 -25 -75 0 -21 -7 -45
-16 -53 -14 -15 -14 -17 0 -32 19 -18 22 -49 4 -38 -15 10 30 -56 54 -77 10
-9 18 -21 18 -26 0 -11 43 -53 54 -53 5 0 27 13 51 29 24 16 53 32 64 36 12 3
19 11 16 16 -4 5 2 9 12 9 11 0 24 5 29 10 7 7 30 8 66 2 76 -12 102 1 94 47
-5 33 -63 101 -86 101 -6 0 -10 7 -10 15 0 8 -7 15 -15 15 -8 0 -17 11 -21 25
-3 14 -10 22 -15 19 -10 -6 -1 46 10 58 11 12 85 -31 119 -69 18 -21 32 -48
32 -62 0 -35 11 -71 20 -71 5 0 7 11 5 25 -2 19 1 23 10 15 10 -8 13 2 14 46
1 130 -101 258 -216 269 -27 3 -52 2 -56 -1z m-13 -61 c-5 -5 -12 -12 -16 -18
-4 -6 -8 -2 -8 8 0 9 7 17 17 17 9 0 12 -3 7 -7z m11 -23 c3 -5 1 -10 -4 -10
-6 0 -11 5 -11 10 0 6 2 10 4 10 3 0 8 -4 11 -10z m-36 -41 c-10 -20 -29 -26
-29 -9 0 6 6 10 13 11 10 0 10 2 0 6 -21 8 -15 22 7 16 16 -4 18 -9 9 -24z
m-39 -36 c0 -19 -3 -24 -10 -17 -6 6 -8 18 -4 27 9 24 14 21 14 -10z m-78
-239 c-6 -11 -11 -13 -16 -5 -4 6 -2 11 3 11 6 0 11 5 11 11 0 5 -4 7 -10 4
-11 -7 -14 8 -3 19 12 11 25 -23 15 -40z"/>
<path d="M1677 5159 c4 -13 8 -18 11 -10 2 7 -1 18 -6 23 -8 8 -9 4 -5 -13z"/>
<path d="M745 5040 c3 -5 8 -10 11 -10 2 0 4 5 4 10 0 6 -5 10 -11 10 -5 0 -7
-4 -4 -10z"/>
<path d="M785 4998 c4 -13 11 -27 16 -33 5 -5 4 5 -2 23 -12 36 -24 44 -14 10z"/>
<path d="M489 4982 c13 -9 33 -17 45 -19 19 -2 19 -2 3 8 -9 6 -15 13 -13 17
2 4 -10 8 -27 8 l-32 2 24 -16z"/>
<path d="M650 4978 c14 -14 30 -25 37 -25 19 0 5 16 -30 33 l-32 16 25 -24z"/>
<path d="M723 4985 c0 -8 4 -12 9 -9 5 3 6 10 3 15 -9 13 -12 11 -12 -6z"/>
<path d="M396 4919 c12 -12 28 -19 35 -17 8 3 -1 12 -21 22 l-35 17 21 -22z"/>
<path d="M1900 4898 c0 -36 4 -35 14 5 4 16 2 27 -4 27 -5 0 -10 -14 -10 -32z"/>
<path d="M450 4885 c0 -7 61 -37 67 -32 2 3 -10 12 -28 21 -35 17 -39 19 -39
11z"/>
<path d="M4280 4870 c-12 -22 3 -27 30 -10 12 8 12 10 -5 10 -17 0 -17 2 -5
10 9 6 10 10 3 10 -7 0 -17 -9 -23 -20z"/>
<path d="M3725 4870 c3 -5 8 -10 11 -10 2 0 4 5 4 10 0 6 -5 10 -11 10 -5 0
-7 -4 -4 -10z"/>
<path d="M4345 4870 c3 -5 2 -10 -2 -10 -5 0 -18 -7 -29 -16 -18 -14 -17 -15
13 -11 18 2 30 0 27 -5 -3 -4 -1 -8 5 -8 5 0 11 6 14 13 5 15 -10 47 -24 47
-6 0 -7 -4 -4 -10z"/>
<path d="M336 4847 c3 -10 9 -15 12 -12 3 3 0 11 -7 18 -10 9 -11 8 -5 -6z"/>
<path d="M3739 4787 c15 -19 41 -23 41 -7 0 6 -4 10 -9 10 -5 0 -18 3 -28 7
-16 6 -16 5 -4 -10z"/>
<path d="M3756 4733 c-3 -3 -1 -14 5 -24 5 -11 6 -19 2 -19 -11 -1 29 -30 40
-30 5 0 2 11 -7 25 -9 14 -14 29 -11 34 6 10 -20 23 -29 14z"/>
<path d="M4963 4659 c-10 -13 -30 -34 -45 -48 -16 -14 -28 -33 -28 -42 0 -22
-21 -38 -48 -36 -18 1 -19 3 -8 17 8 8 17 26 21 40 l7 25 -21 -22 c-11 -12
-21 -26 -21 -31 0 -10 -33 -42 -44 -42 -4 0 -4 5 0 12 4 7 9 25 11 40 3 27 1
28 -20 17 -12 -7 -17 -14 -11 -16 8 -3 9 -15 4 -38 -4 -19 -4 -33 0 -30 4 3
10 -2 14 -10 3 -8 1 -17 -4 -20 -5 -3 -6 -16 -1 -28 7 -21 7 -43 -2 -212 -8
-144 -44 -191 -44 -57 -1 106 -6 151 -29 228 -10 32 -17 62 -16 67 1 4 -5 7
-13 7 -8 0 -15 5 -15 10 0 6 -9 21 -21 33 -14 15 -9 0 15 -43 28 -52 36 -79
40 -137 3 -39 2 -74 -2 -77 -3 -4 -23 29 -45 71 -44 88 -68 121 -38 53 30 -70
44 -162 38 -252 -3 -44 -9 -84 -14 -87 -4 -3 -8 -12 -9 -18 -4 -49 -4 -49 -15
-33 -8 12 -9 11 -5 -5 4 -15 -8 -36 -49 -80 -30 -33 -55 -56 -55 -52 0 5 7 15
15 23 8 9 15 21 15 27 0 6 -10 -2 -22 -18 -30 -42 -94 -96 -85 -72 4 11 3 16
-3 12 -6 -3 -10 -13 -10 -21 0 -8 -7 -14 -15 -14 -8 0 -25 -5 -38 -12 -56 -29
-57 -29 -57 -8 0 11 -3 20 -8 20 -4 0 -63 -18 -132 -41 -86 -28 -136 -39 -160
-36 l-35 5 35 -15 c19 -9 76 -18 125 -21 141 -7 255 22 382 99 l38 23 -20 -23
c-23 -26 -114 -82 -165 -100 -19 -7 -78 -21 -130 -31 -52 -10 -81 -19 -63 -19
46 -1 166 26 226 51 60 26 179 95 189 112 6 8 8 7 8 -2 0 -24 -67 -70 -185
-127 -91 -44 -266 -62 -390 -40 -22 4 -76 18 -120 33 -80 26 -135 35 -135 22
0 -9 46 -30 68 -31 11 0 13 -2 4 -6 -14 -6 143 -83 168 -83 9 0 21 -5 26 -10
6 -6 57 -11 115 -13 82 -2 123 2 194 20 100 25 145 42 145 53 0 5 20 15 45 23
24 9 57 27 72 41 29 27 43 32 43 16 0 -5 -4 -10 -9 -10 -9 0 -23 -41 -17 -48
2 -1 11 5 21 14 14 15 18 15 26 3 5 -8 6 -21 3 -30 -2 -9 2 -23 9 -31 8 -8 13
-27 11 -47 -3 -27 -2 -30 9 -19 7 7 19 22 25 33 11 17 12 15 6 -16 -6 -37 5
-70 33 -97 7 -7 13 -20 13 -27 0 -26 42 -55 79 -55 106 0 205 138 179 252 -11
49 -31 76 -71 93 l-29 12 46 13 c25 7 67 10 93 7 38 -4 53 -12 75 -38 25 -30
28 -31 28 -12 0 12 -5 25 -10 28 -6 4 -8 11 -4 16 3 5 -2 22 -11 36 -12 18
-19 22 -25 13 -5 -9 -9 -9 -14 -1 -4 6 -15 11 -24 11 -15 0 -15 -2 -2 -11 11
-8 -1 -9 -47 -5 -51 5 -62 3 -68 -11 -5 -14 -8 -15 -15 -4 -7 12 -15 11 -49
-6 -23 -11 -41 -17 -41 -13 0 5 -3 17 -7 27 -6 15 -4 16 8 6 12 -10 15 -5 15
28 1 22 7 46 13 52 6 6 11 25 10 42 0 16 -3 23 -6 15 -4 -8 -12 -21 -20 -28
-11 -11 -13 -8 -13 18 0 18 -4 29 -10 25 -5 -3 -10 -3 -11 2 -4 42 -4 61 1 58
4 -2 6 10 7 28 0 18 3 47 8 66 6 25 5 32 -3 27 -8 -4 -12 0 -13 11 0 10 -1 39
-2 65 -2 26 2 49 7 51 5 2 2 10 -6 17 -12 11 -13 19 -4 32 8 14 6 21 -9 34
-20 15 -20 15 -1 9 19 -6 19 -5 3 13 -16 17 -15 20 14 50 36 36 79 107 128
205 34 71 36 96 4 56z m-124 -166 c-20 -26 -32 -33 -54 -33 -15 0 -17 2 -6 9
8 5 10 14 5 22 -6 12 -5 12 8 1 13 -10 17 -10 22 3 3 8 13 15 22 15 14 0 15
-2 3 -17z m11 -853 c0 -12 -28 -25 -36 -17 -9 9 6 27 22 27 8 0 14 -5 14 -10z
m110 -142 c0 6 5 12 10 12 18 0 -18 -58 -40 -65 -11 -4 -18 -10 -15 -15 3 -5
0 -12 -6 -16 -17 -10 -109 -12 -109 -2 0 5 -4 6 -10 3 -5 -3 -10 1 -10 9 0 9
-5 16 -10 16 -6 0 -5 6 2 14 8 9 17 11 23 5 21 -20 84 -10 117 20 23 20 35 26
40 18 6 -9 8 -9 8 1z"/>
<path d="M4107 4620 c-194 -33 -390 -224 -419 -406 -11 -75 -6 -184 12 -224
l11 -25 -6 25 c-3 14 -9 59 -12 101 -13 168 84 342 241 434 113 66 249 94 369
75 97 -15 147 -39 217 -106 33 -31 60 -52 60 -47 0 16 -93 110 -116 117 -11 3
-29 14 -40 24 -11 10 -37 23 -59 28 -50 13 -194 15 -258 4z"/>
<path d="M4721 4604 c0 -11 3 -14 6 -6 3 7 2 16 -1 19 -3 4 -6 -2 -5 -13z"/>
<path d="M4865 4580 c-3 -5 -1 -10 4 -10 6 0 11 5 11 10 0 6 -2 10 -4 10 -3 0
-8 -4 -11 -10z"/>
<path d="M4790 4560 c0 -5 5 -10 10 -10 6 0 10 5 10 10 0 6 -4 10 -10 10 -5 0
-10 -4 -10 -10z"/>
<path d="M3895 4404 c-79 -41 -128 -125 -129 -224 -1 -52 4 -73 23 -104 55
-89 171 -86 257 6 93 98 100 252 16 318 -31 25 -123 27 -167 4z m15 -68 c0
-20 -24 -36 -39 -26 -8 4 -11 15 -8 24 8 20 47 21 47 2z m167 -158 c-2 -7 -11
-12 -18 -10 -11 3 -11 1 -2 -9 9 -9 8 -15 -4 -27 -13 -13 -16 -13 -24 -1 -13
21 -11 26 13 43 27 19 41 20 35 4z m-64 -84 c-10 -8 -26 -12 -36 -10 -10 3
-14 0 -10 -7 4 -7 0 -8 -11 -4 -10 4 -27 2 -38 -4 -16 -8 -22 -8 -29 2 -9 16
7 29 36 29 11 0 36 8 55 18 29 14 37 15 43 4 6 -9 2 -18 -10 -28z"/>
<path d="M3345 4360 c27 -12 43 -12 25 0 -8 5 -22 9 -30 9 -10 0 -8 -3 5 -9z"/>
<path d="M365 4250 c-3 -5 1 -10 10 -10 9 0 13 5 10 10 -3 6 -8 10 -10 10 -2
0 -7 -4 -10 -10z"/>
<path d="M3373 4253 c9 -2 23 -2 30 0 6 3 -1 5 -18 5 -16 0 -22 -2 -12 -5z"/>
<path d="M3248 4228 c-16 -5 -28 -13 -28 -18 0 -4 -15 -11 -34 -14 -19 -4 -45
-15 -57 -25 -13 -10 -46 -30 -74 -44 -60 -31 -50 -34 23 -7 29 11 58 17 64 14
6 -4 8 -3 5 3 -9 14 17 24 41 17 14 -5 15 -4 2 5 -8 6 -10 11 -4 11 5 0 15 -5
21 -11 8 -8 24 -5 56 10 25 12 64 21 86 21 23 0 41 4 41 9 0 5 10 12 23 14 12
2 3 5 -21 6 -26 0 -41 5 -37 11 8 13 -71 12 -107 -2z"/>
<path d="M230 4155 c-11 -13 -10 -14 4 -9 9 3 16 10 16 15 0 13 -6 11 -20 -6z"/>
<path d="M3384 4145 c-18 -14 -17 -14 9 -13 27 2 35 12 18 22 -4 3 -17 -1 -27
-9z"/>
<path d="M277 4123 c-4 -3 -7 -11 -7 -17 0 -6 5 -5 12 2 6 6 9 14 7 17 -3 3
-9 2 -12 -2z"/>
<path d="M216 4102 c-2 -4 4 -8 14 -8 10 0 16 4 14 8 -3 4 -9 8 -14 8 -5 0
-11 -4 -14 -8z"/>
<path d="M3141 3998 c-21 -29 -46 -67 -55 -85 -9 -17 -22 -35 -28 -39 -7 -5
-5 5 6 21 l19 30 -36 -34 c-21 -20 -33 -39 -30 -48 3 -8 0 -19 -8 -24 -11 -7
-11 -9 -1 -9 10 0 10 -4 -2 -15 -9 -9 -22 -25 -30 -37 -8 -11 -19 -17 -24 -14
-15 9 3 64 28 91 32 34 23 40 -17 9 -20 -15 -33 -22 -28 -14 6 10 4 12 -8 7
-25 -9 -21 -1 20 51 l37 47 -46 -44 c-25 -24 -50 -41 -55 -38 -4 3 -24 -12
-43 -34 -18 -21 -38 -39 -44 -39 -6 0 -5 5 2 12 25 25 11 29 -18 4 -17 -14
-37 -23 -45 -20 -8 4 -17 0 -20 -7 -3 -8 -18 -15 -33 -15 -15 -1 -21 1 -14 3
6 3 9 9 6 15 -4 6 2 8 17 3 17 -4 20 -3 10 3 -11 8 -8 17 15 47 l29 38 -30
-16 c-17 -9 -43 -30 -60 -48 -38 -39 -62 -53 -62 -34 0 7 6 11 13 8 6 -2 15 0
19 6 3 6 1 11 -5 11 -6 0 -8 5 -5 11 4 6 14 8 23 4 9 -3 13 -3 9 1 -4 4 1 16
10 28 17 19 16 19 -13 -2 -17 -11 -37 -28 -44 -37 -14 -17 -35 -21 -24 -3 5 7
3 8 -6 3 -10 -6 -9 -11 5 -22 11 -7 15 -13 11 -13 -5 0 -3 -6 3 -13 6 -8 8
-17 4 -21 -4 -3 4 -4 18 -2 13 2 24 5 24 6 0 1 7 3 16 5 11 2 15 -4 14 -19 -2
-17 3 -22 23 -24 14 -1 32 -8 40 -15 8 -6 16 -12 16 -11 1 0 11 6 24 13 18 9
22 9 22 -2 0 -28 34 -47 75 -40 25 4 36 3 32 -4 -10 -16 -75 -23 -104 -12 -21
8 -37 5 -77 -15 -28 -13 -69 -28 -91 -32 -36 -6 -39 -6 -27 9 8 9 25 17 39 19
15 2 29 9 31 17 3 10 0 12 -12 8 -9 -4 -16 -3 -16 1 0 5 -23 8 -50 8 -28 -1
-50 -5 -49 -10 1 -15 -25 -26 -65 -26 -45 0 -39 16 9 23 18 2 16 3 -5 1 -73
-7 -112 -17 -117 -30 -3 -8 -15 -14 -28 -14 -24 0 -38 -21 -29 -43 3 -8 -2
-20 -10 -27 -9 -7 -13 -16 -10 -21 3 -5 -2 -12 -10 -15 -9 -3 -16 -13 -16 -20
0 -12 4 -12 25 2 14 9 25 12 25 6 0 -10 -11 -25 -65 -87 l-26 -30 5 30 c14 69
13 105 0 105 -14 0 -18 -12 -15 -39 2 -7 -4 -29 -12 -50 -8 -20 -12 -42 -10
-48 3 -7 -7 -18 -21 -24 -30 -14 -30 -12 -13 -70 13 -47 12 -93 -4 -84 -5 4
-9 1 -9 -4 0 -17 18 -13 28 5 14 26 25 -2 11 -28 -10 -18 -8 -29 12 -65 25
-46 39 -54 40 -25 0 16 1 16 8 -1 4 -10 10 -17 14 -15 4 2 37 -26 75 -62 37
-36 84 -74 105 -84 20 -11 37 -23 37 -28 0 -4 9 -8 19 -8 11 0 33 -14 50 -30
22 -22 37 -29 55 -26 18 3 25 -1 29 -16 3 -12 10 -17 17 -13 7 4 14 -2 17 -14
3 -11 9 -19 13 -16 5 3 19 1 31 -4 15 -5 31 -4 42 3 15 9 22 6 39 -17 17 -23
23 -26 35 -15 14 11 15 8 8 -22 -13 -57 -12 -75 6 -72 17 2 29 -23 22 -45 -5
-15 -48 -17 -89 -4 -16 5 -56 17 -89 27 -33 9 -67 21 -75 25 -8 4 -55 24 -105
44 -49 21 -110 49 -134 63 -25 14 -41 20 -37 13 5 -8 4 -16 -3 -21 -8 -5 -4
-12 14 -24 14 -9 23 -22 19 -28 -4 -7 -3 -8 5 -4 6 4 42 -14 84 -42 39 -27 94
-58 120 -70 26 -12 61 -30 76 -41 16 -11 30 -18 33 -15 3 2 35 -9 72 -25 36
-17 84 -35 106 -41 41 -11 48 -33 7 -24 -12 3 -27 6 -34 8 -7 1 -15 5 -19 9
-4 3 -15 2 -26 -4 -23 -12 -67 -5 -125 22 -24 10 -49 19 -57 19 -8 0 -18 5
-21 10 -3 6 -13 10 -22 10 -26 0 -80 30 -116 65 -19 19 -37 32 -39 29 -10 -9
-68 19 -73 36 -4 12 -12 16 -25 13 -33 -9 -22 -45 16 -57 12 -4 37 -32 55 -62
83 -137 85 -139 161 -176 40 -20 88 -41 106 -48 17 -7 32 -19 32 -26 0 -8 7
-14 16 -14 8 0 12 -5 8 -11 -4 -8 1 -9 16 -4 15 5 20 4 16 -4 -9 -15 -17 -14
-62 6 -22 9 -51 15 -66 14 -17 -1 -41 7 -60 22 -18 14 -59 37 -90 51 -56 27
-76 47 -152 160 -21 31 -26 34 -26 18 0 -11 5 -24 10 -27 12 -7 13 -25 2 -25
-5 0 -15 12 -23 28 -17 33 -49 70 -49 56 0 -14 48 -84 92 -131 21 -24 38 -47
38 -52 0 -20 82 -112 96 -107 7 3 16 1 19 -4 4 -6 13 -10 22 -10 8 0 29 -10
46 -22 17 -13 36 -23 42 -23 5 0 19 -5 29 -11 15 -9 18 -18 12 -45 l-6 -34 20
33 c21 34 43 44 34 15 -5 -17 -5 -17 9 0 14 17 15 17 22 0 5 -11 9 -14 12 -6
3 8 12 9 26 4 12 -4 28 -6 35 -4 6 3 12 -3 12 -12 0 -9 4 -14 10 -10 5 3 7 12
3 20 -3 8 0 15 6 15 6 0 11 -4 11 -10 0 -16 22 -12 37 8 13 15 14 13 8 -22 -6
-36 -5 -38 9 -26 24 19 28 7 9 -30 -15 -32 -17 -32 -24 -12 -5 12 -11 22 -13
22 -3 0 -3 -7 0 -15 4 -8 1 -15 -5 -15 -6 0 -11 -5 -11 -11 0 -5 5 -7 10 -4 6
3 10 -1 10 -10 0 -11 -5 -15 -14 -12 -20 8 -28 -19 -10 -33 21 -18 18 -26 -32
-91 -50 -65 -67 -73 -35 -16 18 32 19 77 2 77 -3 0 -18 -23 -33 -50 -16 -28
-33 -50 -39 -50 -7 0 -5 9 5 23 30 41 47 77 36 77 -5 0 -10 -4 -10 -9 0 -5 -6
-16 -14 -24 -8 -8 -24 -29 -36 -48 -15 -25 -21 -29 -19 -14 3 37 -1 45 -21 45
-26 0 -40 36 -29 75 15 51 10 61 -11 22 -11 -20 -20 -44 -20 -52 0 -8 -7 -15
-14 -15 -12 0 -13 6 -4 31 6 16 8 33 4 36 -3 3 -11 -8 -17 -25 -6 -18 -15 -32
-20 -32 -5 0 -9 -7 -9 -17 0 -9 -3 -14 -6 -10 -3 3 3 36 15 74 12 37 26 84 32
104 16 53 5 72 -15 25 -9 -21 -13 -42 -10 -48 3 -5 -2 -18 -12 -29 -13 -15
-14 -19 -3 -19 9 0 10 -3 4 -8 -11 -7 -45 -104 -45 -128 0 -8 -5 -14 -10 -14
-6 0 -15 -11 -20 -25 -6 -17 -17 -25 -33 -25 -13 0 -28 -5 -35 -12 -9 -9 -12
-5 -12 18 0 20 -3 25 -9 15 -5 -7 -14 -10 -21 -6 -7 4 -13 -1 -17 -14 -6 -22
-23 -29 -23 -9 0 8 -3 9 -10 2 -12 -12 -90 52 -90 74 0 6 -4 12 -10 12 -13 0
-13 -4 6 -95 9 -42 14 -79 11 -81 -3 -3 -8 14 -12 37 -4 24 -11 50 -15 59 -5
8 -13 35 -19 60 -9 41 -10 37 -6 -35 2 -45 7 -90 10 -100 6 -16 5 -17 -4 -5
-6 8 -11 24 -11 35 0 11 -10 34 -21 50 -12 17 -18 22 -15 12 3 -10 6 -35 6
-55 0 -23 3 -32 8 -24 6 8 13 -7 22 -42 7 -31 17 -53 22 -50 4 3 8 0 8 -5 0
-6 -4 -11 -10 -11 -16 0 -12 -46 5 -60 8 -7 15 -20 14 -29 0 -13 -3 -12 -14 4
-44 63 -45 63 -33 18 6 -27 7 -52 1 -70 -5 -15 -8 -45 -7 -65 1 -21 0 -38 -3
-38 -11 0 -32 36 -33 55 0 11 -5 27 -11 35 -9 12 -10 11 -5 -5 6 -20 6 -20 -9
-1 -8 11 -15 24 -15 30 0 5 -3 7 -6 3 -3 -3 8 -30 24 -60 17 -31 28 -58 25
-61 -4 -3 -2 -6 4 -6 5 0 10 -7 10 -15 0 -11 -4 -12 -14 -4 -7 6 -13 8 -13 4
0 -19 -29 20 -35 46 -4 16 -11 27 -16 23 -5 -3 -9 2 -9 11 0 9 -5 13 -11 9 -6
-3 -8 -17 -4 -33 4 -14 8 -42 9 -61 1 -19 8 -46 15 -60 l12 -25 -20 25 c-11
14 -21 28 -21 33 0 4 -5 7 -11 7 -8 0 -8 -4 -2 -13 6 -6 13 -23 16 -37 6 -24
5 -24 -8 -6 -8 11 -15 24 -15 30 0 5 -3 7 -6 4 -3 -4 -1 -15 4 -25 12 -24 23
-93 14 -93 -9 0 -35 58 -36 80 -1 8 -9 14 -19 12 -9 -2 -17 3 -17 9 0 7 -3 10
-6 7 -3 -4 2 -21 11 -40 11 -22 11 -27 2 -16 -8 10 -17 15 -21 11 -3 -3 2 -15
11 -26 10 -11 12 -17 5 -13 -9 6 -15 0 -19 -15 -6 -23 -7 -23 -19 6 -7 17 -14
23 -14 15 0 -8 -7 -1 -15 15 -11 25 -14 27 -14 9 -1 -12 6 -38 14 -57 8 -20
15 -41 15 -47 0 -7 -6 -5 -15 4 -8 8 -15 22 -15 31 0 9 -4 13 -10 10 -5 -3
-10 -1 -10 4 0 6 -6 11 -12 11 -16 0 -23 -108 -9 -129 5 -8 31 -15 69 -16 33
-2 66 -6 73 -11 7 -4 56 -8 108 -9 147 -3 309 -35 331 -66 3 -4 14 -8 25 -10
15 -3 20 -13 21 -35 1 -26 -2 -30 -17 -27 -11 3 -19 0 -19 -6 0 -6 -7 -11 -15
-11 -9 0 -27 -11 -41 -25 -14 -14 -29 -23 -34 -20 -5 3 -29 -12 -54 -34 -27
-24 -71 -48 -110 -61 -71 -23 -85 -35 -66 -53 10 -9 14 -9 17 1 3 6 9 10 14 6
5 -3 9 0 9 5 0 6 9 11 21 11 33 0 109 22 104 30 -2 4 7 5 20 2 25 -4 25 -22 1
-22 -15 0 -56 -42 -56 -58 0 -6 13 -18 30 -27 33 -17 37 -32 15 -61 -8 -10
-15 -31 -15 -45 0 -14 -9 -34 -19 -43 -11 -10 -22 -28 -25 -41 -5 -18 -11 -22
-27 -18 -27 7 -49 -19 -49 -56 1 -67 50 -65 114 4 47 51 103 76 117 54 5 -8 9
-26 9 -40 0 -14 6 -33 13 -43 12 -17 15 -16 45 9 18 15 32 32 32 39 0 18 216
226 235 226 9 0 29 6 43 14 40 21 129 54 202 73 68 18 269 24 360 11 268 -39
343 -52 389 -64 75 -19 273 -117 302 -150 59 -65 69 -74 89 -74 18 0 20 6 20
56 0 53 1 55 23 48 41 -12 74 -33 126 -78 51 -43 106 -63 126 -45 6 6 5 24 -2
49 -5 22 -8 40 -5 40 2 0 26 -16 52 -35 38 -28 129 -75 146 -75 2 0 4 9 4 20
0 27 -23 72 -46 91 -10 8 -15 9 -11 2 4 -6 3 -14 -3 -18 -5 -3 -10 -15 -10
-25 0 -30 -27 -14 -52 31 -12 21 -28 39 -35 39 -19 0 -87 74 -134 145 -40 62
-39 87 2 64 13 -7 26 -14 29 -14 3 0 16 -6 30 -13 24 -13 24 -12 -2 8 -14 11
-36 40 -47 64 -23 47 -54 66 -106 66 -80 0 -282 61 -301 91 -3 5 -16 9 -30 9
-13 0 -33 9 -45 21 -17 17 -28 19 -68 14 -43 -5 -48 -4 -60 19 -8 13 -23 27
-34 30 -19 5 -19 7 -5 28 20 30 64 55 124 72 170 48 215 59 269 68 33 5 85 10
116 11 54 2 84 15 103 46 6 10 10 10 16 2 11 -18 58 -2 66 22 6 18 7 18 15 4
8 -13 14 -14 32 -6 28 13 87 104 87 134 0 12 6 27 13 33 14 12 16 110 3 154
-8 26 -6 27 41 33 78 10 226 36 235 41 5 3 6 9 3 14 -3 4 -33 -1 -67 -12 -81
-26 -363 -32 -443 -9 -65 19 -123 55 -137 86 -15 34 -8 38 54 34 143 -9 247 3
284 33 13 9 -29 187 -61 261 -9 21 -13 47 -10 57 3 11 -1 33 -10 51 -9 17 -12
28 -6 25 15 -10 14 -6 -8 40 -12 23 -16 43 -10 50 5 6 -1 24 -17 47 -19 29
-21 37 -9 37 17 0 21 25 5 35 -6 4 -8 10 -5 15 3 4 -2 13 -9 20 -15 12 -32 65
-28 87 2 7 -4 23 -12 35 -8 13 -17 34 -20 48 -2 14 -9 45 -15 70 -5 25 -15 74
-21 110 -13 81 -32 150 -41 150 -4 0 -10 12 -13 26 -9 34 -70 94 -97 94 -18 0
-19 2 -9 15 10 12 9 16 -6 21 -28 10 -54 35 -48 45 3 5 -6 9 -19 9 -14 0 -32
10 -43 25 -10 14 -29 25 -41 25 -18 0 -23 6 -23 25 0 19 -4 23 -17 18 -10 -4
-14 -2 -10 4 4 6 -5 13 -21 16 -15 3 -40 17 -55 31 -15 14 -27 22 -27 18 0 -4
-12 -9 -26 -10 -21 -2 -24 1 -19 18 7 21 -4 25 -52 21 -17 -1 -21 2 -16 14 4
11 1 16 -8 15 -32 -5 -47 1 -52 20 -4 14 0 20 11 20 10 0 5 6 -13 16 -38 20
-46 28 -18 20 13 -4 31 -2 40 4 16 9 15 10 -7 9 -14 -1 -41 -1 -60 0 -33 2
-34 2 -16 16 14 11 16 15 5 15 -12 0 -12 2 1 10 12 8 11 10 -7 10 -17 0 -21 4
-16 17 5 14 1 15 -27 10 -29 -6 -31 -5 -19 9 11 14 11 18 -4 29 -9 7 -17 16
-17 20 0 5 -7 15 -15 24 -62 66 -84 91 -78 91 3 0 -5 9 -17 20 -23 20 -28 31
-32 72 -1 10 -14 20 -31 24 -22 5 -26 8 -16 15 12 8 12 10 0 18 -11 7 -11 9 0
13 7 2 14 19 15 36 2 33 -12 43 -22 17 -9 -22 -27 -18 -21 4 2 10 1 25 -3 32
-5 7 -2 22 7 36 29 44 4 23 -36 -29z m-364 -394 c-3 -3 -12 -4 -19 -1 -8 3 -5
6 6 6 11 1 17 -2 13 -5z m-217 -14 c0 -5 -12 -10 -26 -10 -14 0 -23 4 -19 10
3 6 15 10 26 10 10 0 19 -4 19 -10z m240 -15 c-35 -20 -62 -19 -36 0 11 8 29
15 40 15 19 -1 19 -2 -4 -15z m-438 -20 c0 -5 -5 -11 -11 -13 -6 -2 -11 4 -11
13 0 9 5 15 11 13 6 -2 11 -8 11 -13z m146 1 c6 -3 17 -3 26 0 9 3 16 2 16 -4
0 -10 -80 -51 -102 -53 -7 0 -4 -4 7 -9 11 -4 24 -4 30 1 14 14 22 11 28 -11
3 -13 10 -18 21 -14 9 3 27 3 40 0 19 -5 24 -11 21 -27 -3 -15 0 -19 10 -15
10 4 15 -1 15 -14 0 -11 4 -20 8 -20 5 0 7 -13 4 -30 -3 -18 0 -30 7 -30 6 0
11 8 11 18 0 28 29 62 53 62 21 0 77 -52 77 -71 0 -5 4 -9 10 -9 5 0 7 6 4 14
-6 16 32 46 58 46 10 0 18 4 18 10 0 12 60 43 68 35 4 -4 -1 -11 -11 -16 -9
-6 -25 -18 -35 -28 -9 -10 -32 -26 -50 -35 -18 -9 -30 -21 -26 -27 4 -7 10 -7
18 0 7 6 30 11 51 12 62 2 75 8 75 33 0 13 9 31 20 41 11 10 20 25 21 34 0 10
2 12 6 4 2 -7 17 -13 33 -13 27 0 40 -15 40 -47 0 -23 -48 -63 -76 -63 -13 0
-24 -5 -24 -11 0 -5 -5 -7 -11 -3 -6 3 -15 0 -20 -7 -7 -11 -9 -11 -9 3 0 20
-19 18 -51 -4 -17 -12 -20 -17 -8 -17 9 -1 22 -12 29 -26 17 -32 3 -49 -105
-121 -75 -51 -80 -53 -83 -32 -6 38 16 93 48 116 25 19 28 25 18 36 -11 12
-17 11 -35 -7 -13 -11 -23 -26 -23 -32 0 -6 -11 -22 -25 -35 -28 -26 -30 -24
-15 14 9 26 -2 37 -15 16 -14 -23 -34 10 -28 48 3 29 2 34 -6 22 -10 -13 -13
-12 -26 4 -13 17 -15 17 -15 3 0 -9 -10 -23 -22 -31 -20 -14 -23 -14 -31 0 -8
14 -11 14 -18 3 -12 -19 -11 -57 2 -61 5 -2 7 -11 4 -21 -4 -9 -11 -14 -16
-11 -5 3 -9 4 -9 2 -1 -15 -29 -79 -30 -66 0 10 7 33 16 52 9 19 14 42 10 52
-6 15 -9 15 -31 -6 -22 -21 -25 -22 -31 -5 -12 29 9 69 43 85 39 18 41 26 8
34 -39 10 -29 42 25 79 13 9 19 17 12 17 -7 0 -10 5 -7 10 3 6 2 10 -4 10 -5
0 -15 -8 -20 -17 -9 -15 -10 -15 -11 -2 0 8 5 20 12 27 24 24 -1 22 -28 -3
-15 -14 -20 -23 -11 -19 21 8 22 -9 3 -26 -8 -6 -12 -19 -9 -27 4 -11 3 -14
-6 -9 -6 4 -17 3 -24 -3 -16 -13 -42 3 -32 19 4 7 2 15 -4 19 -19 12 5 61 51
104 23 20 38 40 35 43 -8 8 -56 -25 -67 -47 -6 -10 -23 -27 -39 -38 l-28 -20
6 28 c3 16 20 45 36 64 26 30 35 34 72 32 23 -2 46 -6 51 -9z m167 -20 c-32
-14 -41 -13 -30 3 3 6 18 11 33 11 l27 -1 -30 -13z m48 -42 c3 -4 -1 -13 -9
-21 -17 -17 -80 -12 -98 8 -8 9 -4 10 16 5 14 -3 37 -2 50 3 29 12 33 13 41 5z
m127 -15 c12 -7 11 -9 -5 -10 -37 -3 -58 3 -73 18 -13 13 -10 14 24 7 21 -3
46 -10 54 -15z m-45 -31 c26 -12 34 -28 12 -28 -6 0 -28 4 -47 10 -22 6 -38 6
-44 0 -6 -6 -16 -10 -23 -10 -9 0 -8 6 4 20 20 22 59 26 98 8z m-476 -77 c-26
-46 -69 -63 -61 -24 5 25 46 63 69 63 11 0 9 -9 -8 -39z m481 29 c18 -12 2
-12 -25 0 -13 6 -15 9 -5 9 8 0 22 -4 30 -9z m-440 -24 c0 -3 -4 -8 -10 -11
-5 -3 -10 -1 -10 4 0 6 5 11 10 11 6 0 10 -2 10 -4z m76 -61 c-5 -43 -28 -105
-38 -105 -11 0 -28 36 -28 59 0 15 54 81 68 81 1 0 0 -16 -2 -35z m-87 -27
c-18 -35 -41 -58 -51 -52 -12 8 0 43 26 75 16 20 23 23 29 13 4 -8 3 -24 -4
-36z m838 -30 c-3 -10 2 -25 10 -34 20 -19 10 -29 -15 -15 -35 19 -47 12 -24
-12 24 -26 29 -71 10 -92 -26 -29 -34 -40 -35 -50 -3 -20 -19 -14 -35 16 -11
18 -13 27 -5 24 6 -4 5 -1 -3 7 -16 14 -26 98 -12 98 4 0 17 6 27 14 19 14 19
15 1 35 -17 19 -17 21 -3 21 10 0 17 7 17 15 0 7 8 19 18 24 13 8 21 6 35 -11
10 -12 16 -30 14 -40z m135 25 c43 -47 71 -111 63 -150 -3 -18 -10 -31 -16
-28 -5 4 -9 1 -9 -4 0 -6 -4 -11 -9 -11 -4 0 -7 14 -5 32 4 30 -30 98 -48 98
-5 0 -8 6 -8 14 0 8 -7 22 -16 31 -18 17 -12 45 9 45 7 0 25 -12 39 -27z m115
-5 c-3 -8 -6 -5 -6 6 -1 11 2 17 5 13 3 -3 4 -12 1 -19z m-457 -16 c20 -5 33
-29 37 -69 3 -28 -1 -36 -37 -58 -32 -20 -44 -23 -60 -15 -11 6 -20 8 -20 4 0
-3 -7 -1 -15 6 -19 16 -11 30 14 23 20 -5 38 27 32 56 -2 12 0 13 13 2 12 -11
15 -9 13 8 0 11 -5 17 -9 15 -10 -6 -11 30 -1 39 4 4 9 4 12 0 3 -5 13 -9 21
-11z m96 -6 c3 -8 0 -25 -7 -37 -11 -22 -12 -22 -26 -3 -35 47 -36 54 -3 54
17 0 33 -6 36 -14z m469 -6 c3 -5 1 -10 -4 -10 -6 0 -11 5 -11 10 0 6 2 10 4
10 3 0 8 -4 11 -10z m-950 -86 c-15 -25 -32 -43 -38 -41 -20 6 -20 67 -1 88 9
10 13 20 8 20 -5 1 5 4 21 8 41 9 44 -16 10 -75z m699 -10 c4 -14 2 -41 -4
-59 -8 -25 -16 -32 -35 -32 -23 0 -25 3 -25 44 0 24 4 42 9 39 5 -4 7 4 3 16
-3 14 -2 19 6 14 7 -4 12 -1 12 10 0 25 26 0 34 -32z m234 3 c19 -29 21 -40
14 -79 -9 -47 -47 -118 -63 -118 -5 0 -9 20 -9 44 0 25 -5 48 -10 51 -6 4 -7
24 -4 48 15 94 34 109 72 54z m-492 -3 c-4 -9 -9 -15 -11 -12 -3 3 -3 13 1 22
4 9 9 15 11 12 3 -3 3 -13 -1 -22z m-649 -46 c-3 -8 -6 -5 -6 6 -1 11 2 17 5
13 3 -3 4 -12 1 -19z m499 7 c3 -8 -10 -35 -30 -61 -28 -37 -36 -42 -36 -26 0
11 -5 24 -12 28 -8 5 -7 10 4 18 8 6 18 20 22 31 7 24 44 31 52 10z m161 -4
c10 -16 9 -26 -5 -53 -9 -18 -17 -39 -18 -46 -4 -21 -24 -41 -42 -41 -9 0 -28
-2 -42 -3 -20 -2 -24 1 -21 17 1 11 4 39 4 63 1 30 6 42 17 42 8 1 31 9 50 20
44 24 43 24 57 1z m611 -26 c16 -35 15 -51 -5 -83 -9 -15 -18 -28 -19 -30 -3
-6 -33 11 -37 22 -3 7 3 30 14 52 10 21 18 45 19 52 0 21 16 13 28 -13z
m-1022 -10 c1 -9 -2 -12 -9 -8 -6 4 -8 0 -4 -10 4 -11 2 -14 -7 -11 -11 4 -11
10 -2 29 11 25 18 25 22 0z m1119 -11 c18 -18 17 -65 -2 -71 -10 -4 -33 52
-33 80 0 12 18 8 35 -9z m-336 -21 c-1 -10 -4 -28 -7 -41 -7 -21 -8 -21 -18
-5 -7 11 -8 27 -3 41 10 26 29 30 28 5z m-959 -14 c0 -6 -4 -7 -10 -4 -5 3
-10 11 -10 16 0 6 5 7 10 4 6 -3 10 -11 10 -16z m72 -30 c-9 -11 -18 -15 -20
-9 -5 14 18 41 29 35 4 -3 1 -15 -9 -26z m672 12 c-11 -59 -16 -71 -24 -66 -6
3 -10 1 -10 -5 0 -7 -7 -10 -15 -7 -8 4 -17 2 -20 -3 -4 -6 -15 -10 -26 -10
-11 0 -33 -13 -48 -29 -16 -16 -31 -27 -34 -25 -8 8 5 44 16 44 6 0 8 3 4 6
-3 4 0 19 9 35 24 47 156 101 148 60z m144 -16 c3 -39 -18 -80 -43 -81 -11 -1
-31 -5 -45 -9 -22 -7 -23 -6 -12 8 8 9 11 21 7 26 -8 14 20 67 42 80 29 17 48
8 51 -24z m-642 -1 c-11 -7 -22 -11 -25 -8 -3 3 3 12 13 20 11 7 22 11 25 8 3
-3 -3 -12 -13 -20z m64 -64 c0 -5 -4 -10 -10 -10 -5 0 -10 5 -10 10 0 6 5 10
10 10 6 0 10 -4 10 -10z m-165 -10 c3 -5 1 -10 -4 -10 -6 0 -11 5 -11 10 0 6
2 10 4 10 3 0 8 -4 11 -10z m815 -31 c0 -11 -24 -39 -34 -39 -3 0 -6 11 -6 25
0 18 5 25 20 25 11 0 20 -5 20 -11z m285 -34 c0 -24 -4 -29 -20 -27 -27 5 -28
7 -21 37 10 38 41 30 41 -10z m101 19 c-3 -9 -6 -24 -6 -35 0 -21 -29 -27 -31
-6 -2 23 3 42 14 49 20 13 30 9 23 -8z m-259 -39 c1 -22 -1 -32 -4 -22 -4 15
-7 16 -20 5 -13 -10 -17 -10 -20 0 -3 6 -9 9 -15 6 -5 -3 -2 8 7 26 23 45 49
37 52 -15z m49 -100 c-9 -20 -20 -34 -26 -30 -14 9 -13 15 12 55 26 42 35 26
14 -25z m114 -48 c0 -7 -7 -22 -15 -33 -16 -20 -16 -18 0 31 5 18 15 20 15 2z
m-860 -47 c-6 -12 -14 -20 -17 -17 -2 3 1 14 8 26 7 11 15 18 17 16 2 -2 -2
-13 -8 -25z m-384 -237 c-11 -11 -19 6 -11 24 8 17 8 17 12 0 3 -10 2 -21 -1
-24z m605 0 c-12 -20 -14 -14 -5 12 4 9 9 14 11 11 3 -2 0 -13 -6 -23z m259
10 c87 -12 107 -16 117 -25 7 -6 20 -8 28 -4 27 10 115 -14 115 -31 0 -12 -8
-14 -43 -9 -23 4 -78 7 -123 7 -87 1 -92 2 -117 39 -20 29 -22 44 -4 33 6 -4
19 -8 27 -10z m-820 -29 c0 -8 4 -13 9 -9 5 3 12 1 15 -4 4 -5 24 -8 46 -6 31
3 40 1 40 -11 0 -8 5 -12 10 -9 6 3 10 1 10 -4 0 -6 7 -11 15 -11 8 0 16 -6
16 -12 2 -16 -2 -42 -6 -46 -4 -5 -90 41 -93 50 -2 4 -8 8 -14 8 -16 0 -78 52
-72 61 9 15 24 10 24 -7z m197 -126 c-3 -7 -5 -2 -5 12 0 14 2 19 5 13 2 -7 2
-19 0 -25z m773 -23 c58 -3 115 -8 128 -11 26 -5 20 -24 -8 -24 -11 0 -24 -9
-31 -21 -8 -17 -17 -20 -42 -15 -18 3 -81 10 -141 16 -65 6 -116 15 -125 24
-9 7 -22 11 -28 9 -7 -3 -13 2 -13 10 0 9 -6 18 -12 21 -7 3 28 3 77 1 50 -3
137 -7 195 -10z m-601 -199 c-12 -25 -26 -46 -30 -46 -4 0 4 23 17 51 14 28
28 49 31 46 3 -3 -5 -26 -18 -51z m441 38 c45 -18 52 -34 15 -34 -36 0 -98 27
-90 40 9 14 28 13 75 -6z m-1137 -452 c3 -15 8 -36 12 -47 3 -11 -3 -4 -13 15
-11 19 -23 46 -27 60 -7 21 -6 23 7 12 9 -7 18 -25 21 -40z m30 8 c3 -11 1
-18 -4 -14 -5 3 -9 12 -9 20 0 20 7 17 13 -6z m-43 -54 c0 -6 -7 -1 -15 10 -8
10 -15 23 -15 28 0 6 7 1 15 -10 8 -10 15 -23 15 -28z m312 -37 c16 -9 19 -17
14 -42 -5 -27 0 -39 28 -72 19 -22 36 -37 39 -35 2 3 14 22 27 43 17 29 25 35
31 25 6 -10 9 -10 9 -1 0 13 33 13 38 0 6 -19 1 -48 -8 -42 -6 4 -10 -7 -9
-27 1 -18 3 -25 6 -15 2 9 9 17 14 17 5 0 9 8 9 18 0 34 20 -11 21 -48 0 -29
2 -31 9 -15 5 11 9 36 9 55 1 36 15 69 26 59 6 -7 33 -155 32 -180 0 -17 -13
-19 -34 -6 -14 9 -17 -12 -6 -52 l6 -23 13 23 c10 17 13 19 14 7 0 -16 46 -38
81 -38 14 0 19 8 20 28 2 23 2 24 6 5 7 -37 20 -26 21 19 3 58 12 61 12 4 0
-59 17 -97 34 -75 16 21 29 21 102 3 53 -14 68 -14 74 -4 4 7 12 10 18 6 5 -3
12 0 15 8 3 9 15 12 31 9 15 -3 26 -1 26 6 0 6 7 11 15 11 9 0 18 6 21 14 3 8
12 12 20 9 8 -3 14 1 14 8 0 9 13 15 35 16 40 2 45 -10 13 -35 -12 -9 -31 -27
-43 -39 -12 -13 -27 -23 -34 -23 -6 0 -11 -7 -11 -16 0 -9 -11 -27 -25 -40
-14 -13 -25 -27 -25 -32 0 -5 -8 -12 -18 -14 -18 -5 -23 -32 -10 -53 8 -13 4
-87 -5 -102 -4 -7 -20 -11 -35 -11 -15 0 -63 -5 -107 -11 -108 -15 -212 -16
-229 -1 -8 6 -14 25 -14 42 1 16 -4 33 -11 37 -6 4 -9 15 -5 24 4 11 0 19 -10
23 -9 3 -13 10 -10 15 3 5 -7 9 -23 10 -15 0 -22 3 -16 6 9 3 3 15 -17 35 -17
16 -30 35 -30 42 0 7 -11 23 -25 36 -13 12 -22 27 -19 32 3 5 -2 21 -11 35
-13 19 -16 37 -11 69 3 26 2 44 -4 44 -6 0 -10 -6 -10 -14 0 -9 -7 -12 -20 -9
-14 4 -20 14 -21 37 0 33 -17 83 -18 56 -1 -13 -2 -13 -11 0 -9 13 -10 13 -10
0 -1 -34 -32 46 -37 96 -6 57 -4 60 29 43z m-233 -54 c0 -5 -6 -1 -14 9 -8 11
-15 24 -15 30 0 5 7 1 15 -10 8 -10 14 -23 14 -29z m59 20 c-3 -3 -9 2 -12 12
-6 14 -5 15 5 6 7 -7 10 -15 7 -18z m-78 -120 c0 -5 -5 -3 -10 5 -5 8 -10 20
-10 25 0 6 5 3 10 -5 5 -8 10 -19 10 -25z m589 -47 c-1 -39 -2 -41 -8 -13 -4
17 -5 36 -3 43 8 23 12 12 11 -30z m-811 7 c-3 -3 -9 2 -12 12 -6 14 -5 15 5
6 7 -7 10 -15 7 -18z m-103 -164 c-6 -5 -25 10 -25 20 0 5 6 4 14 -3 8 -7 12
-15 11 -17z m512 -283 c-3 -8 -6 -5 -6 6 -1 11 2 17 5 13 3 -3 4 -12 1 -19z
m40 16 c-3 -3 -12 -4 -19 -1 -8 3 -5 6 6 6 11 1 17 -2 13 -5z m53 -24 c0 -12
5 -17 14 -14 8 3 17 1 20 -4 3 -5 -4 -12 -17 -16 -12 -3 -24 -1 -25 4 -2 6 -8
8 -13 4 -5 -3 -9 2 -9 11 0 10 5 13 12 9 8 -5 9 -2 5 9 -3 10 -2 17 3 17 6 0
10 -9 10 -20z m64 -36 c3 -8 2 -12 -4 -9 -6 3 -10 10 -10 16 0 14 7 11 14 -7z
m34 -19 c-3 -3 -9 2 -12 12 -6 14 -5 15 5 6 7 -7 10 -15 7 -18z m-153 -5 c-3
-5 -1 -10 4 -10 6 0 11 -11 11 -25 0 -14 5 -25 10 -25 6 0 10 -9 10 -20 0 -11
-6 -20 -14 -20 -20 0 -9 -38 13 -43 12 -4 11 -5 -5 -6 -20 -1 -34 17 -48 62
-3 9 -16 22 -28 27 l-23 9 23 0 c13 1 20 5 17 11 -3 6 -1 10 6 10 7 0 9 3 6 7
-4 3 -2 12 4 20 13 15 23 18 14 3z m40 -21 c-4 -6 1 -17 11 -25 18 -14 18 -14
-3 -4 -23 11 -32 40 -12 40 5 0 7 -5 4 -11z m-125 -13 c0 -3 -4 -8 -10 -11 -5
-3 -10 -1 -10 4 0 6 5 11 10 11 6 0 10 -2 10 -4z m-83 -32 c-3 -3 -12 -4 -19
-1 -8 3 -5 6 6 6 11 1 17 -2 13 -5z m68 -12 c-3 -3 -11 0 -18 7 -9 10 -8 11 6
5 10 -3 15 -9 12 -12z m175 -2 c0 -5 -2 -10 -4 -10 -3 0 -8 5 -11 10 -3 6 -1
10 4 10 6 0 11 -4 11 -10z m1628 -20 c23 -10 42 -23 42 -28 0 -6 12 -24 27
-40 33 -39 68 -142 47 -142 -14 0 -18 -11 -15 -42 3 -25 -16 -23 -24 2 -3 11
-15 24 -24 30 -10 5 -31 33 -46 62 -15 28 -38 60 -51 71 -13 10 -24 26 -24 36
0 9 -5 22 -10 27 -14 14 -2 44 19 44 9 0 35 -9 59 -20z m-1747 -12 c3 -5 4
-20 2 -33 -7 -34 -54 -38 -88 -7 -25 23 -25 25 -8 37 10 7 21 11 25 9 4 -2 9
0 12 5 7 10 48 2 57 -11z m1566 -20 c25 -12 44 -54 53 -116 5 -39 4 -45 -16
-52 -12 -5 -24 -17 -27 -27 -3 -14 -6 -12 -16 11 -28 68 -58 125 -64 120 -6
-7 -15 28 -15 63 -1 18 4 20 31 17 18 -3 42 -10 54 -16z m-1559 -91 c7 -8 7
-18 2 -27 -6 -8 -10 -27 -10 -41 0 -15 -8 -37 -19 -50 -10 -13 -16 -30 -13
-38 3 -8 -1 -12 -9 -9 -8 3 -22 1 -31 -4 -15 -7 -18 -4 -20 24 -3 62 4 133 14
146 14 16 73 16 86 -1z"/>
<path d="M2426 3445 c-15 -19 -25 -35 -23 -35 6 0 67 59 67 65 0 15 -21 1 -44
-30z"/>
<path d="M2556 3394 c-4 -14 -5 -28 -3 -31 3 -2 8 8 11 23 4 14 5 28 3 31 -3
2 -8 -8 -11 -23z"/>
<path d="M2736 3319 c-15 -19 -34 -42 -42 -51 -23 -29 1 -20 43 15 29 24 38
38 33 51 -5 16 -9 14 -34 -15z"/>
<path d="M2632 1415 c0 -16 2 -22 5 -12 2 9 2 23 0 30 -3 6 -5 -1 -5 -18z"/>
<path d="M2582 1369 c-7 -12 -11 -24 -8 -27 3 -3 6 1 6 9 0 11 2 11 10 -1 8
-12 10 -9 10 13 0 33 -1 33 -18 6z"/>
<path d="M2644 1326 c-18 -18 5 -73 32 -79 13 -2 26 -2 29 1 7 7 6 47 -1 66
-9 24 -24 19 -24 -8 0 -39 -18 -40 -22 -3 -2 25 -6 31 -14 23z"/>
<path d="M2455 750 c3 -5 13 -10 21 -10 8 0 12 5 9 10 -3 6 -13 10 -21 10 -8
0 -12 -4 -9 -10z"/>
<path d="M3445 3929 c-4 -6 -5 -12 -2 -15 2 -3 7 2 10 11 7 17 1 20 -8 4z"/>
<path d="M250 3910 c-8 -5 -11 -12 -7 -16 4 -4 13 -2 19 4 15 15 7 24 -12 12z"/>
<path d="M3450 3891 c0 -5 5 -13 10 -16 6 -3 10 -2 10 4 0 5 -4 13 -10 16 -5
3 -10 2 -10 -4z"/>
<path d="M3500 3775 c7 -8 17 -15 22 -15 6 0 5 7 -2 15 -7 8 -17 15 -22 15 -6
0 -5 -7 2 -15z"/>
<path d="M3521 3686 c-40 -14 -27 -32 16 -22 13 4 31 2 39 -4 22 -19 35 -2 16
20 -19 23 -24 23 -71 6z"/>
<path d="M3933 3685 c30 -17 166 -49 174 -41 3 3 -8 8 -23 11 -43 8 -136 31
-159 39 -11 4 -7 0 8 -9z"/>
<path d="M1005 3676 c11 -9 19 -20 19 -24 -1 -4 2 -6 6 -5 4 1 16 -7 25 -17
10 -11 23 -20 28 -20 6 0 0 11 -13 25 -24 25 -16 35 10 13 12 -11 12 -10 0 5
-7 10 -19 16 -27 13 -8 -3 -26 1 -41 10 -25 15 -26 15 -7 0z"/>
<path d="M900 3660 c-9 -6 -10 -10 -3 -10 6 0 15 5 18 10 8 12 4 12 -15 0z"/>
<path d="M3606 3641 c-7 -10 22 -37 30 -28 4 3 -1 13 -9 22 -9 8 -18 11 -21 6z"/>
<path d="M3646 3614 c-10 -26 -8 -40 5 -27 6 6 18 9 27 6 10 -4 13 -2 8 5 -4
8 0 12 11 13 16 0 16 1 -2 9 -30 13 -42 12 -49 -6z m34 2 c0 -2 -7 -7 -16 -10
-8 -3 -12 -2 -9 4 6 10 25 14 25 6z"/>
<path d="M990 3586 c0 -3 9 -10 20 -16 11 -6 20 -8 20 -6 0 3 -9 10 -20 16
-11 6 -20 8 -20 6z"/>
<path d="M940 3576 c0 -2 7 -7 16 -10 8 -3 12 -2 9 4 -6 10 -25 14 -25 6z"/>
<path d="M3670 3565 c14 -17 35 -21 25 -5 -3 6 -2 10 4 10 5 0 13 -4 16 -10 3
-5 12 -10 18 -10 23 1 -27 30 -51 30 -21 0 -22 -2 -12 -15z"/>
<path d="M4544 3556 c-5 -13 -9 -14 -14 -6 -15 24 -41 -32 -31 -65 5 -17 10
-22 10 -12 1 14 5 16 20 7 27 -14 36 -13 22 3 -7 9 -8 24 -1 47 10 35 5 55 -6
26z"/>
<path d="M4580 3550 c-6 -11 -8 -20 -6 -20 3 0 10 9 16 20 6 11 8 20 6 20 -3
0 -10 -9 -16 -20z"/>
<path d="M975 3542 c-3 -9 -3 -13 1 -9 4 4 16 0 26 -10 11 -9 18 -11 18 -5 0
7 -5 12 -11 12 -5 0 -8 4 -5 9 3 5 0 11 -8 14 -8 3 -17 -2 -21 -11z"/>
<path d="M2270 3530 c-8 -5 -11 -12 -7 -16 4 -4 15 0 24 9 18 18 8 23 -17 7z"/>
<path d="M3741 3500 c24 -22 50 -40 58 -40 8 0 11 -3 8 -7 -4 -3 5 -14 21 -24
15 -10 45 -32 67 -49 22 -16 48 -33 58 -36 9 -4 17 -10 17 -14 0 -5 9 -12 21
-15 11 -4 47 -32 79 -63 72 -71 100 -94 100 -84 0 4 19 -22 43 -58 23 -36 50
-74 60 -84 9 -11 17 -28 17 -38 0 -10 7 -18 17 -18 9 0 14 -3 10 -6 -3 -4 1
-13 9 -21 41 -42 123 -189 126 -228 2 -23 5 -25 35 -19 29 5 33 3 33 -14 0
-12 5 -24 11 -28 8 -4 9 3 4 26 -9 40 -70 139 -92 147 -12 5 -12 7 -1 15 9 7
7 8 -8 4 -16 -5 -24 0 -32 19 -22 48 -6 65 18 20 7 -14 17 -25 22 -25 10 0
-21 61 -36 72 -5 3 -15 4 -21 2 -7 -3 -27 14 -46 37 -31 40 -32 42 -14 55 10
8 17 14 14 15 -2 0 -13 2 -24 4 -19 3 -105 91 -105 107 0 12 25 9 38 -4 9 -9
12 -9 12 0 0 6 -17 28 -38 49 -107 106 -152 142 -199 166 -29 14 -63 35 -75
47 -12 11 -28 20 -35 20 -7 0 -13 6 -13 14 0 17 -25 27 -47 19 -10 -4 -14 -2
-10 4 4 7 -7 13 -29 18 -25 4 -34 10 -30 21 4 10 -2 14 -19 14 -14 0 -25 5
-25 10 0 6 -9 10 -21 10 -17 0 -14 -7 22 -40z m424 -270 c27 -27 47 -52 44
-55 -8 -7 -108 78 -108 93 -1 22 14 13 64 -38z"/>
<path d="M4636 3523 c-6 -14 -5 -15 5 -6 7 7 10 15 7 18 -3 3 -9 -2 -12 -12z"/>
<path d="M4606 3515 c-9 -26 -7 -32 5 -12 6 10 9 21 6 23 -2 3 -7 -2 -11 -11z"/>
<path d="M3875 3510 c3 -5 10 -10 16 -10 5 0 9 5 9 10 0 6 -7 10 -16 10 -8 0
-12 -4 -9 -10z"/>
<path d="M4367 3469 c7 -7 15 -10 18 -7 3 3 -2 9 -12 12 -14 6 -15 5 -6 -5z"/>
<path d="M4066 3438 c3 -4 14 -8 25 -8 11 0 18 4 14 9 -3 6 -14 9 -25 8 -10
-1 -16 -5 -14 -9z"/>
<path d="M980 3428 c0 -4 6 -8 14 -8 8 0 17 4 20 8 2 4 -4 8 -15 8 -10 0 -19
-4 -19 -8z"/>
<path d="M4345 3424 c11 -9 34 -23 50 -31 28 -15 29 -15 16 1 -15 18 -64 46
-78 46 -4 0 1 -8 12 -16z"/>
<path d="M4535 3420 c3 -5 8 -10 11 -10 2 0 4 5 4 10 0 6 -5 10 -11 10 -5 0
-7 -4 -4 -10z"/>
<path d="M4340 3350 c8 -5 22 -10 30 -10 13 0 13 1 0 10 -8 5 -22 10 -30 10
-13 0 -13 -1 0 -10z"/>
<path d="M4255 3241 c6 -11 4 -13 -10 -7 -15 5 -16 4 -5 -9 9 -11 16 -13 24
-5 7 7 6 14 -3 23 -11 10 -12 9 -6 -2z"/>
<path d="M4390 3247 c0 -3 15 -10 32 -16 18 -6 28 -7 23 -2 -12 10 -55 25 -55
18z"/>
<path d="M4002 3217 c12 -13 76 -47 86 -47 3 0 -12 14 -33 30 -38 31 -80 44
-53 17z"/>
<path d="M1036 3191 c-3 -4 4 -17 17 -27 22 -19 22 -19 4 2 -9 11 -14 24 -10
27 3 4 4 7 0 7 -3 0 -8 -4 -11 -9z"/>
<path d="M4320 3180 c0 -5 5 -10 11 -10 5 0 7 5 4 10 -3 6 -8 10 -11 10 -2 0
-4 -4 -4 -10z"/>
<path d="M1020 3156 c0 -2 7 -9 15 -16 13 -11 14 -10 9 4 -5 14 -24 23 -24 12z"/>
<path d="M4080 3146 c0 -7 11 -16 25 -18 29 -6 31 -2 11 18 -18 18 -36 18 -36
0z"/>
<path d="M4376 3147 c3 -10 9 -15 12 -12 3 3 0 11 -7 18 -10 9 -11 8 -5 -6z"/>
<path d="M4156 3041 c-3 -5 6 -8 19 -8 14 0 25 3 25 8 0 5 -9 9 -19 9 -11 0
-22 -4 -25 -9z"/>
<path d="M4218 2973 c7 -3 16 -2 19 1 4 3 -2 6 -13 5 -11 0 -14 -3 -6 -6z"/>
<path d="M1020 2967 c0 -3 12 -12 26 -22 15 -9 23 -12 20 -6 -7 11 -46 35 -46
28z"/>
<path d="M1015 2929 c-4 -6 3 -13 15 -16 14 -4 18 -8 10 -13 -8 -5 -7 -9 4
-13 11 -5 16 -1 16 13 0 23 -35 46 -45 29z"/>
<path d="M4233 2903 c9 -2 23 -2 30 0 6 3 -1 5 -18 5 -16 0 -22 -2 -12 -5z"/>
<path d="M5032 2870 c0 -14 2 -19 5 -12 2 6 2 18 0 25 -3 6 -5 1 -5 -13z"/>
<path d="M2445 2790 c-3 -5 9 -17 27 -26 18 -9 50 -31 70 -47 21 -17 40 -28
43 -25 5 5 -38 41 -102 85 -18 12 -35 18 -38 13z"/>
<path d="M4315 2770 c3 -5 10 -10 16 -10 5 0 9 5 9 10 0 6 -7 10 -16 10 -8 0
-12 -4 -9 -10z"/>
<path d="M1846 2752 c-3 -5 1 -9 9 -9 8 0 12 4 9 9 -3 4 -7 8 -9 8 -2 0 -6 -4
-9 -8z"/>
<path d="M2053 2731 c-9 -14 -9 -21 0 -31 9 -10 9 -11 0 -6 -8 5 -13 1 -13
-11 0 -15 2 -15 14 -3 17 18 32 70 19 70 -4 0 -13 -8 -20 -19z"/>
<path d="M4327 2744 c-3 -4 1 -13 9 -21 17 -18 29 -11 21 12 -7 16 -19 20 -30
9z"/>
<path d="M1887 2698 c-15 -11 -27 -25 -27 -32 0 -7 -12 -19 -27 -27 -33 -16
-68 -49 -53 -49 6 0 2 -12 -7 -27 l-18 -28 35 22 c19 12 43 38 53 58 11 19 23
35 29 35 5 0 6 5 3 10 -3 6 4 14 17 19 13 6 19 10 13 11 -5 0 -3 4 5 10 8 5
12 11 10 14 -3 2 -17 -5 -33 -16z"/>
<path d="M4359 2678 c4 -12 13 -24 20 -26 9 -3 9 2 0 22 -15 32 -32 35 -20 4z"/>
<path d="M1809 2668 c-12 -23 -12 -23 10 -4 23 21 26 26 11 26 -5 0 -15 -10
-21 -22z"/>
<path d="M2013 2675 c4 -5 -3 -19 -15 -32 -13 -14 -16 -22 -8 -18 25 9 42 43
27 51 -6 4 -9 3 -4 -1z"/>
<path d="M2041 2651 c-13 -10 -22 -25 -20 -34 3 -12 10 -7 27 18 26 40 25 41
-7 16z"/>
<path d="M1754 2638 c-19 -23 -19 -23 2 -5 11 9 24 14 29 10 4 -5 5 -2 1 5 -9
16 -10 16 -32 -10z"/>
<path d="M1959 2658 c-5 -9 -4 -56 1 -52 5 6 8 54 3 54 -2 0 -4 -1 -4 -2z"/>
<path d="M2050 2618 c-12 -22 -12 -22 6 -6 10 10 15 20 12 24 -4 3 -12 -5 -18
-18z"/>
<path d="M1897 2623 c-4 -3 -7 -11 -7 -17 0 -6 5 -5 12 2 6 6 9 14 7 17 -3 3
-9 2 -12 -2z"/>
<path d="M4450 2616 c0 -7 11 -21 24 -30 13 -8 27 -29 31 -46 8 -39 18 -44 39
-21 16 18 16 22 1 50 -9 18 -30 37 -51 46 -44 18 -44 18 -44 1z"/>
<path d="M1920 2614 c0 -5 -12 -22 -27 -39 -15 -16 -29 -37 -30 -46 -4 -24 23
-31 39 -11 12 16 11 16 -7 2 -18 -13 -18 -12 1 10 12 14 19 31 17 38 -3 7 1
19 7 28 7 8 10 17 6 21 -3 3 -6 2 -6 -3z"/>
<path d="M1200 2580 c8 -5 12 -10 8 -10 -17 0 34 -40 59 -46 26 -7 27 -6 10
10 -9 9 -21 15 -27 11 -5 -3 -7 0 -4 8 3 8 -6 18 -21 25 -31 14 -46 15 -25 2z"/>
<path d="M1717 2561 c-37 -45 -34 -63 4 -24 17 17 30 36 27 43 -2 8 -14 0 -31
-19z"/>
<path d="M1931 2585 c0 -5 3 -16 8 -23 7 -11 9 -10 14 3 4 9 3 14 -2 10 -5 -3
-12 1 -14 7 -3 7 -6 9 -6 3z"/>
<path d="M2176 2560 c10 -16 19 -28 21 -26 5 5 -22 56 -30 56 -5 0 0 -13 9
-30z"/>
<path d="M1157 2569 c7 -7 15 -10 18 -7 3 3 -2 9 -12 12 -14 6 -15 5 -6 -5z"/>
<path d="M2008 2545 c-3 -11 -9 -29 -14 -40 -7 -18 -6 -19 10 -6 20 16 44 57
28 47 -6 -3 -12 -1 -14 6 -3 7 -7 4 -10 -7z"/>
<path d="M1635 2515 c-16 -13 -36 -24 -42 -25 -7 0 -13 -9 -13 -19 0 -11 -5
-23 -10 -26 -6 -3 -18 -21 -27 -38 -15 -30 -15 -31 1 -18 9 8 19 11 22 8 6 -5
30 14 98 76 27 25 28 27 8 22 -20 -6 -21 -4 -12 19 12 32 12 32 -25 1z"/>
<path d="M1785 2527 c-22 -12 -54 -48 -55 -61 0 -4 -14 -26 -31 -48 -17 -21
-29 -42 -25 -45 9 -9 33 15 61 62 17 30 30 42 40 39 9 -4 15 0 15 9 0 9 7 20
15 24 8 5 11 14 7 20 -5 8 -12 9 -27 0z"/>
<path d="M1916 2514 c-10 -25 1 -29 14 -5 6 12 7 21 1 21 -5 0 -12 -7 -15 -16z"/>
<path d="M2030 2495 c-5 -14 -14 -25 -20 -25 -5 0 -10 -13 -10 -28 0 -15 -5
-33 -12 -40 -6 -6 -9 -14 -6 -18 11 -10 88 78 88 100 -1 21 -1 21 -16 1 -16
-19 -16 -19 -12 8 6 34 1 35 -12 2z"/>
<path d="M1880 2475 c-7 -8 -16 -13 -20 -10 -5 3 -11 1 -15 -5 -4 -6 -11 -7
-17 -4 -6 4 -8 2 -5 -3 4 -6 -2 -22 -13 -36 -13 -16 -16 -28 -10 -32 10 -6 11
-5 14 13 2 15 43 61 49 55 4 -3 0 -18 -9 -34 -8 -16 -12 -29 -9 -29 2 0 16 23
30 50 26 51 27 62 5 35z"/>
<path d="M4425 2464 c9 -9 18 -14 21 -11 9 9 -6 27 -22 27 -13 0 -13 -2 1 -16z"/>
<path d="M1259 2429 c-11 -7 -9 -9 7 -9 30 0 79 -26 62 -33 -7 -3 2 -5 20 -4
18 0 31 1 30 2 -6 6 -74 42 -89 47 -9 3 -22 2 -30 -3z"/>
<path d="M1784 2418 l-19 -23 23 19 c21 18 27 26 19 26 -2 0 -12 -10 -23 -22z"/>
<path d="M1916 2403 c3 -14 1 -23 -6 -23 -7 0 -10 -8 -7 -20 3 -12 1 -35 -4
-52 -5 -18 -7 -34 -5 -36 7 -7 45 79 52 117 6 32 5 35 -8 23 -13 -10 -17 -10
-22 0 -3 7 -3 3 0 -9z"/>
<path d="M4497 2414 c-11 -12 -8 -24 6 -24 23 0 56 -39 52 -60 -2 -11 0 -20 5
-20 4 0 6 -9 3 -20 -3 -11 -1 -20 4 -20 19 0 53 32 53 51 0 36 -28 76 -57 82
-15 3 -35 8 -44 12 -8 3 -18 2 -22 -1z"/>
<path d="M1589 2363 c-13 -16 -12 -17 4 -4 9 7 17 15 17 17 0 8 -8 3 -21 -13z"/>
<path d="M1373 2350 c1 -14 5 -16 13 -9 9 7 15 5 22 -7 6 -10 12 -13 16 -6 11
18 -3 38 -29 40 -18 1 -23 -3 -22 -18z"/>
<path d="M1338 2353 c7 -3 16 -2 19 1 4 3 -2 6 -13 5 -11 0 -14 -3 -6 -6z"/>
<path d="M1815 2320 c-19 -36 -19 -46 -1 -31 12 10 29 61 20 61 -2 0 -10 -13
-19 -30z"/>
<path d="M2038 2325 c-22 -29 -23 -52 -3 -52 16 0 29 34 23 60 -2 12 -7 9 -20
-8z"/>
<path d="M4460 2346 c0 -2 7 -6 15 -10 8 -3 15 -1 15 4 0 6 -7 10 -15 10 -8 0
-15 -2 -15 -4z"/>
<path d="M1955 2300 c-4 -12 -5 -24 -2 -27 3 -2 8 5 12 17 4 12 5 24 2 27 -3
2 -8 -5 -12 -17z"/>
<path d="M1405 2300 c3 -5 8 -10 11 -10 2 0 4 5 4 10 0 6 -5 10 -11 10 -5 0
-7 -4 -4 -10z"/>
<path d="M1560 2273 c-14 -32 -30 -83 -25 -83 5 0 65 96 65 103 0 19 -28 4
-40 -20z"/>
<path d="M4484 2291 c5 -7 -1 -11 -13 -11 -27 0 -26 -8 1 -37 15 -16 17 -23 7
-23 -12 0 -11 -2 1 -10 12 -8 12 -10 1 -10 -11 0 -10 -5 4 -20 10 -11 15 -28
12 -40 -4 -14 0 -23 11 -27 13 -6 13 -8 -4 -14 -18 -6 -17 -8 6 -17 l25 -11
-25 -2 c-17 -1 -20 -3 -7 -6 10 -3 17 -14 17 -28 0 -15 7 -26 21 -30 17 -6 19
-9 8 -16 -10 -6 -5 -9 16 -10 17 0 24 -3 18 -6 -18 -7 5 -28 38 -35 21 -4 28
1 38 24 12 27 11 31 -27 67 -22 22 -43 49 -47 60 -3 12 -10 21 -15 21 -4 0
-11 11 -14 25 -4 14 -11 23 -15 20 -5 -3 -7 3 -5 12 6 25 -30 126 -46 131 -7
3 -10 0 -6 -7z"/>
<path d="M4603 2197 c13 -11 15 -16 5 -20 -10 -3 -8 -15 9 -48 12 -24 24 -52
27 -61 3 -10 11 -18 18 -18 9 0 9 3 -2 10 -13 9 -13 11 0 20 13 9 13 11 0 21
-12 8 -9 9 10 4 24 -6 24 -5 6 9 -11 9 -26 16 -33 16 -21 0 -15 36 10 53 l22
16 -27 0 c-14 1 -35 4 -45 7 -17 5 -17 5 0 -9z"/>
<path d="M2061 2134 c0 -11 3 -14 6 -6 3 7 2 16 -1 19 -3 4 -6 -2 -5 -13z"/>
<path d="M2071 2094 c0 -11 3 -14 6 -6 3 7 2 16 -1 19 -3 4 -6 -2 -5 -13z"/>
<path d="M2090 2029 c0 -19 4 -41 9 -48 6 -10 8 1 4 30 -7 55 -13 63 -13 18z"/>
<path d="M2777 2017 c-20 -15 -35 -77 -18 -77 6 0 11 6 11 13 0 6 7 25 15 41
18 34 15 41 -8 23z"/>
<path d="M2051 1997 c-8 -15 -9 -31 -3 -47 9 -23 10 -22 17 18 8 51 3 61 -14
29z"/>
<path d="M2785 1950 c-3 -5 -1 -10 4 -10 6 0 11 5 11 10 0 6 -2 10 -4 10 -3 0
-8 -4 -11 -10z"/>
<path d="M5245 1940 c-11 -4 -31 -11 -43 -15 -18 -6 -23 -13 -19 -31 2 -13 0
-25 -5 -26 -25 -9 -31 -195 -7 -224 6 -7 11 -33 12 -58 1 -28 7 -48 16 -51 11
-4 11 -8 0 -22 -11 -13 -11 -17 -1 -20 6 -3 12 -9 12 -14 0 -5 -6 -9 -12 -9
-7 0 -25 -6 -40 -14 -14 -8 -30 -10 -35 -6 -4 4 -21 10 -38 14 -22 5 -26 4
-15 -4 8 -5 24 -10 35 -10 13 0 16 -3 8 -8 -13 -8 19 -25 69 -36 15 -3 33 -12
40 -19 37 -36 90 -50 173 -45 45 3 94 12 111 21 26 14 74 60 74 72 0 15 37 45
55 45 51 0 154 108 162 170 8 55 -19 121 -65 161 -49 44 -187 107 -270 124
-71 15 -183 18 -217 5z m10 -480 c-3 -5 4 -11 15 -15 11 -3 20 -10 20 -15 0
-10 -69 -1 -95 13 -18 10 -17 11 13 21 19 7 30 15 25 21 -4 5 0 3 9 -4 10 -7
16 -17 13 -21z"/>
<path d="M5218 1443 c7 -3 16 -2 19 1 4 3 -2 6 -13 5 -11 0 -14 -3 -6 -6z"/>
<path d="M2590 1918 c0 -4 7 -8 15 -8 8 0 15 4 15 8 0 5 -7 9 -15 9 -8 0 -15
-4 -15 -9z"/>
<path d="M2765 1920 c-3 -5 -2 -10 4 -10 5 0 13 5 16 10 3 6 2 10 -4 10 -5 0
-13 -4 -16 -10z"/>
<path d="M2080 1700 c1 -14 7 -36 15 -50 14 -24 14 -24 8 15 -7 46 -23 71 -23
35z"/>
<path d="M4720 1599 c-99 -70 -128 -78 -195 -55 -11 4 -7 0 10 -10 40 -23 193
-30 304 -14 87 13 139 29 93 30 -13 0 -20 4 -17 10 3 6 -1 10 -9 10 -9 0 -24
8 -35 19 -10 10 -30 21 -45 25 -15 4 -24 11 -21 16 14 23 -34 5 -85 -31z"/>
<path d="M2056 1607 c3 -10 9 -15 12 -12 3 3 0 11 -7 18 -10 9 -11 8 -5 -6z"/>
<path d="M2006 1567 c3 -10 9 -15 12 -12 3 3 0 11 -7 18 -10 9 -11 8 -5 -6z"/>
<path d="M5098 1473 c6 -2 18 -2 25 0 6 3 1 5 -13 5 -14 0 -19 -2 -12 -5z"/>
<path d="M1910 1391 c0 -6 4 -13 10 -16 6 -3 7 1 4 9 -7 18 -14 21 -14 7z"/>
<path d="M1830 1335 c0 -22 43 -105 54 -105 6 0 5 5 -1 11 -6 6 -9 18 -6 27 4
10 2 13 -5 8 -7 -4 -15 8 -22 34 -11 41 -20 52 -20 25z"/>
<path d="M1580 1261 c0 -10 -3 -34 -6 -52 -4 -19 -3 -31 1 -27 10 9 20 98 11
98 -3 0 -6 -8 -6 -19z"/>
<path d="M1710 1250 c-8 -55 8 -157 24 -157 10 0 11 11 4 46 -20 102 -26 125
-28 111z"/>
<path d="M1601 1184 c0 -11 3 -14 6 -6 3 7 2 16 -1 19 -3 4 -6 -2 -5 -13z"/>
<path d="M1618 1150 c-3 -17 -1 -33 4 -36 4 -3 8 11 8 30 0 44 -6 47 -12 6z"/>
<path d="M2092 651 c-17 -17 -32 -37 -32 -46 0 -9 -11 -31 -25 -49 -14 -18
-25 -37 -25 -42 0 -5 -10 -30 -22 -56 -19 -40 -27 -48 -49 -48 -15 0 -30 -7
-33 -16 -9 -23 -7 -94 2 -94 14 0 54 33 102 82 25 26 57 51 73 57 22 9 27 17
27 45 0 19 4 45 9 58 23 62 32 100 26 118 -8 26 -15 25 -53 -9z"/>
</g>
</svg>
